<?xml version='1.0' encoding='utf-8'?>
<svg xmlns="http://www.w3.org/2000/svg" version="1.1" width="480" height="509" viewBox="0 0 480 509">
  <rect x="0" y="0" width="480" height="509" fill="#16448e" />
  <g fill="#a7928c" stroke="none">
    <path d="M 0.0,30.5 L 2.0,30.5 L 4.0,30.5 L 6.0,30.5 L 8.0,30.5 L 10.0,30.5 L 12.0,30.5 L 13.5,30.0 L 15.0,29.5 L 17.0,29.5 L 19.0,29.5 L 21.0,29.5 L 23.0,29.5 L 25.0,29.5 L 27.0,29.5 L 29.0,29.5 L 31.0,29.5 L 32.0,28.5 L 34.0,28.5 L 36.0,28.5 L 38.0,28.5 L 40.0,28.5 L 42.0,28.5 L 44.0,28.5 L 45.5,28.0 L 47.0,27.5 L 49.0,27.5 L 51.0,27.5 L 53.0,27.5 L 55.0,27.5 L 57.0,27.5 L 59.0,27.5 L 61.0,27.5 L 62.5,27.0 L 64.0,26.5 L 66.0,26.5 L 68.0,26.5 L 70.0,26.5 L 72.0,26.5 L 74.0,26.5 L 76.0,26.5 L 78.0,26.5 L 79.0,25.5 L 81.0,25.5 L 83.0,25.5 L 85.0,25.5 L 87.0,25.5 L 89.0,25.5 L 91.0,25.5 L 93.0,25.5 L 94.5,25.0 L 96.0,24.5 L 98.0,24.5 L 100.0,24.5 L 102.0,24.5 L 104.0,24.5 L 106.0,24.5 L 108.0,24.5 L 110.0,24.5 L 111.5,24.0 L 113.0,23.5 L 115.0,23.5 L 117.0,23.5 L 119.0,23.5 L 121.0,23.5 L 123.0,23.5 L 125.0,23.5 L 127.0,23.5 L 128.0,22.5 L 130.0,22.5 L 132.0,22.5 L 134.0,22.5 L 135.0,21.5 L 135.5,20.0 L 135.5,18.0 L 135.5,16.0 L 135.5,14.0 L 135.5,12.0 L 135.5,10.0 L 135.5,8.0 L 135.5,6.0 L 135.5,4.0 L 135.5,2.0 L 135.5,0.0 Z" />
    <path d="M 139.5,0.0 L 139.5,2.0 L 139.5,4.0 L 139.5,6.0 L 139.5,8.0 L 139.5,10.0 L 139.5,12.0 L 139.5,14.0 L 139.5,16.0 L 139.5,18.0 L 139.5,20.0 L 140.0,21.5 L 141.0,22.5 L 143.0,22.5 L 144.5,22.0 L 146.0,21.5 L 148.0,21.5 L 150.0,21.5 L 152.0,21.5 L 154.0,21.5 L 156.0,21.5 L 158.0,21.5 L 160.0,21.5 L 161.5,21.0 L 163.0,20.5 L 165.0,20.5 L 167.0,20.5 L 169.0,20.5 L 171.0,20.5 L 173.0,20.5 L 175.0,20.5 L 177.0,20.5 L 179.0,20.5 L 180.0,19.5 L 182.0,19.5 L 184.0,19.5 L 186.0,19.5 L 188.0,19.5 L 190.0,19.5 L 192.0,19.5 L 194.0,19.5 L 195.0,18.5 L 197.0,18.5 L 199.0,18.5 L 201.0,18.5 L 203.0,18.5 L 205.0,18.5 L 207.0,18.5 L 209.0,18.5 L 211.0,18.5 L 212.0,17.5 L 214.0,17.5 L 216.0,17.5 L 218.0,17.5 L 220.0,17.5 L 222.0,17.5 L 224.0,17.5 L 226.0,17.5 L 227.0,16.5 L 229.0,16.5 L 231.0,16.5 L 233.0,16.5 L 235.0,16.5 L 237.0,16.5 L 239.0,16.5 L 241.0,16.5 L 243.0,16.5 L 244.5,16.0 L 246.0,15.5 L 248.0,15.5 L 250.0,15.5 L 252.0,15.5 L 254.0,15.5 L 256.0,15.5 L 258.0,15.5 L 260.0,15.5 L 261.0,14.5 L 263.0,14.5 L 265.0,14.5 L 267.0,14.5 L 269.0,14.5 L 271.0,14.5 L 273.0,14.5 L 275.0,14.5 L 276.0,13.5 L 278.0,13.5 L 280.0,13.5 L 282.0,13.5 L 284.0,13.5 L 286.0,13.5 L 288.0,13.5 L 290.0,13.5 L 291.5,13.0 L 293.0,12.5 L 295.0,12.5 L 297.0,12.5 L 299.0,12.5 L 301.0,12.5 L 303.0,12.5 L 305.0,12.5 L 307.0,12.5 L 308.0,11.5 L 310.0,11.5 L 312.0,11.5 L 314.0,11.5 L 316.0,11.5 L 318.0,11.5 L 320.0,11.5 L 322.0,11.5 L 324.0,11.5 L 325.5,11.0 L 327.0,10.5 L 329.0,10.5 L 331.0,10.5 L 333.0,10.5 L 335.0,10.5 L 337.0,10.5 L 339.0,10.5 L 341.0,10.5 L 343.0,10.5 L 344.5,10.0 L 346.0,9.5 L 348.0,9.5 L 350.0,9.5 L 352.0,9.5 L 354.0,9.5 L 356.0,9.5 L 358.0,9.5 L 360.0,9.5 L 362.0,9.5 L 363.0,8.5 L 365.0,8.5 L 367.0,8.5 L 369.0,8.5 L 371.0,8.5 L 373.0,8.5 L 375.0,8.5 L 377.0,8.5 L 378.0,7.5 L 380.0,7.5 L 382.0,7.5 L 384.0,7.5 L 386.0,7.5 L 388.0,7.5 L 390.0,7.5 L 391.5,7.0 L 393.0,6.5 L 395.0,6.5 L 397.0,6.5 L 399.0,6.5 L 401.0,6.5 L 403.0,6.5 L 405.0,6.5 L 406.5,6.0 L 408.0,5.5 L 410.0,5.5 L 412.0,5.5 L 414.0,5.5 L 416.0,5.5 L 418.0,5.5 L 420.0,5.5 L 422.0,5.5 L 423.0,4.5 L 425.0,4.5 L 427.0,4.5 L 429.0,4.5 L 431.0,4.5 L 433.0,4.5 L 435.0,4.5 L 437.0,4.5 L 439.0,4.5 L 440.0,3.5 L 442.0,3.5 L 444.0,3.5 L 446.0,3.5 L 448.0,3.5 L 450.0,3.5 L 452.0,3.5 L 454.0,3.5 L 456.0,3.5 L 457.0,2.5 L 459.0,2.5 L 461.0,2.5 L 463.0,2.5 L 465.0,2.5 L 467.0,2.5 L 469.0,2.5 L 471.0,2.5 L 472.5,2.0 L 474.0,1.5 L 476.0,1.5 L 478.0,1.5 L 480.0,1.5 Z" />
    <path d="M 480.0,5.5 L 478.0,5.5 L 476.0,5.5 L 474.0,5.5 L 472.0,5.5 L 470.0,5.5 L 468.5,6.0 L 467.0,6.5 L 465.0,6.5 L 463.0,6.5 L 461.0,6.5 L 459.0,6.5 L 457.0,6.5 L 455.0,6.5 L 454.0,7.5 L 452.0,7.5 L 450.0,7.5 L 448.0,7.5 L 446.0,7.5 L 444.0,7.5 L 442.0,7.5 L 440.0,7.5 L 438.5,8.0 L 437.0,8.5 L 435.0,8.5 L 433.0,8.5 L 431.0,8.5 L 429.0,8.5 L 427.0,8.5 L 425.0,8.5 L 423.0,8.5 L 421.5,9.0 L 420.0,9.5 L 418.0,9.5 L 416.0,9.5 L 414.0,9.5 L 412.0,9.5 L 410.0,9.5 L 408.0,9.5 L 406.0,9.5 L 404.5,10.0 L 403.0,10.5 L 401.0,10.5 L 399.0,10.5 L 397.0,10.5 L 395.0,10.5 L 393.0,10.5 L 391.0,10.5 L 389.5,11.0 L 388.0,11.5 L 386.0,11.5 L 384.0,11.5 L 382.0,11.5 L 380.0,11.5 L 378.0,11.5 L 376.0,11.5 L 374.5,12.0 L 373.0,12.5 L 371.0,12.5 L 369.0,12.5 L 367.0,12.5 L 365.0,12.5 L 363.0,12.5 L 361.0,12.5 L 359.0,12.5 L 358.0,13.5 L 356.0,13.5 L 354.0,13.5 L 352.0,13.5 L 350.0,13.5 L 348.0,13.5 L 346.0,13.5 L 344.0,13.5 L 343.0,14.5 L 341.0,14.5 L 339.0,14.5 L 337.0,14.5 L 335.0,14.5 L 333.0,14.5 L 331.0,14.5 L 329.0,14.5 L 327.0,14.5 L 325.5,15.0 L 324.0,15.5 L 322.0,15.5 L 320.0,15.5 L 318.0,15.5 L 316.0,15.5 L 314.0,15.5 L 312.0,15.5 L 310.0,15.5 L 308.0,15.5 L 306.0,15.5 L 305.0,16.5 L 303.0,16.5 L 301.0,16.5 L 299.0,16.5 L 297.0,16.5 L 295.0,16.5 L 293.0,16.5 L 291.5,17.0 L 290.0,17.5 L 288.0,17.5 L 286.0,17.5 L 284.0,17.5 L 282.0,17.5 L 280.0,17.5 L 278.0,17.5 L 276.0,17.5 L 274.5,18.0 L 273.0,18.5 L 271.0,18.5 L 269.0,18.5 L 267.0,18.5 L 265.0,18.5 L 263.0,18.5 L 261.0,18.5 L 259.0,18.5 L 257.5,19.0 L 256.0,19.5 L 254.0,19.5 L 252.0,19.5 L 250.0,19.5 L 248.0,19.5 L 246.0,19.5 L 244.0,19.5 L 242.5,20.0 L 241.0,20.5 L 239.0,20.5 L 237.0,20.5 L 235.0,20.5 L 233.0,20.5 L 231.0,20.5 L 229.0,20.5 L 227.0,20.5 L 225.0,20.5 L 223.5,21.0 L 222.0,21.5 L 220.0,21.5 L 218.0,21.5 L 216.0,21.5 L 214.0,21.5 L 212.0,21.5 L 210.0,21.5 L 208.0,21.5 L 206.0,21.5 L 205.0,22.5 L 203.0,22.5 L 201.0,22.5 L 199.0,22.5 L 197.0,22.5 L 195.0,22.5 L 193.0,22.5 L 191.0,22.5 L 189.5,23.0 L 188.0,23.5 L 186.0,23.5 L 184.0,23.5 L 182.0,23.5 L 180.0,23.5 L 178.0,23.5 L 176.0,23.5 L 174.0,23.5 L 173.0,24.5 L 171.0,24.5 L 169.0,24.5 L 167.0,24.5 L 165.0,24.5 L 163.0,24.5 L 161.0,24.5 L 159.0,24.5 L 157.5,25.0 L 156.0,25.5 L 154.0,25.5 L 152.0,25.5 L 150.0,25.5 L 148.0,25.5 L 146.0,25.5 L 144.0,25.5 L 143.0,26.5 L 141.0,26.5 L 139.0,26.5 L 137.0,26.5 L 135.0,26.5 L 133.0,26.5 L 131.0,26.5 L 129.0,26.5 L 127.0,26.5 L 126.0,27.5 L 124.0,27.5 L 122.0,27.5 L 120.0,27.5 L 118.0,27.5 L 116.0,27.5 L 114.0,27.5 L 112.0,27.5 L 110.0,27.5 L 108.0,27.5 L 106.0,27.5 L 104.5,28.0 L 103.0,28.5 L 101.0,28.5 L 99.0,28.5 L 97.0,28.5 L 95.0,28.5 L 93.0,28.5 L 91.0,28.5 L 89.0,28.5 L 87.5,29.0 L 86.0,29.5 L 84.0,29.5 L 82.0,29.5 L 80.0,29.5 L 78.0,29.5 L 76.0,29.5 L 74.0,29.5 L 72.0,29.5 L 71.0,30.5 L 69.0,30.5 L 67.0,30.5 L 65.0,30.5 L 63.0,30.5 L 61.0,30.5 L 59.0,30.5 L 57.0,30.5 L 56.0,31.5 L 54.0,31.5 L 52.0,31.5 L 50.0,31.5 L 48.0,31.5 L 46.0,31.5 L 44.0,31.5 L 42.0,31.5 L 40.0,31.5 L 39.0,32.5 L 37.0,32.5 L 35.0,32.5 L 33.0,32.5 L 31.0,32.5 L 29.0,32.5 L 27.0,32.5 L 25.0,32.5 L 23.0,32.5 L 22.0,33.5 L 20.0,33.5 L 18.0,33.5 L 16.0,33.5 L 14.0,33.5 L 12.0,33.5 L 10.0,33.5 L 8.0,33.5 L 6.0,33.5 L 4.0,33.5 L 3.0,34.5 L 1.0,34.5 Z" />
    <path d="M 366.0,133.5 L 364.0,133.5 L 362.0,133.5 L 360.5,133.0 L 359.5,132.0 L 359.5,130.0 L 359.5,128.0 L 359.5,126.0 L 359.5,124.0 L 359.5,122.0 L 359.5,120.0 L 359.5,118.0 L 359.5,116.0 L 359.5,114.0 L 359.5,112.0 L 359.5,110.0 L 359.5,108.0 L 359.5,106.0 L 359.5,104.0 L 359.5,102.0 L 359.5,100.0 L 359.5,98.0 L 359.5,96.0 L 359.5,94.0 L 359.5,92.0 L 359.5,90.0 L 359.5,88.0 L 359.5,86.0 L 359.5,84.0 L 359.5,82.0 L 359.5,80.0 L 359.5,78.0 L 359.5,76.0 L 359.5,74.0 L 360.0,72.5 L 360.5,71.0 L 361.0,69.5 L 362.0,68.5 L 364.0,68.5 L 366.0,68.5 L 368.0,68.5 L 370.0,68.5 L 371.5,69.0 L 372.5,70.0 L 373.0,71.5 L 373.5,73.0 L 374.5,74.0 L 375.0,75.5 L 375.5,77.0 L 376.5,78.0 L 377.5,79.0 L 378.0,80.5 L 378.5,82.0 L 379.5,83.0 L 380.0,84.5 L 381.0,85.5 L 381.5,87.0 L 382.5,88.0 L 382.5,90.0 L 383.5,91.0 L 384.5,92.0 L 385.0,93.5 L 385.5,95.0 L 386.5,96.0 L 387.5,97.0 L 388.0,98.5 L 388.5,100.0 L 389.5,101.0 L 390.0,102.5 L 390.5,104.0 L 391.5,105.0 L 392.5,105.0 L 393.5,104.0 L 393.5,102.0 L 393.5,100.0 L 393.5,98.0 L 393.5,96.0 L 393.5,94.0 L 393.5,92.0 L 394.5,91.0 L 394.5,89.0 L 394.5,87.0 L 394.5,85.0 L 394.5,83.0 L 394.5,81.0 L 394.5,79.0 L 394.5,77.0 L 394.5,75.0 L 394.5,73.0 L 394.5,71.0 L 394.5,69.0 L 395.5,68.0 L 396.5,67.0 L 398.0,66.5 L 400.0,66.5 L 402.0,66.5 L 403.5,67.0 L 404.5,68.0 L 405.5,69.0 L 405.5,71.0 L 405.5,73.0 L 405.5,75.0 L 405.5,77.0 L 405.5,79.0 L 405.5,81.0 L 405.5,83.0 L 405.5,85.0 L 405.5,87.0 L 405.5,89.0 L 405.5,91.0 L 405.5,93.0 L 405.0,94.5 L 404.5,96.0 L 404.5,98.0 L 404.5,100.0 L 404.5,102.0 L 404.5,104.0 L 404.5,106.0 L 404.5,108.0 L 404.5,110.0 L 404.5,112.0 L 404.5,114.0 L 404.5,116.0 L 404.5,118.0 L 404.5,120.0 L 404.5,122.0 L 404.5,124.0 L 404.5,126.0 L 404.5,128.0 L 403.5,129.0 L 402.5,130.0 L 401.0,130.5 L 400.0,131.5 L 398.0,131.5 L 396.0,131.5 L 394.0,131.5 L 393.0,130.5 L 392.0,129.5 L 391.5,128.0 L 390.5,127.0 L 390.0,125.5 L 389.0,124.5 L 388.5,123.0 L 387.5,122.0 L 387.0,120.5 L 386.5,119.0 L 385.5,118.0 L 385.0,116.5 L 384.0,115.5 L 383.5,114.0 L 383.0,112.5 L 382.0,111.5 L 381.5,110.0 L 380.5,109.0 L 380.0,107.5 L 379.5,106.0 L 378.5,105.0 L 377.5,104.0 L 377.0,102.5 L 376.5,101.0 L 375.5,100.0 L 375.0,98.5 L 374.5,97.0 L 373.5,96.0 L 372.5,95.0 L 371.5,95.0 L 370.5,96.0 L 370.5,98.0 L 370.5,100.0 L 370.5,102.0 L 370.5,104.0 L 370.5,106.0 L 370.5,108.0 L 370.5,110.0 L 370.5,112.0 L 369.5,113.0 L 369.5,115.0 L 369.5,117.0 L 369.5,119.0 L 369.5,121.0 L 369.5,123.0 L 369.5,125.0 L 370.5,126.0 L 370.5,128.0 L 370.0,129.5 L 369.0,130.5 L 368.0,131.5 L 367.0,132.5 L 366.0,133.5 Z" />
    <path d="M 0.0,407.5 L 1.0,406.5 L 2.0,405.5 L 4.0,405.5 L 6.0,405.5 L 7.0,404.5 L 8.0,403.5 L 10.0,403.5 L 11.0,402.5 L 13.0,402.5 L 14.0,401.5 L 15.0,400.5 L 17.0,400.5 L 18.0,399.5 L 20.0,399.5 L 21.5,399.0 L 23.0,398.5 L 24.0,397.5 L 26.0,397.5 L 27.0,396.5 L 28.5,396.0 L 30.0,395.5 L 31.5,395.0 L 33.0,394.5 L 35.0,394.5 L 36.0,393.5 L 38.0,393.5 L 39.0,392.5 L 40.5,392.0 L 42.0,391.5 L 43.0,390.5 L 45.0,390.5 L 46.0,389.5 L 48.0,389.5 L 49.5,389.0 L 51.0,388.5 L 52.0,387.5 L 54.0,387.5 L 55.5,387.0 L 57.0,386.5 L 58.5,386.0 L 59.5,385.0 L 61.0,384.5 L 62.5,384.0 L 64.0,383.5 L 65.0,382.5 L 67.0,382.5 L 69.0,382.5 L 70.0,381.5 L 71.0,380.5 L 72.5,380.0 L 74.0,379.5 L 76.0,379.5 L 77.0,378.5 L 78.5,378.0 L 80.0,377.5 L 81.5,377.0 L 82.5,376.0 L 83.5,375.0 L 85.0,374.5 L 86.0,373.5 L 87.5,373.0 L 89.0,372.5 L 90.0,371.5 L 92.0,371.5 L 93.0,370.5 L 94.5,370.0 L 96.0,369.5 L 97.5,369.0 L 98.5,368.0 L 100.0,367.5 L 101.5,367.0 L 103.0,366.5 L 104.5,366.0 L 106.0,365.5 L 107.5,365.0 L 108.5,365.0 L 109.5,365.0 L 110.5,364.0 L 111.5,363.0 L 112.5,363.0 L 113.5,363.0 L 115.0,362.5 L 116.0,361.5 L 117.0,360.5 L 118.5,360.0 L 119.5,359.0 L 121.0,358.5 L 122.0,357.5 L 123.5,357.0 L 125.0,356.5 L 126.0,355.5 L 127.0,354.5 L 128.5,354.0 L 130.0,353.5 L 131.0,354.5 L 132.0,353.5 L 133.0,352.5 L 133.5,351.0 L 134.0,349.5 L 134.5,348.0 L 135.0,346.5 L 135.0,345.5 L 135.0,344.5 L 135.5,343.0 L 136.5,342.0 L 137.0,340.5 L 137.5,339.0 L 138.5,338.0 L 139.5,337.0 L 140.0,335.5 L 141.0,334.5 L 142.0,333.5 L 143.0,332.5 L 144.0,331.5 L 145.0,330.5 L 145.5,329.0 L 145.5,327.0 L 145.5,325.0 L 144.5,324.0 L 144.5,322.0 L 144.5,320.0 L 144.5,318.0 L 144.5,316.0 L 143.5,315.0 L 142.5,314.0 L 141.5,313.0 L 140.5,312.0 L 139.5,311.0 L 138.5,310.0 L 137.5,309.0 L 136.5,308.0 L 135.5,307.0 L 136.0,305.5 L 137.0,304.5 L 138.0,305.5 L 139.0,304.5 L 139.0,303.5 L 138.0,302.5 L 137.0,301.5 L 136.5,300.0 L 136.5,298.0 L 137.5,297.0 L 138.5,296.0 L 139.5,295.0 L 138.5,294.0 L 138.0,292.5 L 137.0,291.5 L 137.0,290.5 L 138.0,289.5 L 139.0,288.5 L 139.5,287.0 L 140.0,285.5 L 141.0,284.5 L 141.0,283.5 L 140.0,282.5 L 139.0,283.5 L 137.5,283.0 L 136.5,282.0 L 135.5,281.0 L 135.0,279.5 L 134.5,278.0 L 135.5,277.0 L 134.5,276.0 L 133.5,275.0 L 134.5,274.0 L 136.0,273.5 L 137.0,272.5 L 137.5,271.0 L 138.5,270.0 L 139.5,269.0 L 139.0,267.5 L 138.0,266.5 L 137.5,265.0 L 136.5,264.0 L 137.5,263.0 L 138.5,262.0 L 139.5,262.0 L 141.0,262.5 L 142.0,263.5 L 143.5,263.0 L 144.5,262.0 L 145.5,261.0 L 144.5,260.0 L 143.5,259.0 L 144.5,258.0 L 144.0,256.5 L 143.0,255.5 L 142.0,254.5 L 141.0,253.5 L 140.0,252.5 L 139.0,251.5 L 138.0,252.5 L 137.0,253.5 L 136.5,255.0 L 137.5,256.0 L 138.5,257.0 L 137.5,258.0 L 136.0,258.5 L 135.0,259.5 L 134.0,260.5 L 132.0,260.5 L 131.0,259.5 L 130.5,258.0 L 131.0,256.5 L 131.5,255.0 L 131.5,253.0 L 130.5,252.0 L 131.5,251.0 L 131.5,249.0 L 132.5,248.0 L 131.5,247.0 L 130.5,246.0 L 131.5,245.0 L 132.5,244.0 L 132.5,242.0 L 131.5,241.0 L 131.0,239.5 L 130.0,238.5 L 128.5,238.0 L 127.5,237.0 L 126.5,236.0 L 125.0,235.5 L 123.0,235.5 L 121.0,235.5 L 119.5,235.0 L 118.5,234.0 L 117.5,233.0 L 117.0,231.5 L 116.5,230.0 L 115.5,229.0 L 115.5,227.0 L 115.5,225.0 L 115.5,223.0 L 115.5,221.0 L 115.5,219.0 L 115.5,217.0 L 115.5,215.0 L 115.5,213.0 L 115.5,211.0 L 115.5,209.0 L 115.5,207.0 L 115.5,205.0 L 115.5,203.0 L 115.5,201.0 L 115.5,199.0 L 115.5,197.0 L 115.5,195.0 L 115.5,193.0 L 115.5,191.0 L 115.5,189.0 L 115.5,187.0 L 115.5,185.0 L 115.5,183.0 L 115.5,181.0 L 115.5,179.0 L 115.5,177.0 L 116.5,176.0 L 115.5,175.0 L 116.5,174.0 L 117.0,172.5 L 118.0,171.5 L 120.0,171.5 L 122.0,171.5 L 124.0,171.5 L 125.0,172.5 L 126.0,173.5 L 126.5,175.0 L 126.5,177.0 L 126.5,179.0 L 126.5,181.0 L 126.5,183.0 L 126.5,185.0 L 126.5,187.0 L 126.5,189.0 L 127.5,190.0 L 128.5,191.0 L 129.5,192.0 L 130.5,192.0 L 131.5,191.0 L 132.0,189.5 L 133.0,188.5 L 133.5,187.0 L 133.5,185.0 L 134.5,184.0 L 134.5,182.0 L 133.5,181.0 L 133.5,179.0 L 132.5,178.0 L 133.5,177.0 L 134.5,176.0 L 135.5,175.0 L 135.5,173.0 L 135.5,171.0 L 135.5,169.0 L 135.0,167.5 L 134.0,166.5 L 133.0,165.5 L 133.0,164.5 L 133.5,163.0 L 133.0,161.5 L 133.0,160.5 L 133.5,159.0 L 134.0,157.5 L 135.0,156.5 L 136.0,155.5 L 136.0,154.5 L 135.0,153.5 L 134.5,152.0 L 133.5,151.0 L 134.5,150.0 L 135.5,149.0 L 136.5,148.0 L 137.5,147.0 L 138.5,146.0 L 139.5,145.0 L 140.5,144.0 L 141.5,143.0 L 141.5,141.0 L 140.5,140.0 L 139.0,139.5 L 138.0,138.5 L 137.0,137.5 L 135.5,137.0 L 134.5,136.0 L 133.5,135.0 L 132.5,134.0 L 131.5,133.0 L 131.0,131.5 L 130.5,130.0 L 131.0,128.5 L 131.5,127.0 L 132.5,126.0 L 134.0,125.5 L 135.0,124.5 L 136.0,123.5 L 137.5,124.0 L 139.0,124.5 L 140.0,125.5 L 141.0,126.5 L 142.0,127.5 L 143.0,128.5 L 144.0,129.5 L 145.5,130.0 L 146.5,130.0 L 147.5,129.0 L 146.5,128.0 L 147.5,127.0 L 149.0,126.5 L 150.0,125.5 L 151.5,125.0 L 152.5,124.0 L 153.5,123.0 L 154.5,122.0 L 155.0,120.5 L 156.0,119.5 L 157.0,118.5 L 157.0,117.5 L 156.0,116.5 L 154.5,116.0 L 153.0,115.5 L 151.5,115.0 L 150.0,114.5 L 148.0,114.5 L 146.5,114.0 L 145.0,113.5 L 143.5,113.0 L 142.0,112.5 L 140.5,112.0 L 139.5,111.0 L 138.0,110.5 L 137.0,109.5 L 136.0,108.5 L 135.5,107.0 L 134.5,106.0 L 133.5,105.0 L 133.0,103.5 L 132.5,102.0 L 132.5,100.0 L 132.0,98.5 L 131.5,97.0 L 132.0,95.5 L 132.5,94.0 L 132.5,92.0 L 132.5,90.0 L 133.5,89.0 L 134.0,87.5 L 134.5,86.0 L 135.5,85.0 L 136.5,84.0 L 137.5,83.0 L 138.5,82.0 L 139.5,81.0 L 141.0,80.5 L 142.5,80.0 L 144.0,79.5 L 145.0,78.5 L 147.0,78.5 L 148.5,78.0 L 150.0,77.5 L 152.0,77.5 L 154.0,77.5 L 155.5,78.0 L 157.0,78.5 L 159.0,78.5 L 160.0,79.5 L 161.5,80.0 L 163.0,80.5 L 164.0,81.5 L 165.0,82.5 L 166.0,83.5 L 167.0,84.5 L 168.0,85.5 L 168.5,87.0 L 169.5,88.0 L 169.0,89.5 L 168.5,91.0 L 167.5,92.0 L 166.5,93.0 L 165.5,94.0 L 164.0,94.5 L 162.0,94.5 L 161.0,93.5 L 160.0,92.5 L 159.0,91.5 L 158.0,90.5 L 156.5,90.0 L 155.0,89.5 L 154.0,88.5 L 152.0,88.5 L 150.0,88.5 L 148.5,89.0 L 147.0,89.5 L 146.0,90.5 L 144.5,91.0 L 143.5,92.0 L 142.5,93.0 L 142.5,95.0 L 142.5,97.0 L 142.5,99.0 L 143.5,100.0 L 144.5,101.0 L 146.0,101.5 L 147.5,102.0 L 149.0,102.5 L 151.0,102.5 L 152.0,103.5 L 154.0,103.5 L 155.5,104.0 L 157.0,104.5 L 158.5,105.0 L 160.0,105.5 L 161.0,106.5 L 162.5,107.0 L 163.5,108.0 L 165.0,108.5 L 166.0,109.5 L 167.0,108.5 L 167.5,107.0 L 168.5,106.0 L 169.5,106.0 L 171.0,106.5 L 172.0,105.5 L 172.5,104.0 L 171.5,103.0 L 170.5,102.0 L 169.5,101.0 L 169.5,99.0 L 169.5,97.0 L 170.0,95.5 L 170.5,94.0 L 171.5,93.0 L 173.0,92.5 L 175.0,92.5 L 176.0,91.5 L 176.5,90.0 L 176.5,88.0 L 176.5,86.0 L 176.5,84.0 L 177.0,82.5 L 178.0,81.5 L 179.0,80.5 L 181.0,80.5 L 183.0,80.5 L 184.5,81.0 L 185.5,82.0 L 186.5,83.0 L 186.5,85.0 L 186.5,87.0 L 186.5,89.0 L 187.0,90.5 L 188.0,91.5 L 190.0,91.5 L 192.0,91.5 L 193.0,92.5 L 194.0,93.5 L 195.5,93.0 L 196.5,92.0 L 197.5,91.0 L 199.0,90.5 L 200.0,89.5 L 202.0,89.5 L 204.0,89.5 L 206.0,89.5 L 208.0,89.5 L 210.0,89.5 L 212.0,89.5 L 214.0,89.5 L 215.5,90.0 L 217.0,90.5 L 218.5,91.0 L 220.0,91.5 L 221.0,92.5 L 222.5,92.0 L 223.5,91.0 L 225.0,90.5 L 226.0,89.5 L 228.0,89.5 L 229.0,90.5 L 230.5,91.0 L 232.0,91.5 L 233.0,92.5 L 234.0,93.5 L 235.0,94.5 L 236.5,94.0 L 237.5,93.0 L 236.5,92.0 L 237.5,91.0 L 238.5,91.0 L 240.0,91.5 L 241.5,91.0 L 243.0,90.5 L 244.0,91.5 L 245.0,90.5 L 246.5,90.0 L 248.0,89.5 L 249.5,89.0 L 251.0,88.5 L 253.0,88.5 L 254.5,88.0 L 256.0,87.5 L 257.0,88.5 L 258.0,87.5 L 259.0,88.5 L 260.5,88.0 L 261.5,87.0 L 262.5,86.0 L 263.5,85.0 L 263.5,83.0 L 263.5,81.0 L 263.5,79.0 L 263.5,77.0 L 263.5,75.0 L 263.5,73.0 L 264.5,72.0 L 265.5,71.0 L 266.5,70.0 L 268.0,69.5 L 270.0,69.5 L 272.0,69.5 L 273.0,70.5 L 273.5,72.0 L 274.5,73.0 L 274.5,75.0 L 274.5,77.0 L 274.5,79.0 L 274.5,81.0 L 274.5,83.0 L 274.5,85.0 L 274.5,87.0 L 274.5,89.0 L 275.0,90.5 L 276.0,91.5 L 278.0,91.5 L 279.0,90.5 L 280.0,89.5 L 282.0,89.5 L 283.0,88.5 L 284.0,87.5 L 286.0,87.5 L 288.0,87.5 L 290.0,87.5 L 291.0,88.5 L 292.0,87.5 L 293.0,86.5 L 294.0,87.5 L 294.0,88.5 L 293.5,90.0 L 294.5,91.0 L 295.5,92.0 L 297.0,92.5 L 298.0,91.5 L 299.0,92.5 L 300.0,93.5 L 301.0,94.5 L 302.0,93.5 L 302.5,92.0 L 303.5,91.0 L 304.5,90.0 L 305.5,89.0 L 307.0,88.5 L 308.0,87.5 L 309.5,87.0 L 311.0,86.5 L 312.5,86.0 L 314.0,85.5 L 316.0,85.5 L 318.0,85.5 L 320.0,85.5 L 321.5,86.0 L 323.0,86.5 L 325.0,86.5 L 326.0,87.5 L 327.0,88.5 L 328.5,89.0 L 329.5,90.0 L 330.5,91.0 L 331.5,92.0 L 332.0,93.5 L 333.0,94.5 L 333.5,96.0 L 334.5,97.0 L 335.0,98.5 L 335.5,100.0 L 335.5,102.0 L 336.0,103.5 L 336.5,105.0 L 336.5,107.0 L 336.5,109.0 L 336.5,111.0 L 336.0,112.5 L 335.5,114.0 L 335.5,116.0 L 335.5,118.0 L 334.5,119.0 L 334.5,121.0 L 333.5,122.0 L 333.0,123.5 L 332.5,125.0 L 331.5,126.0 L 331.0,127.5 L 330.0,128.5 L 329.0,129.5 L 328.0,130.5 L 327.0,131.5 L 326.0,132.5 L 326.0,133.5 L 326.5,135.0 L 325.5,136.0 L 324.5,137.0 L 323.5,138.0 L 323.5,140.0 L 324.0,141.5 L 325.0,142.5 L 326.0,143.5 L 326.0,144.5 L 325.5,146.0 L 326.5,147.0 L 327.5,148.0 L 328.5,149.0 L 327.5,150.0 L 326.5,151.0 L 327.5,152.0 L 327.5,154.0 L 327.5,156.0 L 327.5,158.0 L 328.5,159.0 L 329.5,160.0 L 330.5,161.0 L 329.5,162.0 L 330.0,163.5 L 330.5,165.0 L 329.5,166.0 L 330.5,167.0 L 331.0,168.5 L 332.0,169.5 L 333.0,168.5 L 334.0,169.5 L 335.0,170.5 L 335.0,171.5 L 334.0,172.5 L 333.0,173.5 L 332.5,175.0 L 332.5,177.0 L 331.5,178.0 L 330.5,179.0 L 330.0,180.5 L 329.0,181.5 L 329.0,182.5 L 329.5,184.0 L 328.5,185.0 L 328.5,187.0 L 329.5,188.0 L 330.5,189.0 L 330.5,191.0 L 330.5,193.0 L 330.5,195.0 L 329.5,196.0 L 329.5,198.0 L 329.5,200.0 L 329.0,201.5 L 328.5,203.0 L 328.5,205.0 L 328.0,206.5 L 327.5,208.0 L 327.5,210.0 L 327.0,211.5 L 326.0,212.5 L 325.0,213.5 L 324.5,215.0 L 325.5,216.0 L 326.5,217.0 L 327.5,218.0 L 328.0,219.5 L 329.0,220.5 L 329.5,222.0 L 329.5,224.0 L 329.0,225.5 L 328.5,227.0 L 328.0,228.5 L 327.0,229.5 L 325.0,229.5 L 324.0,230.5 L 322.0,230.5 L 320.0,230.5 L 318.5,231.0 L 317.0,231.5 L 315.0,231.5 L 313.5,232.0 L 312.5,233.0 L 311.5,234.0 L 312.5,235.0 L 314.0,235.5 L 315.0,236.5 L 316.0,237.5 L 317.0,238.5 L 317.0,239.5 L 316.0,240.5 L 316.0,241.5 L 317.0,242.5 L 318.0,243.5 L 319.5,244.0 L 320.5,245.0 L 319.5,246.0 L 318.0,246.5 L 317.0,247.5 L 316.5,249.0 L 315.5,250.0 L 316.5,251.0 L 317.5,252.0 L 317.5,254.0 L 317.0,255.5 L 316.0,256.5 L 315.0,257.5 L 314.5,259.0 L 315.0,260.5 L 316.0,261.5 L 317.0,262.5 L 317.0,263.5 L 316.0,264.5 L 314.5,265.0 L 313.5,266.0 L 313.5,268.0 L 313.5,270.0 L 313.0,271.5 L 312.5,273.0 L 313.5,274.0 L 312.5,275.0 L 311.5,276.0 L 312.5,277.0 L 313.5,278.0 L 314.5,279.0 L 314.0,280.5 L 313.0,281.5 L 312.5,283.0 L 313.5,284.0 L 314.5,285.0 L 316.0,285.5 L 317.0,286.5 L 317.0,287.5 L 316.0,288.5 L 315.0,289.5 L 315.0,290.5 L 315.5,292.0 L 316.5,293.0 L 316.0,294.5 L 316.0,295.5 L 317.0,296.5 L 318.0,297.5 L 318.5,299.0 L 317.5,300.0 L 317.5,302.0 L 317.0,303.5 L 317.0,304.5 L 317.5,306.0 L 317.5,308.0 L 318.5,309.0 L 318.0,310.5 L 317.0,311.5 L 316.5,313.0 L 316.5,315.0 L 315.5,316.0 L 316.5,317.0 L 315.5,318.0 L 314.5,319.0 L 314.5,321.0 L 315.0,322.5 L 315.0,323.5 L 314.5,325.0 L 315.5,326.0 L 316.5,327.0 L 316.0,328.5 L 315.5,330.0 L 314.5,331.0 L 315.0,332.5 L 316.0,333.5 L 316.0,334.5 L 315.5,336.0 L 316.5,337.0 L 316.5,339.0 L 316.5,341.0 L 315.5,342.0 L 314.5,343.0 L 315.0,344.5 L 316.0,345.5 L 317.0,346.5 L 317.0,347.5 L 316.0,348.5 L 315.5,350.0 L 314.5,351.0 L 313.0,351.5 L 312.0,352.5 L 311.0,353.5 L 310.0,354.5 L 309.0,355.5 L 308.0,356.5 L 307.0,357.5 L 305.5,358.0 L 304.5,358.0 L 303.5,357.0 L 302.0,356.5 L 301.0,357.5 L 299.0,357.5 L 297.0,357.5 L 296.0,356.5 L 295.0,355.5 L 294.0,354.5 L 292.5,355.0 L 291.5,356.0 L 290.5,357.0 L 289.5,358.0 L 288.5,359.0 L 287.5,359.0 L 286.0,358.5 L 284.5,359.0 L 283.0,359.5 L 282.0,360.5 L 282.0,361.5 L 283.0,362.5 L 284.5,363.0 L 285.5,364.0 L 286.5,365.0 L 286.5,367.0 L 285.5,368.0 L 284.0,368.5 L 282.0,368.5 L 280.0,368.5 L 278.0,368.5 L 276.0,368.5 L 274.0,368.5 L 272.5,368.0 L 271.5,368.0 L 270.5,369.0 L 269.5,370.0 L 270.0,371.5 L 270.0,372.5 L 269.0,373.5 L 267.0,373.5 L 266.0,372.5 L 264.5,373.0 L 263.5,374.0 L 262.0,374.5 L 261.0,375.5 L 260.0,374.5 L 259.0,373.5 L 258.0,374.5 L 257.0,375.5 L 255.5,375.0 L 254.5,374.0 L 253.5,373.0 L 252.5,372.0 L 251.5,372.0 L 250.5,373.0 L 251.0,374.5 L 251.0,375.5 L 250.0,376.5 L 249.0,375.5 L 248.0,374.5 L 247.0,375.5 L 246.0,376.5 L 245.0,377.5 L 244.0,378.5 L 243.0,379.5 L 242.0,380.5 L 240.5,380.0 L 239.5,379.0 L 239.5,377.0 L 239.0,375.5 L 238.0,374.5 L 236.5,374.0 L 235.5,373.0 L 234.0,372.5 L 233.0,373.5 L 233.0,374.5 L 233.5,376.0 L 232.5,377.0 L 232.0,378.5 L 231.0,379.5 L 230.0,378.5 L 229.0,377.5 L 228.0,376.5 L 227.0,377.5 L 226.0,376.5 L 225.0,375.5 L 224.0,374.5 L 223.0,375.5 L 222.0,376.5 L 221.0,377.5 L 219.5,378.0 L 218.5,379.0 L 219.5,380.0 L 220.5,381.0 L 222.0,381.5 L 223.0,382.5 L 224.0,383.5 L 225.0,384.5 L 226.0,385.5 L 227.0,386.5 L 228.5,387.0 L 229.5,387.0 L 231.0,386.5 L 233.0,386.5 L 235.0,386.5 L 236.0,387.5 L 237.0,388.5 L 239.0,388.5 L 241.0,388.5 L 242.0,387.5 L 244.0,387.5 L 245.5,387.0 L 246.5,387.0 L 247.5,388.0 L 246.5,389.0 L 245.5,390.0 L 244.0,390.5 L 242.5,391.0 L 241.0,391.5 L 239.0,391.5 L 237.5,392.0 L 236.0,392.5 L 235.0,393.5 L 233.0,393.5 L 231.0,393.5 L 230.0,394.5 L 228.0,394.5 L 226.0,394.5 L 224.0,394.5 L 222.5,395.0 L 221.0,395.5 L 219.0,395.5 L 217.5,396.0 L 216.0,396.5 L 214.0,396.5 L 212.0,396.5 L 210.0,396.5 L 208.0,396.5 L 206.0,396.5 L 204.0,396.5 L 202.0,396.5 L 200.0,396.5 L 198.0,396.5 L 196.0,396.5 L 194.0,396.5 L 192.0,396.5 L 190.0,396.5 L 188.0,396.5 L 186.0,396.5 L 184.0,396.5 L 182.0,396.5 L 180.0,396.5 L 178.0,396.5 L 177.0,395.5 L 175.0,395.5 L 173.0,395.5 L 171.0,395.5 L 169.0,395.5 L 167.0,395.5 L 166.0,394.5 L 164.0,394.5 L 162.0,394.5 L 160.5,394.0 L 159.5,393.0 L 159.0,391.5 L 158.5,390.0 L 157.5,389.0 L 157.0,387.5 L 156.0,386.5 L 155.5,385.0 L 155.0,383.5 L 154.5,382.0 L 153.5,381.0 L 153.0,379.5 L 152.5,378.0 L 152.0,376.5 L 151.5,375.0 L 150.5,374.0 L 150.5,372.0 L 150.0,370.5 L 149.5,369.0 L 149.5,367.0 L 148.5,366.0 L 148.5,364.0 L 148.0,362.5 L 147.5,361.0 L 147.5,359.0 L 146.5,358.0 L 145.5,358.0 L 144.5,359.0 L 144.5,361.0 L 145.0,362.5 L 145.0,363.5 L 144.5,365.0 L 145.5,366.0 L 145.5,368.0 L 145.5,370.0 L 146.5,371.0 L 146.0,372.5 L 145.0,373.5 L 144.0,372.5 L 143.0,371.5 L 142.0,372.5 L 141.5,374.0 L 142.0,375.5 L 142.5,377.0 L 142.5,379.0 L 142.5,381.0 L 143.5,382.0 L 143.5,384.0 L 144.0,385.5 L 144.5,387.0 L 145.0,388.5 L 145.5,390.0 L 145.5,392.0 L 144.5,393.0 L 145.5,394.0 L 145.5,396.0 L 146.5,397.0 L 146.5,399.0 L 146.5,401.0 L 147.5,402.0 L 147.5,404.0 L 148.0,405.5 L 148.5,407.0 L 148.5,409.0 L 148.5,411.0 L 148.5,413.0 L 149.0,414.5 L 149.5,416.0 L 149.5,418.0 L 149.5,420.0 L 149.5,422.0 L 150.0,423.5 L 150.5,425.0 L 150.5,427.0 L 151.5,428.0 L 151.5,430.0 L 152.0,431.5 L 152.5,433.0 L 153.0,434.5 L 153.0,435.5 L 153.0,436.5 L 153.5,438.0 L 154.5,439.0 L 154.5,441.0 L 154.5,443.0 L 154.5,445.0 L 154.5,447.0 L 155.5,448.0 L 156.5,449.0 L 155.5,450.0 L 156.5,451.0 L 157.5,452.0 L 157.5,454.0 L 157.5,456.0 L 158.5,457.0 L 158.5,459.0 L 159.5,460.0 L 160.5,461.0 L 161.0,462.5 L 161.5,464.0 L 162.5,465.0 L 162.5,467.0 L 162.5,469.0 L 163.5,470.0 L 163.5,472.0 L 164.5,473.0 L 164.5,475.0 L 165.0,476.5 L 165.5,478.0 L 165.5,480.0 L 166.0,481.5 L 166.5,483.0 L 166.5,485.0 L 167.0,486.5 L 167.5,488.0 L 168.0,489.5 L 168.5,491.0 L 169.5,492.0 L 168.5,493.0 L 168.5,495.0 L 169.5,496.0 L 169.5,498.0 L 170.5,499.0 L 171.5,499.0 L 172.5,498.0 L 173.5,498.0 L 174.5,499.0 L 174.0,500.5 L 173.0,501.5 L 172.0,500.5 L 171.0,501.5 L 170.5,503.0 L 171.5,504.0 L 172.5,504.0 L 173.5,503.0 L 174.5,503.0 L 175.5,504.0 L 176.5,505.0 L 176.0,506.5 L 175.0,507.5 L 174.0,506.5 L 173.0,505.5 L 172.0,506.5 L 172.0,507.5 L 172.5,509.0 Z" />
    <path d="M 288.0,83.5 L 286.0,83.5 L 285.0,82.5 L 283.5,82.0 L 282.5,81.0 L 281.5,80.0 L 281.5,78.0 L 281.5,76.0 L 281.5,74.0 L 282.0,72.5 L 283.0,71.5 L 284.0,70.5 L 285.0,69.5 L 287.0,69.5 L 289.0,69.5 L 290.0,70.5 L 291.0,71.5 L 292.0,72.5 L 292.5,74.0 L 292.5,76.0 L 292.5,78.0 L 292.0,79.5 L 291.0,80.5 L 290.0,81.5 L 289.0,82.5 L 288.0,83.5 Z" />
    <path d="M 432.0,131.5 L 430.0,131.5 L 429.0,130.5 L 427.0,130.5 L 425.0,130.5 L 423.0,130.5 L 421.5,130.0 L 420.5,129.0 L 419.0,128.5 L 418.0,127.5 L 417.0,126.5 L 416.0,125.5 L 415.0,124.5 L 414.0,123.5 L 413.5,122.0 L 412.5,121.0 L 412.0,119.5 L 411.5,118.0 L 411.0,116.5 L 410.5,115.0 L 410.5,113.0 L 410.0,111.5 L 409.5,110.0 L 409.5,108.0 L 409.5,106.0 L 409.5,104.0 L 410.0,102.5 L 410.5,101.0 L 410.5,99.0 L 411.0,97.5 L 411.5,96.0 L 412.0,94.5 L 412.5,93.0 L 413.5,92.0 L 414.0,90.5 L 414.5,89.0 L 415.5,88.0 L 416.5,87.0 L 417.5,86.0 L 418.5,85.0 L 419.5,84.0 L 421.0,83.5 L 422.0,82.5 L 423.0,81.5 L 425.0,81.5 L 426.0,80.5 L 428.0,80.5 L 430.0,80.5 L 431.5,80.0 L 433.0,79.5 L 434.5,80.0 L 436.0,80.5 L 438.0,80.5 L 439.0,81.5 L 440.5,82.0 L 442.0,82.5 L 443.0,83.5 L 444.0,84.5 L 445.0,85.5 L 446.0,86.5 L 446.5,88.0 L 447.5,89.0 L 448.5,90.0 L 449.0,91.5 L 449.5,93.0 L 450.0,94.5 L 450.5,96.0 L 450.5,98.0 L 450.5,100.0 L 451.5,101.0 L 451.5,103.0 L 451.5,105.0 L 451.0,106.5 L 450.0,107.5 L 449.0,108.5 L 448.0,109.5 L 446.0,109.5 L 444.5,110.0 L 443.5,111.0 L 444.5,112.0 L 446.0,112.5 L 447.0,113.5 L 448.0,114.5 L 449.0,115.5 L 449.5,117.0 L 448.5,118.0 L 448.5,120.0 L 447.5,121.0 L 446.5,122.0 L 445.5,123.0 L 444.5,124.0 L 443.5,125.0 L 442.5,126.0 L 441.5,127.0 L 440.5,128.0 L 439.0,128.5 L 438.0,129.5 L 436.5,130.0 L 435.0,130.5 L 433.0,130.5 L 432.0,131.5 Z" />
    <path d="M 480.0,110.5 L 479.0,111.5 L 478.0,112.5 L 477.5,114.0 L 477.5,116.0 L 476.5,117.0 L 476.5,119.0 L 475.5,120.0 L 475.5,122.0 L 474.5,123.0 L 474.5,125.0 L 473.5,126.0 L 473.0,127.5 L 472.0,128.5 L 470.0,128.5 L 469.0,129.5 L 467.0,129.5 L 465.0,129.5 L 464.0,128.5 L 463.0,127.5 L 462.0,126.5 L 461.5,125.0 L 461.5,123.0 L 460.5,122.0 L 460.5,120.0 L 459.5,119.0 L 459.5,117.0 L 459.5,115.0 L 458.5,114.0 L 458.5,112.0 L 458.0,110.5 L 457.5,109.0 L 457.5,107.0 L 457.0,105.5 L 456.5,104.0 L 456.5,102.0 L 455.5,101.0 L 455.5,99.0 L 455.0,97.5 L 454.5,96.0 L 454.5,94.0 L 453.5,93.0 L 453.5,91.0 L 453.0,89.5 L 452.5,88.0 L 452.5,86.0 L 452.0,84.5 L 451.5,83.0 L 452.5,82.0 L 453.5,81.0 L 454.5,80.0 L 456.0,79.5 L 458.0,79.5 L 460.0,79.5 L 461.0,80.5 L 462.0,81.5 L 462.5,83.0 L 463.5,84.0 L 463.5,86.0 L 464.0,87.5 L 464.5,89.0 L 465.0,90.5 L 465.5,92.0 L 465.5,94.0 L 465.5,96.0 L 466.5,97.0 L 466.5,99.0 L 466.5,101.0 L 467.5,102.0 L 468.0,103.5 L 469.0,104.5 L 470.0,103.5 L 470.5,102.0 L 471.0,100.5 L 471.5,99.0 L 471.5,97.0 L 472.5,96.0 L 472.5,94.0 L 473.5,93.0 L 473.5,91.0 L 474.5,90.0 L 474.5,88.0 L 475.5,87.0 L 475.5,85.0 L 476.5,84.0 L 476.5,82.0 L 477.5,81.0 L 478.5,80.0 L 480.0,79.5 Z" />
    <path d="M 0.0,100.5 L 2.0,100.5 L 3.5,100.0 L 4.5,99.0 L 4.5,97.0 L 4.5,95.0 L 4.5,93.0 L 5.0,91.5 L 6.0,90.5 L 7.0,89.5 L 9.0,89.5 L 11.0,89.5 L 12.0,90.5 L 13.0,91.5 L 13.5,93.0 L 13.5,95.0 L 13.5,97.0 L 14.5,98.0 L 15.5,99.0 L 17.0,99.5 L 18.5,100.0 L 20.0,100.5 L 21.0,101.5 L 21.5,103.0 L 21.5,105.0 L 21.5,107.0 L 21.5,109.0 L 20.5,110.0 L 19.0,110.5 L 18.0,111.5 L 17.0,110.5 L 16.0,111.5 L 15.0,112.5 L 14.0,113.5 L 13.5,115.0 L 14.5,116.0 L 14.5,118.0 L 14.5,120.0 L 14.5,122.0 L 14.5,124.0 L 14.5,126.0 L 14.5,128.0 L 14.5,130.0 L 14.5,132.0 L 14.5,134.0 L 15.5,135.0 L 16.5,135.0 L 17.5,135.0 L 19.0,135.5 L 20.0,136.5 L 20.5,138.0 L 20.5,140.0 L 21.5,141.0 L 20.5,142.0 L 20.5,144.0 L 19.5,145.0 L 18.5,146.0 L 17.0,146.5 L 15.0,146.5 L 13.0,146.5 L 11.0,146.5 L 9.0,146.5 L 8.0,145.5 L 7.0,144.5 L 6.0,143.5 L 5.0,142.5 L 4.5,141.0 L 4.0,139.5 L 3.5,138.0 L 3.5,136.0 L 3.5,134.0 L 3.5,132.0 L 3.5,130.0 L 3.5,128.0 L 3.5,126.0 L 3.5,124.0 L 3.5,122.0 L 3.5,120.0 L 3.5,118.0 L 3.5,116.0 L 3.5,114.0 L 3.0,112.5 L 2.0,111.5 L 0.0,111.5 Z" />
    <path d="M 436.5,99.0 L 437.5,98.0 L 438.5,97.0 L 438.5,95.0 L 437.5,94.0 L 436.5,93.0 L 435.5,92.0 L 434.0,91.5 L 432.5,91.0 L 431.0,90.5 L 429.5,91.0 L 428.0,91.5 L 426.5,92.0 L 425.5,93.0 L 424.5,94.0 L 423.5,95.0 L 422.5,96.0 L 422.0,97.5 L 422.0,98.5 L 423.0,99.5 L 425.0,99.5 L 427.0,99.5 L 429.0,99.5 L 431.0,99.5 L 433.0,99.5 L 435.0,99.5 L 436.5,99.0 Z" />
    <path d="M 81.0,143.5 L 80.0,142.5 L 79.0,141.5 L 78.5,140.0 L 78.5,138.0 L 78.5,136.0 L 78.5,134.0 L 78.5,132.0 L 78.5,130.0 L 78.5,128.0 L 78.5,126.0 L 78.5,124.0 L 78.5,122.0 L 78.5,120.0 L 78.5,118.0 L 78.5,116.0 L 78.5,114.0 L 78.5,112.0 L 78.5,110.0 L 78.5,108.0 L 78.5,106.0 L 78.5,104.0 L 78.5,102.0 L 78.5,100.0 L 79.5,99.0 L 80.0,97.5 L 81.0,96.5 L 83.0,96.5 L 85.0,96.5 L 86.5,97.0 L 88.0,97.5 L 89.5,97.0 L 91.0,96.5 L 92.0,95.5 L 94.0,95.5 L 96.0,95.5 L 98.0,95.5 L 100.0,95.5 L 102.0,95.5 L 103.0,96.5 L 104.5,97.0 L 105.5,98.0 L 106.5,99.0 L 107.5,100.0 L 108.5,101.0 L 109.0,102.5 L 109.5,104.0 L 110.0,105.5 L 110.5,107.0 L 110.5,109.0 L 110.5,111.0 L 111.0,112.5 L 111.5,114.0 L 111.5,116.0 L 111.5,118.0 L 111.5,120.0 L 111.5,122.0 L 111.5,124.0 L 111.5,126.0 L 111.5,128.0 L 110.5,129.0 L 111.0,130.5 L 111.5,132.0 L 110.5,133.0 L 110.5,135.0 L 110.5,137.0 L 110.5,139.0 L 110.0,140.5 L 109.0,141.5 L 108.0,142.5 L 106.0,142.5 L 104.0,142.5 L 102.5,142.0 L 101.5,141.0 L 101.0,139.5 L 100.5,138.0 L 100.5,136.0 L 100.5,134.0 L 100.5,132.0 L 100.5,130.0 L 100.5,128.0 L 100.5,126.0 L 100.5,124.0 L 100.5,122.0 L 100.5,120.0 L 100.5,118.0 L 100.5,116.0 L 100.5,114.0 L 100.5,112.0 L 100.5,110.0 L 100.0,108.5 L 99.0,107.5 L 98.0,106.5 L 97.0,105.5 L 95.0,105.5 L 93.0,105.5 L 92.0,106.5 L 91.0,107.5 L 90.0,108.5 L 89.0,109.5 L 88.5,111.0 L 88.5,113.0 L 88.5,115.0 L 88.5,117.0 L 88.5,119.0 L 88.5,121.0 L 88.5,123.0 L 88.5,125.0 L 88.5,127.0 L 88.5,129.0 L 88.5,131.0 L 88.5,133.0 L 88.5,135.0 L 88.5,137.0 L 88.5,139.0 L 88.5,141.0 L 87.5,142.0 L 86.0,142.5 L 84.0,142.5 L 82.0,142.5 L 81.0,143.5 Z" />
    <path d="M 62.0,144.5 L 60.0,144.5 L 58.0,144.5 L 56.0,144.5 L 54.0,144.5 L 52.0,144.5 L 50.5,144.0 L 49.0,143.5 L 47.5,143.0 L 46.5,142.0 L 45.5,141.0 L 44.5,140.0 L 43.5,139.0 L 42.5,138.0 L 41.5,137.0 L 41.0,135.5 L 40.5,134.0 L 39.5,133.0 L 39.5,131.0 L 39.0,129.5 L 38.5,128.0 L 38.5,126.0 L 38.5,124.0 L 38.5,122.0 L 38.5,120.0 L 38.5,118.0 L 38.5,116.0 L 39.0,114.5 L 39.5,113.0 L 39.5,111.0 L 40.5,110.0 L 41.0,108.5 L 41.5,107.0 L 42.0,105.5 L 43.0,104.5 L 44.0,103.5 L 45.0,102.5 L 46.0,101.5 L 47.0,100.5 L 48.0,99.5 L 49.0,98.5 L 51.0,98.5 L 52.0,97.5 L 53.5,97.0 L 55.0,96.5 L 57.0,96.5 L 59.0,96.5 L 60.5,97.0 L 62.0,97.5 L 63.5,98.0 L 65.0,98.5 L 66.0,99.5 L 67.5,100.0 L 68.5,101.0 L 69.0,102.5 L 70.0,103.5 L 70.5,105.0 L 71.5,106.0 L 72.5,107.0 L 73.0,108.5 L 73.5,110.0 L 73.5,112.0 L 74.5,113.0 L 74.5,115.0 L 74.5,117.0 L 74.5,119.0 L 74.5,121.0 L 74.5,123.0 L 74.5,125.0 L 74.5,127.0 L 73.5,128.0 L 73.5,130.0 L 73.0,131.5 L 72.5,133.0 L 71.5,134.0 L 71.0,135.5 L 70.5,137.0 L 69.5,138.0 L 68.5,139.0 L 67.5,140.0 L 66.5,141.0 L 65.5,142.0 L 64.0,142.5 L 63.0,143.5 L 62.0,144.5 Z" />
    <path d="M 321.5,123.0 L 322.5,122.0 L 323.5,121.0 L 324.0,119.5 L 324.5,118.0 L 324.5,116.0 L 324.5,114.0 L 325.5,113.0 L 325.5,111.0 L 325.5,109.0 L 325.5,107.0 L 325.5,105.0 L 324.5,104.0 L 324.5,102.0 L 324.0,100.5 L 323.5,99.0 L 322.5,98.0 L 321.0,97.5 L 320.0,96.5 L 318.0,96.5 L 316.0,96.5 L 314.0,96.5 L 313.0,97.5 L 311.5,98.0 L 310.5,99.0 L 309.5,100.0 L 310.5,101.0 L 311.5,102.0 L 312.0,103.5 L 312.5,105.0 L 313.5,106.0 L 314.5,107.0 L 315.0,108.5 L 315.5,110.0 L 315.5,112.0 L 315.5,114.0 L 316.0,115.5 L 316.5,117.0 L 317.5,118.0 L 318.5,119.0 L 319.5,120.0 L 319.0,121.5 L 319.0,122.5 L 320.0,123.5 L 321.5,123.0 Z" />
    <path d="M 32.0,145.5 L 30.0,145.5 L 28.0,145.5 L 26.5,145.0 L 25.5,144.0 L 24.5,143.0 L 24.5,141.0 L 24.5,139.0 L 24.5,137.0 L 24.5,135.0 L 24.5,133.0 L 24.5,131.0 L 24.5,129.0 L 24.5,127.0 L 24.5,125.0 L 24.5,123.0 L 24.5,121.0 L 24.5,119.0 L 24.5,117.0 L 24.5,115.0 L 24.5,113.0 L 24.5,111.0 L 24.5,109.0 L 24.5,107.0 L 24.5,105.0 L 24.5,103.0 L 25.5,102.0 L 26.0,100.5 L 27.0,99.5 L 29.0,99.5 L 31.0,99.5 L 32.5,100.0 L 33.5,101.0 L 34.5,102.0 L 34.5,104.0 L 34.5,106.0 L 34.5,108.0 L 34.5,110.0 L 34.5,112.0 L 34.5,114.0 L 34.5,116.0 L 34.5,118.0 L 34.5,120.0 L 34.5,122.0 L 34.5,124.0 L 34.5,126.0 L 34.5,128.0 L 34.5,130.0 L 34.5,132.0 L 34.5,134.0 L 34.5,136.0 L 34.5,138.0 L 34.5,140.0 L 34.5,142.0 L 34.0,143.5 L 33.0,144.5 L 32.0,145.5 Z" />
    <path d="M 58.5,134.0 L 60.0,133.5 L 61.0,132.5 L 62.0,131.5 L 62.5,130.0 L 63.5,129.0 L 63.5,127.0 L 64.0,125.5 L 64.5,124.0 L 64.5,122.0 L 64.5,120.0 L 64.5,118.0 L 64.5,116.0 L 64.0,114.5 L 63.5,113.0 L 63.5,111.0 L 62.5,110.0 L 61.5,109.0 L 60.5,108.0 L 59.0,107.5 L 57.0,107.5 L 55.0,107.5 L 53.5,108.0 L 52.0,108.5 L 51.0,109.5 L 50.5,111.0 L 49.5,112.0 L 49.5,114.0 L 48.5,115.0 L 48.5,117.0 L 48.5,119.0 L 48.5,121.0 L 48.5,123.0 L 48.5,125.0 L 48.5,127.0 L 49.5,128.0 L 49.5,130.0 L 50.0,131.5 L 51.0,132.5 L 52.5,133.0 L 53.5,134.0 L 55.0,134.5 L 57.0,134.5 L 58.5,134.0 Z" />
    <path d="M 432.5,120.0 L 434.0,119.5 L 435.5,119.0 L 436.5,118.0 L 437.5,117.0 L 438.5,116.0 L 439.5,115.0 L 440.0,113.5 L 441.0,112.5 L 442.0,111.5 L 442.0,110.5 L 441.0,109.5 L 439.0,109.5 L 437.0,109.5 L 435.0,109.5 L 434.0,110.5 L 432.0,110.5 L 430.0,110.5 L 428.0,110.5 L 426.0,110.5 L 424.0,110.5 L 422.5,111.0 L 421.5,112.0 L 421.5,114.0 L 422.5,115.0 L 423.0,116.5 L 423.5,118.0 L 424.5,119.0 L 426.0,119.5 L 427.5,120.0 L 429.0,120.5 L 431.0,120.5 L 432.5,120.0 Z" />
    <path d="M 299.5,144.0 L 300.5,143.0 L 299.5,142.0 L 298.5,141.0 L 299.5,140.0 L 300.5,139.0 L 301.5,138.0 L 302.0,136.5 L 302.5,135.0 L 301.5,134.0 L 300.5,133.0 L 299.5,132.0 L 298.0,131.5 L 297.0,132.5 L 296.0,133.5 L 295.5,135.0 L 294.5,136.0 L 293.0,136.5 L 291.5,136.0 L 290.5,135.0 L 291.5,134.0 L 292.5,133.0 L 293.5,132.0 L 294.5,131.0 L 293.5,130.0 L 294.0,128.5 L 295.0,127.5 L 295.0,126.5 L 294.0,125.5 L 292.5,126.0 L 291.5,127.0 L 290.5,128.0 L 289.0,128.5 L 288.0,127.5 L 288.0,126.5 L 289.0,125.5 L 290.5,125.0 L 291.5,124.0 L 290.5,123.0 L 289.0,122.5 L 287.0,122.5 L 286.0,121.5 L 285.5,120.0 L 285.0,118.5 L 284.0,117.5 L 283.0,116.5 L 282.0,115.5 L 281.0,114.5 L 279.5,114.0 L 278.0,113.5 L 277.0,114.5 L 276.0,113.5 L 275.0,112.5 L 274.0,111.5 L 273.0,112.5 L 272.5,114.0 L 272.0,115.5 L 271.5,117.0 L 271.0,118.5 L 270.0,119.5 L 269.0,118.5 L 268.5,117.0 L 267.5,116.0 L 266.5,116.0 L 265.5,116.0 L 264.0,115.5 L 263.0,114.5 L 262.0,113.5 L 260.0,113.5 L 258.5,114.0 L 257.5,115.0 L 256.5,115.0 L 255.5,114.0 L 254.5,114.0 L 253.5,115.0 L 252.5,116.0 L 253.5,117.0 L 254.5,118.0 L 255.5,119.0 L 254.5,120.0 L 253.0,120.5 L 251.5,120.0 L 250.5,119.0 L 249.5,118.0 L 248.5,117.0 L 247.5,117.0 L 246.5,118.0 L 245.5,118.0 L 244.0,117.5 L 242.0,117.5 L 240.0,117.5 L 238.5,117.0 L 237.0,116.5 L 236.0,117.5 L 234.0,117.5 L 233.0,118.5 L 233.0,119.5 L 233.5,121.0 L 232.5,122.0 L 231.5,123.0 L 230.5,123.0 L 229.5,123.0 L 228.5,124.0 L 229.5,125.0 L 230.5,125.0 L 231.5,124.0 L 233.0,123.5 L 234.0,124.5 L 236.0,124.5 L 237.0,125.5 L 239.0,125.5 L 241.0,125.5 L 243.0,125.5 L 245.0,125.5 L 246.5,126.0 L 248.0,126.5 L 250.0,126.5 L 252.0,126.5 L 253.0,127.5 L 255.0,127.5 L 256.5,127.0 L 258.0,126.5 L 259.0,127.5 L 260.5,127.0 L 262.0,126.5 L 263.5,126.0 L 264.5,126.0 L 265.5,127.0 L 266.5,127.0 L 267.5,126.0 L 268.5,126.0 L 269.5,127.0 L 271.0,127.5 L 272.0,126.5 L 273.0,127.5 L 275.0,127.5 L 276.0,128.5 L 277.5,129.0 L 278.5,130.0 L 279.5,131.0 L 281.0,131.5 L 282.5,132.0 L 283.5,133.0 L 284.5,134.0 L 286.0,134.5 L 287.0,135.5 L 288.5,136.0 L 289.5,137.0 L 290.5,138.0 L 291.5,139.0 L 292.5,140.0 L 293.5,141.0 L 294.5,142.0 L 296.0,142.5 L 297.0,143.5 L 298.5,144.0 L 299.5,144.0 Z" />
    <path d="M 160.5,198.0 L 162.0,197.5 L 164.0,197.5 L 166.0,197.5 L 167.5,197.0 L 168.5,196.0 L 170.0,195.5 L 172.0,195.5 L 173.0,194.5 L 174.5,195.0 L 176.0,195.5 L 178.0,195.5 L 180.0,195.5 L 182.0,195.5 L 184.0,195.5 L 185.0,194.5 L 187.0,194.5 L 189.0,194.5 L 190.0,193.5 L 192.0,193.5 L 193.5,193.0 L 195.0,192.5 L 197.0,192.5 L 199.0,192.5 L 200.5,192.0 L 202.0,191.5 L 204.0,191.5 L 206.0,191.5 L 208.0,191.5 L 210.0,191.5 L 212.0,191.5 L 213.0,190.5 L 215.0,190.5 L 217.0,190.5 L 218.0,191.5 L 219.0,192.5 L 220.0,193.5 L 221.0,192.5 L 222.0,191.5 L 223.0,190.5 L 224.0,189.5 L 224.0,188.5 L 223.0,187.5 L 221.5,187.0 L 220.0,186.5 L 218.0,186.5 L 216.0,186.5 L 215.0,187.5 L 213.0,187.5 L 211.0,187.5 L 209.0,187.5 L 207.0,187.5 L 205.5,188.0 L 204.0,188.5 L 203.0,187.5 L 202.0,188.5 L 200.0,188.5 L 198.0,188.5 L 196.0,188.5 L 194.0,188.5 L 193.0,189.5 L 191.5,190.0 L 190.0,190.5 L 188.0,190.5 L 186.0,190.5 L 184.0,190.5 L 183.0,191.5 L 181.0,191.5 L 180.0,192.5 L 178.0,192.5 L 176.0,192.5 L 174.5,193.0 L 173.0,193.5 L 172.0,192.5 L 171.5,191.0 L 172.5,190.0 L 173.5,189.0 L 174.5,188.0 L 173.5,187.0 L 173.0,185.5 L 172.0,184.5 L 171.0,183.5 L 170.0,182.5 L 169.0,183.5 L 168.0,184.5 L 166.5,185.0 L 165.0,185.5 L 163.5,185.0 L 162.0,184.5 L 161.0,185.5 L 159.5,185.0 L 158.5,184.0 L 159.5,183.0 L 161.0,182.5 L 162.0,183.5 L 163.5,183.0 L 164.5,182.0 L 165.5,181.0 L 166.5,180.0 L 167.5,179.0 L 168.5,178.0 L 168.0,176.5 L 167.0,175.5 L 165.5,176.0 L 164.5,177.0 L 163.0,177.5 L 161.0,177.5 L 160.0,176.5 L 158.0,176.5 L 156.5,176.0 L 155.0,175.5 L 154.0,174.5 L 153.5,173.0 L 154.5,172.0 L 156.0,171.5 L 157.5,172.0 L 158.5,173.0 L 159.5,173.0 L 160.5,172.0 L 161.5,171.0 L 162.0,169.5 L 163.0,168.5 L 164.0,167.5 L 164.5,166.0 L 163.5,165.0 L 162.5,164.0 L 163.5,163.0 L 163.5,161.0 L 164.5,160.0 L 165.5,159.0 L 166.5,158.0 L 167.5,157.0 L 168.5,156.0 L 169.5,155.0 L 170.5,154.0 L 169.5,153.0 L 168.0,152.5 L 167.0,153.5 L 165.0,153.5 L 163.5,154.0 L 162.5,155.0 L 161.0,155.5 L 160.0,156.5 L 158.0,156.5 L 157.0,157.5 L 155.5,158.0 L 154.0,158.5 L 152.0,158.5 L 151.0,157.5 L 150.0,156.5 L 148.5,157.0 L 147.5,158.0 L 147.5,160.0 L 148.5,161.0 L 149.5,161.0 L 150.5,161.0 L 151.5,162.0 L 150.5,163.0 L 150.0,164.5 L 149.0,165.5 L 148.0,164.5 L 147.0,165.5 L 146.5,167.0 L 146.0,168.5 L 145.5,170.0 L 144.5,171.0 L 143.0,171.5 L 142.0,172.5 L 141.5,174.0 L 140.5,175.0 L 139.5,176.0 L 140.5,177.0 L 142.0,177.5 L 143.5,178.0 L 144.5,179.0 L 143.5,180.0 L 144.5,181.0 L 144.5,183.0 L 144.5,185.0 L 144.5,187.0 L 143.5,188.0 L 142.0,188.5 L 140.0,188.5 L 139.0,189.5 L 138.5,191.0 L 138.0,192.5 L 138.0,193.5 L 139.0,194.5 L 140.0,193.5 L 141.0,192.5 L 142.5,192.0 L 143.5,191.0 L 145.0,190.5 L 146.5,190.0 L 147.5,190.0 L 149.0,190.5 L 151.0,190.5 L 152.0,189.5 L 153.0,188.5 L 153.0,187.5 L 152.5,186.0 L 153.0,184.5 L 154.0,183.5 L 155.5,184.0 L 156.5,185.0 L 157.0,186.5 L 158.0,187.5 L 159.0,186.5 L 160.5,187.0 L 161.5,188.0 L 160.5,189.0 L 159.5,190.0 L 158.0,190.5 L 157.0,191.5 L 157.0,192.5 L 158.0,193.5 L 159.0,194.5 L 159.0,195.5 L 158.0,196.5 L 158.0,197.5 L 159.0,198.5 L 160.5,198.0 Z" />
    <path d="M 355.0,231.5 L 353.0,231.5 L 351.0,231.5 L 349.0,231.5 L 348.0,230.5 L 347.5,229.0 L 347.5,227.0 L 348.0,225.5 L 348.5,224.0 L 348.5,222.0 L 349.5,221.0 L 350.0,219.5 L 350.5,218.0 L 351.0,216.5 L 351.5,215.0 L 352.0,213.5 L 352.5,212.0 L 353.0,210.5 L 353.5,209.0 L 354.0,207.5 L 354.5,206.0 L 355.0,204.5 L 355.5,203.0 L 356.0,201.5 L 356.5,200.0 L 357.5,199.0 L 357.5,197.0 L 358.0,195.5 L 358.5,194.0 L 359.5,193.0 L 359.5,191.0 L 360.0,189.5 L 360.5,188.0 L 361.0,186.5 L 361.5,185.0 L 362.5,184.0 L 362.5,182.0 L 363.5,181.0 L 363.5,179.0 L 364.5,178.0 L 364.5,176.0 L 365.5,175.0 L 365.5,173.0 L 366.5,172.0 L 366.5,170.0 L 367.5,169.0 L 368.5,168.0 L 370.0,167.5 L 372.0,167.5 L 373.5,167.0 L 375.0,166.5 L 376.5,167.0 L 378.0,167.5 L 379.0,168.5 L 379.5,170.0 L 380.0,171.5 L 380.5,173.0 L 380.5,175.0 L 381.5,176.0 L 382.0,177.5 L 382.5,179.0 L 382.5,181.0 L 383.5,182.0 L 383.5,184.0 L 384.0,185.5 L 384.5,187.0 L 385.0,188.5 L 385.5,190.0 L 386.0,191.5 L 386.5,193.0 L 387.0,194.5 L 387.5,196.0 L 388.0,197.5 L 388.5,199.0 L 389.0,200.5 L 389.5,202.0 L 390.0,203.5 L 390.5,205.0 L 390.5,207.0 L 391.5,208.0 L 391.5,210.0 L 392.5,211.0 L 392.5,213.0 L 393.5,214.0 L 393.5,216.0 L 394.5,217.0 L 394.5,219.0 L 395.5,220.0 L 395.5,222.0 L 396.5,223.0 L 396.5,225.0 L 396.5,227.0 L 396.5,229.0 L 395.5,230.0 L 394.0,230.5 L 392.0,230.5 L 390.0,230.5 L 388.0,230.5 L 386.5,230.0 L 385.5,229.0 L 385.5,227.0 L 384.5,226.0 L 384.5,224.0 L 383.5,223.0 L 383.5,221.0 L 383.0,219.5 L 382.5,218.0 L 382.0,216.5 L 381.5,215.0 L 380.5,214.0 L 379.0,213.5 L 377.0,213.5 L 375.0,213.5 L 373.0,213.5 L 371.0,213.5 L 369.0,213.5 L 367.0,213.5 L 365.0,213.5 L 363.5,214.0 L 362.5,215.0 L 362.5,217.0 L 361.5,218.0 L 361.0,219.5 L 360.5,221.0 L 360.0,222.5 L 359.5,224.0 L 359.0,225.5 L 358.5,227.0 L 357.5,228.0 L 357.0,229.5 L 356.0,230.5 L 355.0,231.5 Z" />
    <path d="M 461.0,229.5 L 459.0,229.5 L 457.0,229.5 L 455.0,229.5 L 453.0,229.5 L 451.5,229.0 L 450.0,228.5 L 448.5,228.0 L 447.5,227.0 L 446.5,226.0 L 446.5,224.0 L 445.5,223.0 L 445.5,221.0 L 445.5,219.0 L 445.5,217.0 L 445.5,215.0 L 445.5,213.0 L 445.5,211.0 L 445.5,209.0 L 445.5,207.0 L 445.5,205.0 L 445.5,203.0 L 445.5,201.0 L 445.5,199.0 L 445.5,197.0 L 445.5,195.0 L 445.5,193.0 L 444.5,192.0 L 443.0,191.5 L 441.0,191.5 L 440.0,190.5 L 439.5,189.0 L 439.5,187.0 L 439.5,185.0 L 439.5,183.0 L 440.5,182.0 L 441.5,181.0 L 443.0,180.5 L 445.0,180.5 L 446.5,180.0 L 447.5,179.0 L 447.5,177.0 L 447.5,175.0 L 447.5,173.0 L 447.5,171.0 L 448.5,170.0 L 449.5,169.0 L 451.0,168.5 L 453.0,168.5 L 455.0,168.5 L 456.5,169.0 L 457.5,170.0 L 458.5,171.0 L 458.5,173.0 L 458.5,175.0 L 458.5,177.0 L 459.0,178.5 L 460.0,179.5 L 462.0,179.5 L 463.5,180.0 L 465.0,180.5 L 466.0,181.5 L 466.5,183.0 L 467.0,184.5 L 467.5,186.0 L 466.5,187.0 L 466.0,188.5 L 465.0,189.5 L 464.0,190.5 L 462.0,190.5 L 460.0,190.5 L 458.5,191.0 L 457.5,192.0 L 457.5,194.0 L 457.5,196.0 L 457.5,198.0 L 457.5,200.0 L 457.5,202.0 L 457.5,204.0 L 457.5,206.0 L 457.5,208.0 L 457.5,210.0 L 457.5,212.0 L 457.5,214.0 L 457.5,216.0 L 458.0,217.5 L 459.0,218.5 L 461.0,218.5 L 463.0,218.5 L 464.5,219.0 L 465.5,220.0 L 465.5,222.0 L 465.5,224.0 L 465.5,226.0 L 465.0,227.5 L 464.0,228.5 L 462.0,228.5 L 461.0,229.5 Z" />
    <path d="M 57.0,237.5 L 55.0,237.5 L 53.0,237.5 L 51.0,237.5 L 49.0,237.5 L 47.0,237.5 L 45.0,237.5 L 43.5,237.0 L 42.0,236.5 L 41.0,235.5 L 39.5,235.0 L 38.5,234.0 L 37.5,233.0 L 36.5,232.0 L 35.5,231.0 L 35.0,229.5 L 34.5,228.0 L 33.5,227.0 L 33.5,225.0 L 32.5,224.0 L 32.5,222.0 L 32.5,220.0 L 32.0,218.5 L 31.5,217.0 L 31.5,215.0 L 31.5,213.0 L 31.5,211.0 L 31.5,209.0 L 31.5,207.0 L 31.5,205.0 L 31.5,203.0 L 31.5,201.0 L 31.5,199.0 L 31.5,197.0 L 31.5,195.0 L 31.5,193.0 L 31.5,191.0 L 31.5,189.0 L 31.5,187.0 L 31.5,185.0 L 32.0,183.5 L 32.5,182.0 L 32.5,180.0 L 33.0,178.5 L 34.0,177.5 L 36.0,177.5 L 37.5,177.0 L 39.0,176.5 L 40.0,177.5 L 41.0,178.5 L 42.0,179.5 L 42.5,181.0 L 42.5,183.0 L 42.5,185.0 L 42.5,187.0 L 42.5,189.0 L 42.5,191.0 L 42.5,193.0 L 42.5,195.0 L 42.5,197.0 L 42.5,199.0 L 42.5,201.0 L 42.5,203.0 L 42.5,205.0 L 42.5,207.0 L 42.5,209.0 L 42.5,211.0 L 42.5,213.0 L 42.5,215.0 L 42.5,217.0 L 42.5,219.0 L 42.5,221.0 L 43.5,222.0 L 44.0,223.5 L 45.0,224.5 L 46.0,225.5 L 47.0,226.5 L 49.0,226.5 L 51.0,226.5 L 53.0,226.5 L 55.0,226.5 L 56.0,225.5 L 57.0,224.5 L 58.0,223.5 L 58.5,222.0 L 59.5,221.0 L 59.5,219.0 L 60.0,217.5 L 60.5,216.0 L 60.5,214.0 L 60.5,212.0 L 60.5,210.0 L 60.5,208.0 L 60.5,206.0 L 60.5,204.0 L 60.5,202.0 L 60.5,200.0 L 60.5,198.0 L 60.5,196.0 L 60.5,194.0 L 60.5,192.0 L 60.5,190.0 L 60.5,188.0 L 60.5,186.0 L 60.5,184.0 L 60.5,182.0 L 60.5,180.0 L 60.5,178.0 L 61.5,177.0 L 63.0,176.5 L 64.0,175.5 L 66.0,175.5 L 67.5,176.0 L 69.0,176.5 L 70.0,177.5 L 70.5,179.0 L 71.0,180.5 L 71.0,181.5 L 70.5,183.0 L 70.5,185.0 L 70.5,187.0 L 70.5,189.0 L 70.5,191.0 L 70.5,193.0 L 71.5,194.0 L 70.5,195.0 L 70.5,197.0 L 70.5,199.0 L 70.5,201.0 L 70.5,203.0 L 70.5,205.0 L 70.5,207.0 L 70.5,209.0 L 70.5,211.0 L 70.5,213.0 L 70.5,215.0 L 70.5,217.0 L 70.0,218.5 L 69.5,220.0 L 69.5,222.0 L 69.5,224.0 L 68.5,225.0 L 68.5,227.0 L 67.5,228.0 L 67.0,229.5 L 66.0,230.5 L 65.0,231.5 L 64.0,232.5 L 63.0,233.5 L 62.0,234.5 L 61.0,235.5 L 59.5,236.0 L 58.0,236.5 L 57.0,237.5 Z" />
    <path d="M 421.0,230.5 L 419.0,230.5 L 417.0,230.5 L 415.0,230.5 L 413.0,230.5 L 411.0,230.5 L 409.5,230.0 L 408.0,229.5 L 407.0,228.5 L 405.5,228.0 L 404.5,227.0 L 403.5,226.0 L 402.5,225.0 L 402.0,223.5 L 401.5,222.0 L 400.5,221.0 L 400.5,219.0 L 399.5,218.0 L 399.5,216.0 L 399.5,214.0 L 399.5,212.0 L 399.5,210.0 L 399.5,208.0 L 399.5,206.0 L 399.5,204.0 L 399.5,202.0 L 399.5,200.0 L 399.5,198.0 L 399.5,196.0 L 399.5,194.0 L 399.5,192.0 L 399.5,190.0 L 399.5,188.0 L 399.5,186.0 L 400.0,184.5 L 401.0,183.5 L 402.0,182.5 L 403.0,181.5 L 405.0,181.5 L 407.0,181.5 L 409.0,181.5 L 410.0,182.5 L 411.0,183.5 L 411.5,185.0 L 411.5,187.0 L 411.0,188.5 L 410.5,190.0 L 410.5,192.0 L 410.5,194.0 L 410.5,196.0 L 410.5,198.0 L 410.5,200.0 L 410.5,202.0 L 410.5,204.0 L 410.5,206.0 L 410.5,208.0 L 410.5,210.0 L 410.5,212.0 L 410.5,214.0 L 411.0,215.5 L 411.5,217.0 L 412.5,218.0 L 413.5,219.0 L 415.0,219.5 L 417.0,219.5 L 419.0,219.5 L 421.0,219.5 L 422.0,218.5 L 423.0,217.5 L 424.0,216.5 L 424.5,215.0 L 424.5,213.0 L 424.5,211.0 L 424.5,209.0 L 424.5,207.0 L 424.5,205.0 L 424.5,203.0 L 424.5,201.0 L 425.0,199.5 L 425.5,198.0 L 425.5,196.0 L 425.5,194.0 L 425.5,192.0 L 425.5,190.0 L 425.5,188.0 L 425.5,186.0 L 425.5,184.0 L 426.0,182.5 L 427.0,181.5 L 428.5,181.0 L 430.0,180.5 L 432.0,180.5 L 434.0,180.5 L 435.0,181.5 L 436.0,182.5 L 436.5,184.0 L 436.5,186.0 L 436.5,188.0 L 436.5,190.0 L 436.5,192.0 L 436.5,194.0 L 436.5,196.0 L 436.5,198.0 L 436.5,200.0 L 436.5,202.0 L 436.5,204.0 L 436.5,206.0 L 436.5,208.0 L 436.0,209.5 L 435.5,211.0 L 435.5,213.0 L 435.5,215.0 L 435.5,217.0 L 435.5,219.0 L 435.5,221.0 L 435.5,223.0 L 435.5,225.0 L 435.5,227.0 L 434.5,228.0 L 433.5,229.0 L 432.0,229.5 L 430.0,229.5 L 428.0,229.5 L 426.0,229.5 L 425.0,228.5 L 423.0,228.5 L 422.0,229.5 L 421.0,230.5 Z" />
    <path d="M 480.0,227.5 L 478.0,227.5 L 477.0,226.5 L 475.5,226.0 L 474.5,225.0 L 473.5,224.0 L 472.5,223.0 L 471.5,222.0 L 471.0,220.5 L 470.5,219.0 L 469.5,218.0 L 469.5,216.0 L 468.5,215.0 L 468.5,213.0 L 468.5,211.0 L 467.5,210.0 L 467.5,208.0 L 467.5,206.0 L 467.5,204.0 L 467.5,202.0 L 467.5,200.0 L 468.0,198.5 L 468.5,197.0 L 468.5,195.0 L 469.0,193.5 L 469.5,192.0 L 470.5,191.0 L 471.0,189.5 L 471.5,188.0 L 472.5,187.0 L 473.5,186.0 L 474.5,185.0 L 475.5,184.0 L 476.5,183.0 L 477.5,182.0 L 479.0,181.5 Z" />
    <path d="M 82.0,236.5 L 80.5,236.0 L 79.0,235.5 L 78.0,234.5 L 77.5,233.0 L 77.5,231.0 L 77.0,229.5 L 76.5,228.0 L 77.0,226.5 L 77.5,225.0 L 76.5,224.0 L 77.5,223.0 L 76.5,222.0 L 77.0,220.5 L 77.5,219.0 L 77.5,217.0 L 77.5,215.0 L 77.5,213.0 L 77.5,211.0 L 77.5,209.0 L 77.5,207.0 L 77.5,205.0 L 77.5,203.0 L 77.5,201.0 L 77.5,199.0 L 77.5,197.0 L 77.5,195.0 L 77.5,193.0 L 78.0,191.5 L 79.0,190.5 L 80.5,190.0 L 82.0,189.5 L 83.0,190.5 L 85.0,190.5 L 86.5,191.0 L 87.5,191.0 L 88.5,190.0 L 90.0,189.5 L 92.0,189.5 L 93.0,188.5 L 95.0,188.5 L 97.0,188.5 L 98.5,189.0 L 100.0,189.5 L 101.0,190.5 L 102.5,191.0 L 104.0,191.5 L 105.0,192.5 L 106.0,193.5 L 106.5,195.0 L 107.5,196.0 L 108.0,197.5 L 108.5,199.0 L 109.5,200.0 L 109.5,202.0 L 109.5,204.0 L 109.5,206.0 L 109.5,208.0 L 109.5,210.0 L 109.5,212.0 L 109.5,214.0 L 109.5,216.0 L 109.5,218.0 L 109.5,220.0 L 109.5,222.0 L 109.5,224.0 L 109.5,226.0 L 109.5,228.0 L 109.5,230.0 L 109.5,232.0 L 109.0,233.5 L 108.0,234.5 L 107.0,235.5 L 105.0,235.5 L 103.0,235.5 L 101.0,235.5 L 100.0,234.5 L 99.5,233.0 L 99.5,231.0 L 99.5,229.0 L 99.5,227.0 L 99.5,225.0 L 99.5,223.0 L 99.5,221.0 L 99.5,219.0 L 99.5,217.0 L 99.5,215.0 L 99.5,213.0 L 99.5,211.0 L 99.5,209.0 L 99.5,207.0 L 99.5,205.0 L 98.5,204.0 L 98.5,202.0 L 97.5,201.0 L 96.5,200.0 L 95.0,199.5 L 93.0,199.5 L 91.0,199.5 L 90.0,200.5 L 89.0,201.5 L 88.0,202.5 L 87.5,204.0 L 87.5,206.0 L 87.5,208.0 L 87.5,210.0 L 87.5,212.0 L 87.5,214.0 L 87.5,216.0 L 87.5,218.0 L 87.5,220.0 L 87.5,222.0 L 87.5,224.0 L 87.5,226.0 L 87.5,228.0 L 87.5,230.0 L 87.5,232.0 L 86.5,233.0 L 86.0,234.5 L 85.0,235.5 L 83.0,235.5 L 82.0,236.5 Z" />
    <path d="M 251.5,210.0 L 252.5,209.0 L 252.0,207.5 L 251.5,206.0 L 251.0,204.5 L 250.0,203.5 L 248.5,203.0 L 247.0,202.5 L 245.5,202.0 L 244.0,201.5 L 242.0,201.5 L 241.0,200.5 L 239.0,200.5 L 237.5,201.0 L 236.5,202.0 L 237.5,203.0 L 237.5,205.0 L 237.0,206.5 L 237.0,207.5 L 238.0,208.5 L 240.0,208.5 L 241.5,209.0 L 243.0,209.5 L 245.0,209.5 L 246.0,210.5 L 248.0,210.5 L 250.0,210.5 L 251.5,210.0 Z" />
    <path d="M 0.0,210.5 L 2.0,210.5 L 3.5,211.0 L 5.0,211.5 L 6.0,212.5 L 7.5,213.0 L 8.5,214.0 L 9.5,215.0 L 10.5,216.0 L 11.0,217.5 L 11.5,219.0 L 12.0,220.5 L 12.5,222.0 L 12.5,224.0 L 12.5,226.0 L 12.0,227.5 L 11.5,229.0 L 11.0,230.5 L 10.5,232.0 L 9.5,233.0 L 9.0,234.5 L 8.0,235.5 L 6.5,236.0 L 5.5,237.0 L 4.0,237.5 L 3.0,238.5 L 1.0,238.5 L 0.0,239.5 Z" />
    <path d="M 304.5,228.0 L 305.5,227.0 L 305.0,225.5 L 304.5,224.0 L 304.0,222.5 L 303.5,221.0 L 302.5,220.0 L 301.5,219.0 L 300.0,218.5 L 299.0,217.5 L 297.5,217.0 L 296.0,216.5 L 294.0,216.5 L 293.0,215.5 L 291.0,215.5 L 289.0,215.5 L 287.5,216.0 L 286.0,216.5 L 285.0,215.5 L 284.0,216.5 L 283.5,218.0 L 284.5,219.0 L 285.5,219.0 L 286.5,218.0 L 287.5,218.0 L 289.0,218.5 L 290.5,219.0 L 291.5,220.0 L 291.5,222.0 L 292.5,223.0 L 293.5,224.0 L 295.0,224.5 L 296.5,225.0 L 298.0,225.5 L 299.0,226.5 L 301.0,226.5 L 302.0,227.5 L 303.0,228.5 L 304.5,228.0 Z" />
    <path d="M 224.5,285.0 L 225.5,284.0 L 226.5,283.0 L 227.5,282.0 L 229.0,281.5 L 230.0,280.5 L 231.5,281.0 L 233.0,281.5 L 234.0,280.5 L 235.0,279.5 L 236.0,278.5 L 237.0,277.5 L 238.5,277.0 L 239.5,276.0 L 240.5,275.0 L 241.5,274.0 L 240.5,273.0 L 240.5,271.0 L 240.0,269.5 L 239.0,268.5 L 237.5,268.0 L 236.5,268.0 L 235.5,269.0 L 235.0,270.5 L 234.0,271.5 L 233.5,273.0 L 233.5,275.0 L 233.5,277.0 L 232.5,278.0 L 231.5,278.0 L 230.5,277.0 L 230.5,275.0 L 229.5,274.0 L 228.5,273.0 L 227.5,272.0 L 226.5,272.0 L 225.5,273.0 L 224.5,274.0 L 223.0,274.5 L 222.0,273.5 L 221.0,274.5 L 221.0,275.5 L 222.0,276.5 L 222.5,278.0 L 222.5,280.0 L 222.5,282.0 L 221.5,283.0 L 222.5,284.0 L 223.5,285.0 L 224.5,285.0 Z" />
    <path d="M 266.5,280.0 L 267.5,279.0 L 266.5,278.0 L 265.5,277.0 L 264.0,276.5 L 262.0,276.5 L 260.5,276.0 L 259.0,275.5 L 257.5,275.0 L 256.5,274.0 L 255.5,273.0 L 254.5,273.0 L 253.5,274.0 L 252.5,274.0 L 251.5,273.0 L 250.5,272.0 L 249.5,272.0 L 248.0,272.5 L 247.0,273.5 L 246.0,272.5 L 245.0,271.5 L 244.0,272.5 L 243.0,273.5 L 242.5,275.0 L 243.5,276.0 L 245.0,276.5 L 247.0,276.5 L 248.5,277.0 L 250.0,277.5 L 251.0,276.5 L 252.5,277.0 L 254.0,277.5 L 256.0,277.5 L 257.0,278.5 L 259.0,278.5 L 260.0,279.5 L 261.5,280.0 L 263.0,280.5 L 265.0,280.5 L 266.5,280.0 Z" />
    <path d="M 284.5,301.0 L 285.5,300.0 L 284.5,299.0 L 285.0,297.5 L 285.5,296.0 L 285.5,294.0 L 285.5,292.0 L 285.5,290.0 L 285.5,288.0 L 286.5,287.0 L 286.0,285.5 L 285.5,284.0 L 285.0,282.5 L 284.0,281.5 L 283.0,280.5 L 282.0,279.5 L 281.0,280.5 L 279.5,280.0 L 278.5,279.0 L 277.5,278.0 L 276.0,277.5 L 274.5,278.0 L 273.5,279.0 L 272.5,280.0 L 273.5,281.0 L 274.5,282.0 L 275.5,283.0 L 277.0,283.5 L 278.0,284.5 L 278.5,286.0 L 279.5,287.0 L 279.5,289.0 L 280.0,290.5 L 280.5,292.0 L 280.5,294.0 L 281.5,295.0 L 282.5,296.0 L 282.0,297.5 L 281.5,299.0 L 282.5,300.0 L 283.5,301.0 L 284.5,301.0 Z" />
    <path d="M 195.5,322.0 L 197.0,321.5 L 198.0,320.5 L 198.0,319.5 L 198.0,318.5 L 199.0,317.5 L 200.0,316.5 L 201.0,315.5 L 202.0,314.5 L 202.5,313.0 L 203.5,312.0 L 203.0,310.5 L 203.0,309.5 L 204.0,308.5 L 206.0,308.5 L 207.5,308.0 L 208.5,307.0 L 209.5,306.0 L 208.5,305.0 L 207.0,304.5 L 205.0,304.5 L 204.0,305.5 L 202.0,305.5 L 201.0,306.5 L 200.5,308.0 L 201.5,309.0 L 201.0,310.5 L 200.0,311.5 L 198.5,311.0 L 197.5,310.0 L 196.5,309.0 L 195.5,309.0 L 194.5,310.0 L 195.5,311.0 L 194.5,312.0 L 193.5,313.0 L 192.5,314.0 L 193.0,315.5 L 194.0,316.5 L 195.5,317.0 L 196.5,318.0 L 195.5,319.0 L 194.5,320.0 L 193.5,321.0 L 194.5,322.0 L 195.5,322.0 Z" />
    <path d="M 328.5,509.0 L 328.5,507.0 L 328.5,505.0 L 328.0,503.5 L 327.5,502.0 L 327.5,500.0 L 327.5,498.0 L 326.5,497.0 L 326.5,495.0 L 326.5,493.0 L 326.5,491.0 L 325.5,490.0 L 325.5,488.0 L 325.5,486.0 L 324.5,485.0 L 324.5,483.0 L 324.5,481.0 L 323.5,480.0 L 323.5,478.0 L 323.0,476.5 L 322.5,475.0 L 322.5,473.0 L 322.0,471.5 L 321.5,470.0 L 321.5,468.0 L 321.0,466.5 L 320.5,465.0 L 320.5,463.0 L 319.5,462.0 L 319.5,460.0 L 318.5,459.0 L 318.5,457.0 L 318.0,455.5 L 317.5,454.0 L 317.5,452.0 L 316.5,451.0 L 316.5,449.0 L 316.5,447.0 L 315.5,446.0 L 315.5,444.0 L 315.5,442.0 L 314.5,441.0 L 314.5,439.0 L 313.5,438.0 L 313.5,436.0 L 313.0,434.5 L 312.5,433.0 L 312.0,431.5 L 311.5,430.0 L 311.0,428.5 L 310.5,427.0 L 310.5,425.0 L 309.5,424.0 L 309.5,422.0 L 309.0,420.5 L 308.5,419.0 L 308.5,417.0 L 307.5,416.0 L 307.5,414.0 L 307.0,412.5 L 306.5,411.0 L 306.0,409.5 L 305.5,408.0 L 304.5,407.0 L 304.5,405.0 L 304.0,403.5 L 303.5,402.0 L 303.0,400.5 L 302.5,399.0 L 302.5,397.0 L 302.0,395.5 L 301.5,394.0 L 300.5,393.0 L 300.5,391.0 L 299.5,390.0 L 299.5,388.0 L 298.5,387.0 L 298.0,385.5 L 297.5,384.0 L 298.5,383.0 L 298.0,381.5 L 297.5,380.0 L 296.5,379.0 L 296.5,377.0 L 295.5,376.0 L 295.0,374.5 L 294.5,373.0 L 293.5,372.0 L 293.0,370.5 L 292.5,369.0 L 292.5,367.0 L 293.5,366.0 L 294.5,366.0 L 295.5,367.0 L 296.5,368.0 L 297.0,369.5 L 298.0,370.5 L 298.5,372.0 L 299.5,373.0 L 299.5,375.0 L 300.5,376.0 L 301.5,377.0 L 302.0,378.5 L 302.5,380.0 L 303.5,381.0 L 304.0,382.5 L 304.5,384.0 L 305.5,385.0 L 307.0,385.5 L 308.5,386.0 L 309.5,387.0 L 310.5,388.0 L 311.5,389.0 L 312.0,390.5 L 313.0,391.5 L 314.5,392.0 L 316.0,392.5 L 317.0,393.5 L 318.0,392.5 L 318.0,391.5 L 317.0,390.5 L 316.0,389.5 L 315.5,388.0 L 316.5,387.0 L 315.5,386.0 L 314.0,385.5 L 313.0,384.5 L 312.5,383.0 L 311.5,382.0 L 311.0,380.5 L 310.0,379.5 L 309.0,378.5 L 308.5,377.0 L 307.5,376.0 L 308.5,375.0 L 309.5,375.0 L 311.0,375.5 L 312.0,374.5 L 313.5,375.0 L 315.0,375.5 L 316.0,376.5 L 317.0,377.5 L 318.5,378.0 L 320.0,378.5 L 321.0,379.5 L 323.0,379.5 L 324.0,380.5 L 325.5,381.0 L 326.5,382.0 L 328.0,382.5 L 329.0,383.5 L 330.5,384.0 L 331.5,385.0 L 333.0,385.5 L 334.0,386.5 L 336.0,386.5 L 337.5,387.0 L 338.5,388.0 L 340.0,388.5 L 341.0,389.5 L 343.0,389.5 L 344.5,390.0 L 345.5,391.0 L 346.5,392.0 L 347.5,393.0 L 348.5,394.0 L 349.5,395.0 L 350.5,395.0 L 351.5,394.0 L 353.0,393.5 L 354.0,394.5 L 355.0,395.5 L 356.5,396.0 L 357.5,397.0 L 359.0,397.5 L 360.0,398.5 L 361.0,397.5 L 362.5,398.0 L 363.5,399.0 L 365.0,399.5 L 366.5,400.0 L 367.5,401.0 L 369.0,401.5 L 370.0,402.5 L 371.0,403.5 L 372.0,404.5 L 373.5,405.0 L 374.5,406.0 L 375.5,407.0 L 377.0,407.5 L 378.0,408.5 L 379.0,409.5 L 380.0,410.5 L 380.5,412.0 L 381.5,413.0 L 382.5,413.0 L 383.5,413.0 L 385.0,413.5 L 386.0,414.5 L 387.5,415.0 L 388.5,416.0 L 390.0,416.5 L 391.0,415.5 L 392.0,414.5 L 393.0,415.5 L 394.0,416.5 L 395.0,415.5 L 397.0,415.5 L 398.5,416.0 L 400.0,416.5 L 401.0,415.5 L 402.0,416.5 L 403.5,417.0 L 405.0,417.5 L 406.0,418.5 L 408.0,418.5 L 410.0,418.5 L 411.5,419.0 L 413.0,419.5 L 415.0,419.5 L 416.0,420.5 L 417.0,421.5 L 418.0,422.5 L 419.0,423.5 L 420.0,424.5 L 421.0,423.5 L 423.0,423.5 L 424.0,424.5 L 424.5,426.0 L 425.5,427.0 L 426.0,428.5 L 426.5,430.0 L 427.5,431.0 L 428.0,432.5 L 428.5,434.0 L 428.5,436.0 L 429.0,437.5 L 429.5,439.0 L 429.5,441.0 L 429.5,443.0 L 429.5,445.0 L 429.5,447.0 L 430.5,448.0 L 430.5,450.0 L 430.5,452.0 L 430.5,454.0 L 430.5,456.0 L 431.5,457.0 L 432.5,458.0 L 431.5,459.0 L 431.5,461.0 L 431.5,463.0 L 431.5,465.0 L 432.0,466.5 L 432.5,468.0 L 431.5,469.0 L 432.5,470.0 L 432.5,472.0 L 432.5,474.0 L 432.5,476.0 L 433.5,477.0 L 432.5,478.0 L 432.5,480.0 L 432.5,482.0 L 431.5,483.0 L 431.0,484.5 L 430.5,486.0 L 431.5,487.0 L 431.5,489.0 L 431.5,491.0 L 431.5,493.0 L 431.5,495.0 L 432.5,496.0 L 432.5,498.0 L 432.5,500.0 L 431.5,501.0 L 432.0,502.5 L 432.0,503.5 L 431.0,504.5 L 431.0,505.5 L 431.5,507.0 L 431.5,509.0 Z" />
    <path d="M 400.0,412.5 L 398.0,412.5 L 397.0,411.5 L 396.5,410.0 L 396.5,408.0 L 397.0,406.5 L 397.5,405.0 L 397.5,403.0 L 397.5,401.0 L 397.5,399.0 L 397.5,397.0 L 397.5,395.0 L 398.0,393.5 L 399.0,392.5 L 400.0,393.5 L 400.5,395.0 L 400.5,397.0 L 400.5,399.0 L 401.5,400.0 L 400.5,401.0 L 401.0,402.5 L 401.0,403.5 L 401.0,404.5 L 401.0,405.5 L 400.5,407.0 L 401.5,408.0 L 401.5,410.0 L 401.0,411.5 L 400.0,412.5 Z" />
    <path d="M 300.0,454.5 L 299.0,453.5 L 298.5,452.0 L 297.5,451.0 L 296.5,450.0 L 297.5,449.0 L 297.5,447.0 L 296.5,446.0 L 296.5,444.0 L 295.5,443.0 L 295.5,441.0 L 295.0,439.5 L 294.5,438.0 L 294.5,436.0 L 293.5,435.0 L 292.5,434.0 L 292.5,432.0 L 292.5,430.0 L 292.0,428.5 L 291.5,427.0 L 291.0,425.5 L 290.5,424.0 L 290.5,422.0 L 289.5,421.0 L 289.0,419.5 L 288.5,418.0 L 288.5,416.0 L 289.5,415.0 L 290.5,415.0 L 291.5,416.0 L 292.0,417.5 L 293.0,418.5 L 293.0,419.5 L 292.5,421.0 L 293.5,422.0 L 293.5,424.0 L 294.5,425.0 L 294.5,427.0 L 295.0,428.5 L 295.5,430.0 L 296.0,431.5 L 296.5,433.0 L 297.0,434.5 L 297.5,436.0 L 298.0,437.5 L 298.5,439.0 L 298.5,441.0 L 299.5,442.0 L 299.5,444.0 L 300.5,445.0 L 300.5,447.0 L 300.5,449.0 L 301.5,450.0 L 303.0,450.5 L 304.0,451.5 L 304.0,452.5 L 303.0,453.5 L 302.0,452.5 L 301.0,453.5 L 300.0,454.5 Z" />
    <path d="M 450.5,509.0 L 450.5,507.0 L 450.5,505.0 L 450.5,503.0 L 451.5,502.0 L 450.5,501.0 L 451.0,499.5 L 451.5,498.0 L 450.5,497.0 L 450.5,495.0 L 451.5,494.0 L 451.5,492.0 L 452.5,491.0 L 452.5,489.0 L 451.5,488.0 L 452.0,486.5 L 453.0,485.5 L 455.0,485.5 L 456.0,486.5 L 457.5,487.0 L 459.0,487.5 L 460.0,488.5 L 460.5,490.0 L 461.0,491.5 L 462.0,492.5 L 463.5,492.0 L 464.5,491.0 L 465.5,490.0 L 466.5,489.0 L 467.5,488.0 L 466.5,487.0 L 467.5,486.0 L 469.0,485.5 L 470.0,486.5 L 471.0,485.5 L 471.0,484.5 L 470.0,483.5 L 469.0,484.5 L 468.0,483.5 L 467.0,482.5 L 465.5,482.0 L 464.5,481.0 L 463.5,480.0 L 462.0,479.5 L 461.0,480.5 L 460.0,481.5 L 459.0,482.5 L 458.0,483.5 L 457.0,482.5 L 456.5,481.0 L 456.5,479.0 L 455.5,478.0 L 455.5,476.0 L 456.5,475.0 L 455.5,474.0 L 456.0,472.5 L 457.0,471.5 L 459.0,471.5 L 460.0,470.5 L 461.0,469.5 L 461.5,468.0 L 462.0,466.5 L 463.0,465.5 L 464.0,466.5 L 464.5,468.0 L 464.5,470.0 L 465.5,471.0 L 466.5,472.0 L 468.0,472.5 L 469.0,471.5 L 469.5,470.0 L 470.5,469.0 L 471.5,468.0 L 473.0,467.5 L 474.5,468.0 L 475.5,468.0 L 476.5,467.0 L 477.0,465.5 L 477.5,464.0 L 476.5,463.0 L 475.5,462.0 L 474.5,461.0 L 473.5,460.0 L 474.5,459.0 L 475.0,457.5 L 476.0,456.5 L 477.0,455.5 L 477.5,454.0 L 476.5,453.0 L 475.0,452.5 L 474.0,453.5 L 473.0,454.5 L 471.0,454.5 L 469.0,454.5 L 467.0,454.5 L 466.0,455.5 L 466.0,456.5 L 467.0,457.5 L 468.0,458.5 L 468.5,460.0 L 468.0,461.5 L 467.0,462.5 L 465.0,462.5 L 464.0,461.5 L 463.5,460.0 L 462.5,459.0 L 461.0,458.5 L 459.5,459.0 L 458.0,459.5 L 456.5,459.0 L 455.5,458.0 L 454.5,457.0 L 455.5,456.0 L 456.5,455.0 L 458.0,454.5 L 459.0,453.5 L 460.0,452.5 L 460.0,451.5 L 459.0,450.5 L 458.0,451.5 L 457.0,452.5 L 455.0,452.5 L 454.0,451.5 L 453.5,450.0 L 454.0,448.5 L 455.0,447.5 L 456.0,446.5 L 457.0,445.5 L 457.5,444.0 L 457.5,442.0 L 457.0,440.5 L 456.5,439.0 L 456.0,437.5 L 455.5,436.0 L 456.0,434.5 L 456.5,433.0 L 456.5,431.0 L 456.5,429.0 L 456.5,427.0 L 456.5,425.0 L 456.5,423.0 L 456.5,421.0 L 457.0,419.5 L 458.0,418.5 L 459.0,417.5 L 460.5,417.0 L 462.0,416.5 L 464.0,416.5 L 465.5,417.0 L 466.5,418.0 L 468.0,418.5 L 470.0,418.5 L 472.0,418.5 L 474.0,418.5 L 476.0,418.5 L 478.0,418.5 L 480.0,418.5 Z" />
    <path d="M 343.5,509.0 L 343.5,507.0 L 343.0,505.5 L 343.0,504.5 L 343.5,503.0 L 343.5,501.0 L 342.5,500.0 L 342.5,498.0 L 342.0,496.5 L 341.5,495.0 L 341.5,493.0 L 341.5,491.0 L 340.5,490.0 L 340.0,488.5 L 339.5,487.0 L 339.0,485.5 L 339.0,484.5 L 339.0,483.5 L 338.5,482.0 L 337.5,481.0 L 337.5,479.0 L 337.5,477.0 L 337.5,475.0 L 336.5,474.0 L 336.5,472.0 L 335.5,471.0 L 335.0,469.5 L 335.0,468.5 L 335.5,467.0 L 335.0,465.5 L 334.5,464.0 L 334.0,462.5 L 333.5,461.0 L 333.0,459.5 L 332.0,458.5 L 331.0,457.5 L 330.0,456.5 L 329.5,455.0 L 329.5,453.0 L 328.5,452.0 L 328.5,450.0 L 327.5,449.0 L 326.5,448.0 L 327.5,447.0 L 327.0,445.5 L 326.5,444.0 L 326.0,442.5 L 325.5,441.0 L 325.0,439.5 L 324.5,438.0 L 324.0,436.5 L 323.5,435.0 L 323.0,433.5 L 322.5,432.0 L 321.5,431.0 L 321.0,429.5 L 320.0,428.5 L 319.0,427.5 L 318.0,428.5 L 318.0,429.5 L 318.5,431.0 L 318.5,433.0 L 319.5,434.0 L 319.5,436.0 L 320.0,437.5 L 320.5,439.0 L 321.0,440.5 L 322.0,441.5 L 322.5,443.0 L 323.0,444.5 L 323.5,446.0 L 324.5,447.0 L 325.5,448.0 L 326.5,449.0 L 325.5,450.0 L 325.5,452.0 L 326.5,453.0 L 326.5,455.0 L 327.5,456.0 L 327.5,458.0 L 327.5,460.0 L 328.5,461.0 L 328.5,463.0 L 329.5,464.0 L 329.5,466.0 L 330.0,467.5 L 330.5,469.0 L 331.0,470.5 L 331.5,472.0 L 332.5,473.0 L 331.5,474.0 L 332.0,475.5 L 333.0,476.5 L 333.5,478.0 L 333.0,479.5 L 332.5,481.0 L 333.5,482.0 L 333.5,484.0 L 334.0,485.5 L 334.5,487.0 L 334.5,489.0 L 334.5,491.0 L 335.5,492.0 L 335.5,494.0 L 335.5,496.0 L 336.5,497.0 L 336.5,499.0 L 337.0,500.5 L 337.5,502.0 L 338.0,503.5 L 338.5,505.0 L 339.5,506.0 L 340.5,507.0 L 339.5,508.0 Z" />
    <path d="M 227.0,456.5 L 225.5,456.0 L 224.5,455.0 L 223.5,455.0 L 222.5,456.0 L 221.0,456.5 L 220.0,455.5 L 219.0,454.5 L 218.0,455.5 L 216.0,455.5 L 214.0,455.5 L 213.0,454.5 L 213.0,453.5 L 214.0,452.5 L 216.0,452.5 L 217.5,452.0 L 218.5,451.0 L 217.5,450.0 L 216.0,449.5 L 214.0,449.5 L 213.0,448.5 L 212.5,447.0 L 213.0,445.5 L 214.0,444.5 L 216.0,444.5 L 217.0,443.5 L 219.0,443.5 L 221.0,443.5 L 223.0,443.5 L 225.0,443.5 L 226.5,444.0 L 228.0,444.5 L 229.5,445.0 L 230.5,446.0 L 230.5,448.0 L 230.5,450.0 L 230.0,451.5 L 229.5,453.0 L 229.0,454.5 L 228.0,455.5 L 227.0,456.5 Z" />
    <path d="M 424.5,509.0 L 424.5,507.0 L 424.5,505.0 L 424.5,503.0 L 424.5,501.0 L 424.5,499.0 L 424.5,497.0 L 424.5,495.0 L 424.5,493.0 L 424.5,491.0 L 424.5,489.0 L 424.5,487.0 L 424.5,485.0 L 424.5,483.0 L 424.0,481.5 L 423.5,480.0 L 424.5,479.0 L 424.0,477.5 L 423.5,476.0 L 423.5,474.0 L 424.5,473.0 L 424.5,471.0 L 424.5,469.0 L 423.5,468.0 L 423.5,466.0 L 423.5,464.0 L 423.5,462.0 L 423.5,460.0 L 423.0,458.5 L 422.0,457.5 L 421.0,458.5 L 420.0,459.5 L 419.0,458.5 L 418.0,457.5 L 417.5,456.0 L 417.5,454.0 L 416.5,453.0 L 415.5,452.0 L 414.5,452.0 L 413.0,452.5 L 412.0,451.5 L 411.0,450.5 L 410.0,449.5 L 409.0,450.5 L 408.0,451.5 L 407.0,450.5 L 406.0,449.5 L 405.0,450.5 L 404.0,449.5 L 403.0,448.5 L 402.0,447.5 L 400.5,448.0 L 399.5,449.0 L 400.5,450.0 L 400.5,452.0 L 400.5,454.0 L 401.5,455.0 L 402.5,456.0 L 402.0,457.5 L 401.5,459.0 L 402.5,460.0 L 402.5,462.0 L 403.5,463.0 L 404.0,464.5 L 404.5,466.0 L 405.5,467.0 L 405.5,469.0 L 406.0,470.5 L 407.0,471.5 L 407.0,472.5 L 407.0,473.5 L 407.5,475.0 L 408.0,476.5 L 408.5,478.0 L 408.5,480.0 L 409.0,481.5 L 409.5,483.0 L 410.5,484.0 L 409.5,485.0 L 410.5,486.0 L 411.5,487.0 L 411.0,488.5 L 410.5,490.0 L 410.5,492.0 L 410.5,494.0 L 411.5,495.0 L 412.5,496.0 L 412.0,497.5 L 411.0,498.5 L 410.0,497.5 L 408.5,497.0 L 407.5,497.0 L 406.0,497.5 L 404.5,497.0 L 403.5,496.0 L 402.5,495.0 L 401.5,494.0 L 402.0,492.5 L 402.0,491.5 L 401.0,490.5 L 400.0,489.5 L 399.5,488.0 L 398.5,487.0 L 398.5,485.0 L 398.0,483.5 L 397.5,482.0 L 397.0,480.5 L 396.0,479.5 L 395.5,478.0 L 395.0,476.5 L 394.5,475.0 L 393.5,474.0 L 393.0,472.5 L 392.0,471.5 L 391.5,470.0 L 390.5,469.0 L 389.5,468.0 L 389.5,466.0 L 388.5,465.0 L 387.5,464.0 L 386.5,463.0 L 386.5,461.0 L 385.5,460.0 L 385.0,458.5 L 384.5,457.0 L 383.5,456.0 L 382.0,455.5 L 381.0,456.5 L 380.0,457.5 L 379.5,459.0 L 380.0,460.5 L 380.5,462.0 L 380.5,464.0 L 381.5,465.0 L 382.0,466.5 L 383.0,467.5 L 383.5,469.0 L 384.0,470.5 L 384.5,472.0 L 385.5,473.0 L 385.5,475.0 L 386.0,476.5 L 386.5,478.0 L 385.5,479.0 L 386.5,480.0 L 387.5,481.0 L 387.5,483.0 L 388.0,484.5 L 388.0,485.5 L 388.0,486.5 L 388.5,488.0 L 389.5,489.0 L 390.5,490.0 L 391.0,491.5 L 391.5,493.0 L 391.5,495.0 L 392.0,496.5 L 392.5,498.0 L 393.0,499.5 L 393.5,501.0 L 394.0,502.5 L 394.5,504.0 L 395.0,505.5 L 396.0,506.5 L 396.0,507.5 L 395.5,509.0 Z" />
    <path d="M 273.5,509.0 L 274.0,507.5 L 274.0,506.5 L 273.5,505.0 L 273.5,503.0 L 273.5,501.0 L 273.0,499.5 L 272.5,498.0 L 272.5,496.0 L 271.5,495.0 L 271.5,493.0 L 271.5,491.0 L 270.5,490.0 L 270.5,488.0 L 270.5,486.0 L 270.0,484.5 L 269.5,483.0 L 269.5,481.0 L 269.5,479.0 L 269.5,477.0 L 268.5,476.0 L 268.5,474.0 L 268.5,472.0 L 267.5,471.0 L 267.5,469.0 L 267.5,467.0 L 267.5,465.0 L 267.5,463.0 L 266.5,462.0 L 266.5,460.0 L 266.5,458.0 L 266.5,456.0 L 266.0,454.5 L 266.0,453.5 L 266.5,452.0 L 267.5,451.0 L 268.5,451.0 L 269.5,452.0 L 271.0,452.5 L 272.0,453.5 L 273.0,452.5 L 274.0,451.5 L 275.0,452.5 L 275.5,454.0 L 274.5,455.0 L 273.5,455.0 L 272.0,454.5 L 271.0,455.5 L 270.0,456.5 L 269.5,458.0 L 270.0,459.5 L 270.5,461.0 L 270.5,463.0 L 270.5,465.0 L 270.5,467.0 L 271.0,468.5 L 271.5,470.0 L 271.5,472.0 L 271.5,474.0 L 272.5,475.0 L 272.5,477.0 L 272.5,479.0 L 272.5,481.0 L 273.5,482.0 L 273.5,484.0 L 273.5,486.0 L 274.0,487.5 L 274.5,489.0 L 274.5,491.0 L 274.5,493.0 L 275.5,494.0 L 275.5,496.0 L 275.5,498.0 L 276.5,499.0 L 276.5,501.0 L 276.5,503.0 L 277.5,504.0 L 277.5,506.0 L 278.0,507.5 L 278.5,509.0 Z" />
    <path d="M 232.5,509.0 L 232.0,507.5 L 231.5,506.0 L 231.5,504.0 L 231.5,502.0 L 231.5,500.0 L 231.5,498.0 L 231.5,496.0 L 231.5,494.0 L 231.5,492.0 L 230.5,491.0 L 229.0,490.5 L 228.0,489.5 L 228.0,488.5 L 229.0,487.5 L 230.0,486.5 L 230.5,485.0 L 230.5,483.0 L 230.5,481.0 L 230.5,479.0 L 230.5,477.0 L 230.5,475.0 L 230.5,473.0 L 230.5,471.0 L 229.5,470.0 L 230.0,468.5 L 230.5,467.0 L 230.5,465.0 L 230.5,463.0 L 231.5,462.0 L 232.5,462.0 L 233.5,463.0 L 233.5,465.0 L 233.5,467.0 L 233.5,469.0 L 234.5,470.0 L 234.0,471.5 L 233.5,473.0 L 234.0,474.5 L 235.0,475.5 L 236.0,474.5 L 237.0,473.5 L 237.0,472.5 L 236.0,471.5 L 236.0,470.5 L 237.0,469.5 L 238.5,470.0 L 239.5,471.0 L 240.5,472.0 L 241.5,472.0 L 242.5,471.0 L 244.0,470.5 L 245.0,471.5 L 245.0,472.5 L 244.5,474.0 L 245.5,475.0 L 246.0,476.5 L 247.0,477.5 L 248.0,478.5 L 249.0,477.5 L 249.5,476.0 L 249.5,474.0 L 249.0,472.5 L 249.0,471.5 L 249.5,470.0 L 249.5,468.0 L 249.5,466.0 L 249.5,464.0 L 249.5,462.0 L 249.5,460.0 L 249.5,458.0 L 250.5,457.0 L 251.5,457.0 L 252.5,458.0 L 252.5,460.0 L 252.5,462.0 L 252.5,464.0 L 253.0,465.5 L 253.5,467.0 L 252.5,468.0 L 252.5,470.0 L 252.5,472.0 L 252.5,474.0 L 252.5,476.0 L 252.5,478.0 L 252.5,480.0 L 252.5,482.0 L 252.5,484.0 L 252.5,486.0 L 252.5,488.0 L 253.0,489.5 L 253.5,491.0 L 254.0,492.5 L 254.5,494.0 L 254.5,496.0 L 255.5,497.0 L 255.5,499.0 L 255.5,501.0 L 255.5,503.0 L 256.5,504.0 L 255.5,505.0 L 256.0,506.5 L 256.5,508.0 Z" />
    <path d="M 298.5,509.0 L 298.5,507.0 L 298.0,505.5 L 297.5,504.0 L 297.0,502.5 L 296.5,501.0 L 296.5,499.0 L 295.5,498.0 L 295.5,496.0 L 295.0,494.5 L 294.5,493.0 L 294.5,491.0 L 293.5,490.0 L 293.5,488.0 L 293.5,486.0 L 292.5,485.0 L 292.5,483.0 L 291.5,482.0 L 291.5,480.0 L 291.0,478.5 L 290.5,477.0 L 290.5,475.0 L 289.5,474.0 L 289.0,472.5 L 288.0,471.5 L 288.0,470.5 L 288.5,469.0 L 288.5,467.0 L 287.5,466.0 L 287.5,464.0 L 287.5,462.0 L 286.5,461.0 L 286.5,459.0 L 285.5,458.0 L 286.5,457.0 L 287.5,457.0 L 288.5,458.0 L 289.5,459.0 L 289.5,461.0 L 290.0,462.5 L 290.5,464.0 L 290.5,466.0 L 291.5,467.0 L 291.5,469.0 L 292.5,470.0 L 293.0,471.5 L 293.0,472.5 L 292.5,474.0 L 293.5,475.0 L 293.5,477.0 L 294.0,478.5 L 294.5,480.0 L 294.5,482.0 L 295.5,483.0 L 295.5,485.0 L 296.0,486.5 L 296.5,488.0 L 297.0,489.5 L 297.5,491.0 L 297.5,493.0 L 298.0,494.5 L 298.5,496.0 L 298.5,498.0 L 299.5,499.0 L 299.5,501.0 L 299.5,503.0 L 300.5,504.0 L 300.5,506.0 L 301.5,507.0 L 301.5,509.0 Z" />
    <path d="M 279.5,509.0 L 280.0,507.5 L 280.5,506.0 L 281.5,505.0 L 281.0,503.5 L 280.5,502.0 L 280.5,500.0 L 281.5,499.0 L 282.5,499.0 L 283.5,500.0 L 283.5,502.0 L 283.0,503.5 L 283.0,504.5 L 284.0,505.5 L 285.0,506.5 L 286.0,505.5 L 288.0,505.5 L 289.0,506.5 L 290.0,507.5 L 291.0,506.5 L 291.5,505.0 L 290.5,504.0 L 290.5,502.0 L 289.5,501.0 L 289.5,499.0 L 289.0,497.5 L 288.5,496.0 L 288.5,494.0 L 287.5,493.0 L 287.5,491.0 L 287.0,489.5 L 286.0,488.5 L 285.0,489.5 L 284.0,490.5 L 283.0,489.5 L 282.5,488.0 L 283.5,487.0 L 284.5,486.0 L 285.5,485.0 L 285.5,483.0 L 285.5,481.0 L 284.5,480.0 L 284.5,478.0 L 283.5,477.0 L 283.5,475.0 L 283.0,473.5 L 282.5,472.0 L 282.5,470.0 L 281.5,469.0 L 281.5,467.0 L 281.0,465.5 L 280.5,464.0 L 280.5,462.0 L 281.0,460.5 L 282.0,459.5 L 283.0,460.5 L 283.5,462.0 L 284.0,463.5 L 284.5,465.0 L 284.5,467.0 L 285.5,468.0 L 285.5,470.0 L 286.5,471.0 L 287.5,472.0 L 286.5,473.0 L 286.5,475.0 L 287.5,476.0 L 287.5,478.0 L 288.0,479.5 L 288.5,481.0 L 288.5,483.0 L 289.5,484.0 L 289.5,486.0 L 290.0,487.5 L 290.5,489.0 L 291.0,490.5 L 291.5,492.0 L 291.5,494.0 L 292.0,495.5 L 292.5,497.0 L 292.5,499.0 L 293.0,500.5 L 293.5,502.0 L 294.0,503.5 L 294.5,505.0 L 294.5,507.0 L 294.5,509.0 Z" />
    <path d="M 281.0,498.5 L 280.0,497.5 L 279.5,496.0 L 278.5,495.0 L 278.5,493.0 L 278.5,491.0 L 278.0,489.5 L 277.0,488.5 L 277.0,487.5 L 277.5,486.0 L 277.5,484.0 L 276.5,483.0 L 276.5,481.0 L 276.5,479.0 L 276.5,477.0 L 275.5,476.0 L 275.5,474.0 L 275.5,472.0 L 275.0,470.5 L 274.0,469.5 L 274.0,468.5 L 274.5,467.0 L 274.5,465.0 L 273.5,464.0 L 274.0,462.5 L 275.0,461.5 L 276.5,462.0 L 277.5,463.0 L 277.5,465.0 L 277.5,467.0 L 278.5,468.0 L 279.5,469.0 L 278.5,470.0 L 278.5,472.0 L 278.5,474.0 L 279.5,475.0 L 279.5,477.0 L 279.5,479.0 L 279.5,481.0 L 280.5,482.0 L 280.5,484.0 L 280.5,486.0 L 281.0,487.5 L 281.5,489.0 L 280.5,490.0 L 281.5,491.0 L 281.5,493.0 L 282.5,494.0 L 282.5,496.0 L 282.0,497.5 L 281.0,498.5 Z" />
    <path d="M 208.0,489.5 L 207.0,488.5 L 206.5,487.0 L 206.5,485.0 L 206.5,483.0 L 205.5,482.0 L 205.5,480.0 L 204.5,479.0 L 204.5,477.0 L 204.5,475.0 L 203.5,474.0 L 202.5,473.0 L 203.5,472.0 L 205.0,471.5 L 206.0,472.5 L 207.0,473.5 L 207.5,475.0 L 208.0,476.5 L 208.5,478.0 L 208.5,480.0 L 208.5,482.0 L 209.5,483.0 L 209.5,485.0 L 209.5,487.0 L 209.0,488.5 L 208.0,489.5 Z" />
    <path d="M 252.5,509.0 L 252.5,507.0 L 252.5,505.0 L 252.5,503.0 L 252.0,501.5 L 251.5,500.0 L 251.5,498.0 L 251.5,496.0 L 250.5,495.0 L 250.5,493.0 L 249.5,492.0 L 248.5,491.0 L 249.5,490.0 L 249.5,488.0 L 248.5,487.0 L 248.5,485.0 L 249.5,484.0 L 249.0,482.5 L 248.0,481.5 L 247.0,482.5 L 246.0,483.5 L 245.0,484.5 L 244.0,485.5 L 243.0,486.5 L 241.0,486.5 L 239.5,487.0 L 238.5,488.0 L 239.5,489.0 L 240.5,490.0 L 241.5,491.0 L 240.5,492.0 L 239.5,493.0 L 240.5,494.0 L 240.5,496.0 L 241.5,497.0 L 240.5,498.0 L 239.5,499.0 L 238.5,499.0 L 237.5,498.0 L 237.5,496.0 L 237.5,494.0 L 238.5,493.0 L 237.5,492.0 L 236.5,491.0 L 235.5,491.0 L 234.5,492.0 L 234.5,494.0 L 234.5,496.0 L 234.5,498.0 L 234.5,500.0 L 235.0,501.5 L 235.5,503.0 L 235.5,505.0 L 235.5,507.0 L 235.5,509.0 Z" />
    <path d="M 259.5,509.0 L 260.0,507.5 L 260.0,506.5 L 259.5,505.0 L 259.5,503.0 L 259.5,501.0 L 258.5,500.0 L 258.5,498.0 L 257.5,497.0 L 257.5,495.0 L 257.0,493.5 L 256.5,492.0 L 256.5,490.0 L 256.5,488.0 L 256.0,486.5 L 256.0,485.5 L 256.5,484.0 L 257.5,483.0 L 258.5,483.0 L 259.5,484.0 L 259.5,486.0 L 259.5,488.0 L 259.5,490.0 L 260.5,491.0 L 261.0,492.5 L 261.5,494.0 L 261.5,496.0 L 261.5,498.0 L 262.5,499.0 L 262.5,501.0 L 262.5,503.0 L 263.5,504.0 L 263.5,506.0 L 262.5,507.0 L 262.5,509.0 Z" />
    <path d="M 210.5,509.0 L 210.5,507.0 L 210.5,505.0 L 209.5,504.0 L 209.5,502.0 L 209.0,500.5 L 208.5,499.0 L 208.5,497.0 L 207.5,496.0 L 207.5,494.0 L 206.5,493.0 L 207.0,491.5 L 208.0,490.5 L 209.0,489.5 L 210.0,490.5 L 210.5,492.0 L 211.5,493.0 L 211.5,495.0 L 211.5,497.0 L 212.5,498.0 L 212.5,500.0 L 213.0,501.5 L 213.5,503.0 L 213.5,505.0 L 214.5,506.0 L 216.0,506.5 L 217.0,505.5 L 217.5,504.0 L 217.0,502.5 L 216.5,501.0 L 216.5,499.0 L 215.5,498.0 L 215.5,496.0 L 215.0,494.5 L 214.5,493.0 L 213.5,492.0 L 214.0,490.5 L 214.5,489.0 L 213.5,488.0 L 214.5,487.0 L 213.5,486.0 L 212.5,485.0 L 213.5,484.0 L 215.0,483.5 L 216.0,484.5 L 216.5,486.0 L 215.5,487.0 L 216.5,488.0 L 217.0,489.5 L 218.0,490.5 L 218.5,492.0 L 218.5,494.0 L 219.0,495.5 L 219.5,497.0 L 219.5,499.0 L 220.0,500.5 L 220.5,502.0 L 220.5,504.0 L 221.5,505.0 L 222.5,506.0 L 224.0,506.5 L 226.0,506.5 L 227.0,507.5 L 227.5,509.0 Z" />
    <path d="M 225.0,503.5 L 224.0,502.5 L 223.0,501.5 L 223.0,500.5 L 224.0,499.5 L 224.0,498.5 L 223.5,497.0 L 222.5,496.0 L 222.5,494.0 L 222.0,492.5 L 221.5,491.0 L 220.5,490.0 L 221.5,489.0 L 222.5,488.0 L 223.5,488.0 L 224.5,489.0 L 225.5,490.0 L 225.5,492.0 L 225.5,494.0 L 226.5,495.0 L 226.5,497.0 L 226.0,498.5 L 226.0,499.5 L 227.0,500.5 L 227.0,501.5 L 226.0,502.5 L 225.0,503.5 Z" />
    <path d="M 188.5,509.0 L 188.5,507.0 L 188.0,505.5 L 187.5,504.0 L 187.0,502.5 L 186.5,501.0 L 186.5,499.0 L 186.0,497.5 L 185.5,496.0 L 186.0,494.5 L 187.0,493.5 L 188.5,494.0 L 189.5,495.0 L 189.5,497.0 L 189.5,499.0 L 190.5,500.0 L 191.0,501.5 L 191.5,503.0 L 191.5,505.0 L 192.5,506.0 L 193.5,506.0 L 194.5,505.0 L 195.5,504.0 L 194.5,503.0 L 194.0,501.5 L 194.0,500.5 L 194.5,499.0 L 193.5,498.0 L 193.0,496.5 L 192.5,495.0 L 193.0,493.5 L 194.0,492.5 L 195.5,493.0 L 196.5,494.0 L 196.5,496.0 L 196.5,498.0 L 197.0,499.5 L 198.0,500.5 L 198.0,501.5 L 198.0,502.5 L 198.5,504.0 L 199.0,505.5 L 199.5,507.0 L 199.5,509.0 Z" />
    <path d="M 474.5,509.0 L 474.5,507.0 L 473.5,506.0 L 472.5,505.0 L 473.5,504.0 L 474.5,503.0 L 474.0,501.5 L 473.0,500.5 L 471.5,500.0 L 470.5,499.0 L 469.5,498.0 L 468.5,497.0 L 467.0,496.5 L 465.0,496.5 L 464.0,495.5 L 463.0,494.5 L 462.0,495.5 L 461.5,497.0 L 461.0,498.5 L 461.0,499.5 L 462.0,500.5 L 463.0,501.5 L 464.0,500.5 L 466.0,500.5 L 468.0,500.5 L 469.0,501.5 L 470.0,502.5 L 471.0,503.5 L 471.5,505.0 L 470.5,506.0 L 470.5,508.0 Z" />
  </g>
</svg>