<?xml version='1.0' encoding='utf-8'?>
<svg xmlns="http://www.w3.org/2000/svg" version="1.1" width="620" height="443" viewBox="0 0 620 443">
  <rect x="0" y="0" width="620" height="443" fill="#58543d" />
  <g fill="#ccc9b9" stroke="none">
    <path d="M 311.0,88.5 L 310.0,88.5 L 309.5,88.0 L 309.5,87.0 L 309.0,86.5 L 308.0,86.5 L 307.5,86.0 L 307.0,85.5 L 306.5,86.0 L 306.0,86.5 L 305.0,86.5 L 304.5,87.0 L 304.0,87.5 L 303.0,87.5 L 302.5,88.0 L 302.0,88.5 L 301.5,88.0 L 301.5,87.0 L 301.0,86.5 L 300.0,86.5 L 299.5,86.0 L 299.0,85.5 L 298.0,85.5 L 297.0,85.5 L 296.0,85.5 L 295.5,85.0 L 295.5,84.0 L 295.0,83.5 L 294.0,83.5 L 293.5,83.0 L 293.0,82.5 L 292.0,82.5 L 291.0,82.5 L 290.5,83.0 L 290.0,83.5 L 289.5,83.0 L 289.0,82.5 L 288.0,82.5 L 287.0,82.5 L 286.0,82.5 L 285.0,82.5 L 284.0,82.5 L 283.0,82.5 L 282.5,82.0 L 282.0,81.5 L 281.0,81.5 L 280.0,81.5 L 279.5,81.0 L 279.0,80.5 L 278.0,80.5 L 277.5,80.0 L 277.5,79.0 L 278.0,78.5 L 279.0,78.5 L 279.5,78.0 L 280.0,77.5 L 281.0,77.5 L 282.0,77.5 L 282.5,77.0 L 283.0,76.5 L 284.0,76.5 L 285.0,76.5 L 286.0,76.5 L 286.5,77.0 L 287.0,77.5 L 288.0,77.5 L 289.0,77.5 L 289.5,77.0 L 290.0,76.5 L 291.0,76.5 L 292.0,76.5 L 292.5,77.0 L 293.0,77.5 L 294.0,77.5 L 295.0,77.5 L 296.0,77.5 L 297.0,77.5 L 297.5,78.0 L 298.0,78.5 L 298.5,78.0 L 299.0,77.5 L 300.0,77.5 L 300.5,77.0 L 301.0,76.5 L 302.0,76.5 L 303.0,76.5 L 304.0,76.5 L 305.0,76.5 L 306.0,76.5 L 307.0,76.5 L 308.0,76.5 L 308.5,76.0 L 309.0,75.5 L 310.0,75.5 L 310.5,76.0 L 311.0,76.5 L 312.0,76.5 L 313.0,76.5 L 314.0,76.5 L 315.0,76.5 L 316.0,76.5 L 317.0,76.5 L 317.5,77.0 L 318.0,77.5 L 319.0,77.5 L 320.0,77.5 L 321.0,77.5 L 322.0,77.5 L 322.5,78.0 L 322.5,79.0 L 322.0,79.5 L 321.5,80.0 L 321.0,80.5 L 320.5,81.0 L 320.0,81.5 L 319.0,81.5 L 318.0,81.5 L 317.0,81.5 L 316.0,81.5 L 315.0,81.5 L 314.0,81.5 L 313.0,81.5 L 312.5,82.0 L 312.0,82.5 L 311.0,82.5 L 310.5,83.0 L 310.5,84.0 L 310.0,84.5 L 309.5,85.0 L 310.0,85.5 L 310.5,86.0 L 310.5,87.0 L 311.0,87.5 L 311.5,88.0 L 311.0,88.5 Z" />
    <path d="M 619.0,132.5 L 609.0,129.5 L 600.0,127.5 L 591.0,125.5 L 581.0,122.5 L 573.0,127.5 L 566.0,133.5 L 561.0,141.5 L 555.0,148.5 L 550.5,157.0 L 548.0,166.5 L 547.0,175.5 L 539.5,174.0 L 531.0,169.5 L 521.5,168.0 L 512.0,170.5 L 501.0,172.5 L 491.0,173.5 L 483.0,168.5 L 473.0,167.5 L 467.5,175.0 L 467.5,184.0 L 472.0,192.5 L 473.5,200.0 L 476.5,210.0 L 476.5,221.0 L 478.5,230.0 L 476.5,239.0 L 477.5,249.0 L 475.0,243.5 L 473.0,232.5 L 471.5,223.0 L 471.5,214.0 L 468.5,204.0 L 464.0,195.5 L 456.0,196.5 L 453.0,201.5 L 451.0,202.5 L 447.5,194.0 L 445.0,185.5 L 437.5,189.0 L 443.5,196.0 L 436.0,197.5 L 435.5,191.0 L 429.5,184.0 L 423.5,190.0 L 419.0,196.5 L 421.5,193.0 L 417.0,188.5 L 411.0,181.5 L 406.0,173.5 L 400.5,179.0 L 398.0,179.5 L 396.5,172.0 L 393.0,162.5 L 389.0,155.5 L 383.0,153.5 L 382.0,146.5 L 375.5,143.0 L 375.5,152.0 L 376.5,162.0 L 379.5,168.0 L 383.0,173.5 L 383.5,182.0 L 383.0,191.5 L 384.5,199.0 L 380.5,197.0 L 376.0,196.5 L 372.0,187.5 L 370.5,180.0 L 370.5,171.0 L 370.0,162.5 L 368.5,153.0 L 367.5,145.0 L 364.0,135.5 L 357.5,129.0 L 355.5,120.0 L 355.5,111.0 L 354.5,103.0 L 353.5,97.0 L 361.0,99.5 L 369.0,104.5 L 377.0,107.5 L 388.0,107.5 L 399.0,105.5 L 410.0,103.5 L 421.0,101.5 L 431.0,98.5 L 442.0,98.5 L 453.0,100.5 L 464.0,98.5 L 476.0,97.5 L 488.0,96.5 L 498.0,93.5 L 508.0,90.5 L 520.0,89.5 L 532.0,90.5 L 543.0,90.5 L 554.0,92.5 L 566.0,93.5 L 576.5,94.0 L 586.0,95.5 L 596.0,96.5 L 606.0,99.5 L 615.5,103.0 Z" />
    <path d="M 0.0,122.5 L 11.0,123.5 L 22.0,126.5 L 30.0,122.5 L 40.0,118.5 L 51.0,117.5 L 63.0,115.5 L 71.5,111.0 L 82.0,108.5 L 93.0,105.5 L 103.0,101.5 L 115.0,101.5 L 124.0,106.5 L 134.0,108.5 L 147.0,107.5 L 159.0,105.5 L 173.0,105.5 L 185.0,105.5 L 198.0,104.5 L 211.0,105.5 L 225.0,105.5 L 236.0,104.5 L 243.0,102.5 L 249.0,107.5 L 252.0,110.5 L 247.5,119.0 L 246.5,128.0 L 245.5,137.0 L 243.0,146.5 L 244.0,154.5 L 240.5,164.0 L 238.0,172.5 L 242.0,180.5 L 242.5,190.0 L 246.5,200.0 L 252.5,208.0 L 256.0,216.5 L 259.5,227.0 L 266.0,233.5 L 268.0,241.5 L 261.0,236.5 L 253.5,243.0 L 251.5,253.0 L 252.5,264.0 L 253.5,273.0 L 256.0,284.5 L 257.5,295.0 L 259.5,307.0 L 261.5,317.0 L 263.0,326.5 L 266.0,334.5 L 268.5,344.0 L 272.0,352.5 L 278.0,360.5 L 283.5,369.0 L 285.0,379.5 L 289.5,387.0 L 293.5,397.0 L 291.5,407.0 L 296.0,414.5 L 306.0,412.5 L 311.5,417.0 L 318.5,415.0 L 326.0,414.5 L 335.0,415.5 L 344.0,414.5 L 352.0,410.5 L 359.5,406.0 L 360.5,395.0 L 359.5,384.0 L 360.5,373.0 L 364.5,365.0 L 368.5,357.0 L 372.0,348.5 L 376.5,341.0 L 382.0,332.5 L 385.5,331.0 L 388.0,340.5 L 392.5,350.0 L 393.0,360.5 L 395.0,371.5 L 395.0,381.5 L 396.0,390.5 L 399.0,399.5 L 402.5,408.0 L 408.0,416.5 L 416.0,418.5 L 424.5,415.0 L 432.0,418.5 L 440.5,421.0 L 448.0,416.5 L 455.5,410.0 L 459.0,411.5 L 468.0,414.5 L 476.0,412.5 L 484.5,409.0 L 492.0,406.5 L 498.5,414.0 L 507.0,415.5 L 516.5,413.0 L 522.0,416.5 L 519.0,424.5 L 526.0,430.5 L 534.0,434.5 L 540.0,430.5 L 546.0,436.5 L 539.0,438.5 Z" />
    <path d="M 0.0,254.5 L 7.5,254.0 L 14.0,252.5 L 21.0,253.5 L 28.0,252.5 L 36.0,252.5 L 43.0,251.5 L 50.0,250.5 L 57.0,251.5 L 63.5,251.0 L 70.0,250.5 L 75.0,247.5 L 80.0,244.5 L 83.0,239.5 L 84.5,233.0 L 86.5,229.0 L 89.5,224.0 L 94.0,220.5 L 97.5,216.0 L 96.0,211.5 L 93.5,206.0 L 96.5,201.0 L 101.0,197.5 L 104.5,202.0 L 109.0,205.5 L 112.5,208.0 L 113.5,215.0 L 111.5,221.0 L 107.5,225.0 L 105.0,230.5 L 103.0,236.5 L 102.5,242.0 L 103.0,247.5 L 109.0,249.5 L 115.5,248.0 L 121.5,246.0 L 127.0,243.5 L 133.0,241.5 L 139.5,240.0 L 145.0,237.5 L 149.0,233.5 L 155.0,231.5 L 160.0,228.5 L 167.0,229.5 L 172.0,232.5 L 177.0,235.5 L 184.5,235.0 L 189.0,231.5 L 193.0,229.5 L 196.5,225.0 L 195.0,220.5 L 190.0,217.5 L 186.5,213.0 L 184.0,207.5 L 180.5,203.0 L 177.5,198.0 L 176.5,191.0 L 176.5,185.0 L 175.5,178.0 L 178.0,172.5 L 183.0,169.5 L 189.0,171.5 L 195.0,171.5 L 201.0,171.5 L 205.0,167.5 L 209.0,163.5 L 211.5,158.0 L 208.0,153.5 L 202.0,151.5 L 196.0,151.5 L 190.0,149.5 L 184.0,149.5 L 177.5,150.0 L 171.0,148.5 L 165.5,146.0 L 158.0,145.5 L 152.0,143.5 L 144.0,143.5 L 138.5,141.0 L 133.5,138.0 L 128.0,135.5 L 123.0,132.5 L 117.0,130.5 L 109.0,130.5 L 104.0,127.5 L 99.0,126.5 L 94.0,127.5 L 87.0,128.5 L 82.0,131.5 L 77.0,134.5 L 74.0,139.5 L 70.5,144.0 L 68.0,149.5 L 65.5,155.0 L 61.0,158.5 L 55.0,160.5 L 48.0,159.5 L 42.5,160.0 L 39.5,165.0 L 35.0,166.5 L 30.0,165.5 L 26.0,163.5 L 23.5,158.0 L 22.5,151.0 L 18.0,147.5 L 11.0,148.5 L 5.5,146.0 Z" />
    <path d="M 282.0,184.5 L 281.0,183.5 L 279.0,183.5 L 278.0,182.5 L 277.0,181.5 L 276.5,180.0 L 275.5,179.0 L 274.0,178.5 L 273.0,177.5 L 272.0,178.5 L 270.5,179.0 L 269.5,179.0 L 269.5,177.0 L 271.0,176.5 L 271.5,175.0 L 272.5,174.0 L 272.5,172.0 L 273.5,171.0 L 273.0,169.5 L 272.5,168.0 L 271.5,167.0 L 271.5,165.0 L 272.5,164.0 L 272.5,162.0 L 272.5,160.0 L 273.5,159.0 L 273.5,157.0 L 274.5,156.0 L 274.5,154.0 L 275.0,152.5 L 275.5,151.0 L 275.5,149.0 L 276.0,147.5 L 276.5,146.0 L 277.0,144.5 L 277.5,143.0 L 278.5,142.0 L 278.5,140.0 L 279.5,139.0 L 280.0,137.5 L 281.0,136.5 L 282.0,135.5 L 282.5,134.0 L 283.5,133.0 L 284.0,131.5 L 285.5,131.0 L 287.0,130.5 L 288.0,129.5 L 288.5,128.0 L 290.0,127.5 L 291.0,128.5 L 292.5,129.0 L 293.5,129.0 L 294.5,129.0 L 295.0,130.5 L 296.5,131.0 L 298.0,131.5 L 300.0,131.5 L 300.5,133.0 L 301.5,134.0 L 302.5,135.0 L 302.5,137.0 L 303.5,138.0 L 304.0,139.5 L 305.0,140.5 L 306.5,141.0 L 307.0,142.5 L 307.0,143.5 L 306.5,145.0 L 305.5,146.0 L 306.5,147.0 L 307.0,148.5 L 307.5,150.0 L 306.0,150.5 L 305.0,151.5 L 304.5,153.0 L 303.5,154.0 L 303.5,156.0 L 302.5,157.0 L 301.0,157.5 L 300.0,156.5 L 299.0,155.5 L 297.5,155.0 L 296.5,155.0 L 295.0,155.5 L 294.0,156.5 L 293.0,157.5 L 292.0,158.5 L 291.0,157.5 L 289.0,157.5 L 287.5,158.0 L 286.0,158.5 L 284.0,158.5 L 282.0,158.5 L 281.0,159.5 L 279.5,160.0 L 278.5,161.0 L 277.5,162.0 L 277.0,163.5 L 276.5,165.0 L 277.5,166.0 L 277.5,168.0 L 278.5,169.0 L 278.5,171.0 L 279.5,172.0 L 279.5,174.0 L 279.5,176.0 L 280.0,177.5 L 280.5,179.0 L 281.5,180.0 L 283.0,180.5 L 283.5,182.0 L 283.0,183.5 L 282.0,184.5 Z" />
    <path d="M 15.0,209.5 L 14.0,209.5 L 13.0,209.5 L 12.0,209.5 L 11.5,209.0 L 11.5,208.0 L 12.0,207.5 L 12.5,207.0 L 12.5,206.0 L 12.0,205.5 L 11.5,205.0 L 11.5,204.0 L 11.0,203.5 L 10.5,203.0 L 10.5,202.0 L 10.5,201.0 L 10.0,200.5 L 9.5,200.0 L 9.5,199.0 L 9.0,198.5 L 8.5,198.0 L 8.0,197.5 L 7.5,197.0 L 7.5,196.0 L 7.0,195.5 L 6.5,195.0 L 6.5,194.0 L 6.5,193.0 L 6.5,192.0 L 7.0,191.5 L 7.5,191.0 L 7.5,190.0 L 8.0,189.5 L 9.0,189.5 L 9.5,189.0 L 10.0,188.5 L 11.0,188.5 L 11.5,188.0 L 12.0,187.5 L 13.0,187.5 L 13.5,188.0 L 14.0,188.5 L 14.5,188.0 L 15.0,187.5 L 16.0,187.5 L 16.5,187.0 L 16.5,186.0 L 17.0,185.5 L 17.5,185.0 L 17.5,184.0 L 18.0,183.5 L 18.5,184.0 L 18.5,185.0 L 18.5,186.0 L 18.5,187.0 L 18.5,188.0 L 18.5,189.0 L 19.0,189.5 L 19.5,190.0 L 19.5,191.0 L 20.0,191.5 L 20.5,192.0 L 20.5,193.0 L 21.0,193.5 L 21.5,194.0 L 21.0,194.5 L 20.5,195.0 L 20.5,196.0 L 20.5,197.0 L 20.5,198.0 L 20.5,199.0 L 20.0,199.5 L 19.0,199.5 L 18.5,200.0 L 18.0,200.5 L 17.5,201.0 L 17.5,202.0 L 17.0,202.5 L 16.5,203.0 L 16.5,204.0 L 16.5,205.0 L 16.0,205.5 L 15.5,206.0 L 15.5,207.0 L 15.5,208.0 L 15.5,209.0 L 15.0,209.5 Z" />
    <path d="M 601.0,245.5 L 600.0,245.5 L 599.5,245.0 L 599.0,244.5 L 598.0,244.5 L 597.0,244.5 L 596.5,245.0 L 596.0,245.5 L 595.0,245.5 L 594.0,245.5 L 593.0,245.5 L 592.0,245.5 L 591.0,245.5 L 590.0,245.5 L 589.0,245.5 L 588.0,245.5 L 587.0,245.5 L 586.0,245.5 L 585.0,245.5 L 584.0,245.5 L 583.5,245.0 L 583.5,244.0 L 583.0,243.5 L 582.5,243.0 L 582.0,242.5 L 581.0,242.5 L 580.5,242.0 L 580.5,241.0 L 580.0,240.5 L 579.0,240.5 L 578.5,240.0 L 579.0,239.5 L 580.0,239.5 L 580.5,239.0 L 580.5,238.0 L 581.0,237.5 L 581.5,237.0 L 581.5,236.0 L 582.0,235.5 L 582.5,235.0 L 582.5,234.0 L 582.5,233.0 L 582.5,232.0 L 583.0,231.5 L 583.5,231.0 L 583.5,230.0 L 583.0,229.5 L 582.5,229.0 L 582.5,228.0 L 583.0,227.5 L 583.5,227.0 L 583.5,226.0 L 583.0,225.5 L 582.5,225.0 L 582.5,224.0 L 582.0,223.5 L 581.0,223.5 L 580.5,223.0 L 581.0,222.5 L 581.5,222.0 L 582.0,221.5 L 582.5,221.0 L 583.0,220.5 L 583.5,220.0 L 583.5,219.0 L 584.0,218.5 L 585.0,218.5 L 586.0,218.5 L 587.0,218.5 L 588.0,218.5 L 589.0,218.5 L 590.0,218.5 L 591.0,218.5 L 591.5,218.0 L 592.0,217.5 L 593.0,217.5 L 594.0,217.5 L 595.0,217.5 L 596.0,217.5 L 597.0,217.5 L 598.0,217.5 L 599.0,217.5 L 599.5,218.0 L 600.0,218.5 L 600.5,219.0 L 601.0,219.5 L 602.0,219.5 L 602.5,220.0 L 603.0,220.5 L 604.0,220.5 L 604.5,221.0 L 605.0,221.5 L 606.0,221.5 L 607.0,221.5 L 607.5,222.0 L 608.0,222.5 L 609.0,222.5 L 610.0,222.5 L 610.5,222.0 L 611.0,221.5 L 611.5,222.0 L 612.0,222.5 L 612.5,223.0 L 612.5,224.0 L 613.0,224.5 L 613.5,225.0 L 614.0,225.5 L 614.5,226.0 L 615.0,226.5 L 615.5,227.0 L 615.5,228.0 L 615.5,229.0 L 615.5,230.0 L 615.5,231.0 L 615.5,232.0 L 615.0,232.5 L 614.5,233.0 L 614.0,233.5 L 613.5,234.0 L 613.5,235.0 L 613.0,235.5 L 612.5,236.0 L 612.5,237.0 L 612.0,237.5 L 611.5,238.0 L 611.5,239.0 L 611.0,239.5 L 610.0,239.5 L 609.5,240.0 L 609.5,241.0 L 609.0,241.5 L 608.5,242.0 L 608.0,242.5 L 607.0,242.5 L 606.5,243.0 L 606.0,243.5 L 605.0,243.5 L 604.5,244.0 L 604.0,244.5 L 603.0,244.5 L 602.0,244.5 L 601.5,245.0 L 601.0,245.5 Z" />
    <path d="M 551.5,442.0 L 549.5,437.0 L 554.0,434.5 L 559.0,434.5 L 563.0,435.5 L 568.0,433.5 L 571.5,431.0 L 576.0,429.5 L 577.0,430.5 L 574.0,434.5 L 576.5,438.0 L 581.0,438.5 L 585.5,436.0 L 588.5,432.0 L 589.0,427.5 L 591.5,423.0 L 588.0,419.5 L 582.0,420.5 L 577.5,420.0 L 581.5,417.0 L 584.5,414.0 L 589.0,412.5 L 591.5,408.0 L 591.0,403.5 L 586.0,403.5 L 580.0,404.5 L 576.5,408.0 L 574.0,412.5 L 573.0,417.5 L 570.5,418.0 L 570.5,413.0 L 570.0,407.5 L 572.5,403.0 L 569.0,399.5 L 564.5,400.0 L 560.0,402.5 L 553.0,402.5 L 546.0,402.5 L 540.0,401.5 L 533.0,401.5 L 527.0,402.5 L 522.0,402.5 L 515.0,402.5 L 510.0,400.5 L 504.0,399.5 L 499.0,401.5 L 493.5,403.0 L 491.0,403.5 L 488.5,399.0 L 484.0,396.5 L 478.0,397.5 L 474.0,394.5 L 469.0,396.5 L 465.0,399.5 L 460.5,400.0 L 456.5,402.0 L 454.0,397.5 L 455.0,392.5 L 456.0,388.5 L 458.0,384.5 L 457.5,381.0 L 461.0,378.5 L 462.5,373.0 L 461.5,367.0 L 464.5,363.0 L 464.5,358.0 L 463.0,352.5 L 465.5,349.0 L 465.5,344.0 L 466.0,339.5 L 468.0,334.5 L 467.0,329.5 L 468.5,325.0 L 468.5,320.0 L 467.0,315.5 L 469.5,311.0 L 467.5,306.0 L 470.5,302.0 L 471.0,296.5 L 472.0,291.5 L 471.5,286.0 L 473.0,281.5 L 472.0,276.5 L 473.5,271.0 L 473.0,265.5 L 474.0,261.5 L 475.5,256.0 L 478.0,259.5 L 482.0,262.5 L 487.5,261.0 L 492.5,259.0 L 498.0,257.5 L 503.0,255.5 L 510.0,255.5 L 517.0,255.5 L 521.0,258.5 L 526.5,259.0 L 533.0,258.5 L 538.5,257.0 L 544.0,255.5 L 551.0,255.5 L 557.0,254.5 L 563.0,255.5 L 569.0,254.5 L 575.0,253.5 L 580.0,255.5 L 585.0,257.5 L 589.0,254.5 L 595.0,253.5 L 600.0,253.5 L 607.0,253.5 L 614.0,253.5 Z" />
    <path d="M 598.5,373.0 L 599.0,372.5 L 600.0,372.5 L 600.5,372.0 L 601.0,371.5 L 602.0,371.5 L 602.5,371.0 L 603.0,370.5 L 603.5,370.0 L 603.5,369.0 L 604.0,368.5 L 604.5,368.0 L 604.5,367.0 L 605.0,366.5 L 605.5,366.0 L 605.5,365.0 L 605.0,364.5 L 604.5,364.0 L 604.5,363.0 L 604.0,362.5 L 603.0,362.5 L 602.5,362.0 L 602.0,361.5 L 601.0,361.5 L 600.5,362.0 L 600.0,362.5 L 599.0,362.5 L 598.0,362.5 L 597.0,362.5 L 596.0,362.5 L 595.0,362.5 L 594.0,362.5 L 593.0,362.5 L 592.0,362.5 L 591.5,363.0 L 591.0,363.5 L 590.0,363.5 L 589.5,364.0 L 589.5,365.0 L 589.0,365.5 L 588.5,366.0 L 588.5,367.0 L 588.5,368.0 L 589.0,368.5 L 589.5,369.0 L 589.5,370.0 L 590.0,370.5 L 591.0,370.5 L 591.5,371.0 L 591.5,372.0 L 592.0,372.5 L 593.0,372.5 L 593.5,373.0 L 594.0,373.5 L 595.0,373.5 L 596.0,373.5 L 597.0,373.5 L 598.0,373.5 L 598.5,373.0 Z" />
    <path d="M 619.0,401.5 L 618.0,401.5 L 617.0,401.5 L 616.0,401.5 L 615.0,401.5 L 614.0,401.5 L 613.0,401.5 L 612.0,401.5 L 611.0,401.5 L 610.0,401.5 L 609.0,401.5 L 608.0,401.5 L 607.0,401.5 L 606.5,402.0 L 606.0,402.5 L 605.0,402.5 L 604.5,403.0 L 604.5,404.0 L 604.0,404.5 L 603.5,405.0 L 603.5,406.0 L 603.5,407.0 L 603.5,408.0 L 603.0,408.5 L 602.5,409.0 L 602.0,409.5 L 601.5,410.0 L 601.5,411.0 L 601.0,411.5 L 600.5,411.0 L 600.0,410.5 L 599.5,411.0 L 599.0,411.5 L 598.0,411.5 L 597.5,412.0 L 597.5,413.0 L 597.0,413.5 L 596.5,414.0 L 597.0,414.5 L 597.5,415.0 L 597.5,416.0 L 598.0,416.5 L 599.0,416.5 L 599.5,417.0 L 600.0,417.5 L 600.5,417.0 L 601.0,416.5 L 602.0,416.5 L 602.5,416.0 L 602.5,415.0 L 603.0,414.5 L 603.5,415.0 L 604.0,415.5 L 605.0,415.5 L 606.0,415.5 L 607.0,415.5 L 607.5,415.0 L 608.0,414.5 L 608.5,415.0 L 609.0,415.5 L 610.0,415.5 L 611.0,415.5 L 612.0,415.5 L 612.5,415.0 L 613.0,414.5 L 613.5,415.0 L 614.0,415.5 L 614.5,416.0 L 615.0,416.5 L 615.5,417.0 L 615.5,418.0 L 616.0,418.5 L 617.0,418.5 L 617.5,419.0 L 617.0,419.5 L 616.5,420.0 L 616.0,420.5 L 615.0,420.5 L 614.5,421.0 L 614.0,421.5 L 613.5,422.0 L 613.5,423.0 L 613.0,423.5 L 612.5,424.0 L 612.5,425.0 L 612.5,426.0 L 612.0,426.5 L 611.5,427.0 L 611.5,428.0 L 612.0,428.5 L 612.5,429.0 L 612.5,430.0 L 612.0,430.5 L 611.5,431.0 L 611.0,431.5 L 610.0,431.5 L 609.5,432.0 L 609.0,432.5 L 608.0,432.5 L 607.5,433.0 L 607.5,434.0 L 607.0,434.5 L 606.5,435.0 L 607.0,435.5 L 607.5,436.0 L 607.5,437.0 L 608.0,437.5 L 608.5,438.0 L 609.0,438.5 L 610.0,438.5 L 610.5,439.0 L 611.0,439.5 L 611.5,439.0 L 612.0,438.5 L 612.5,439.0 L 613.0,439.5 L 613.5,440.0 L 613.0,440.5 L 612.5,441.0 L 612.5,442.0 Z" />
    <path d="M 27.5,423.0 L 28.0,422.5 L 29.0,422.5 L 29.5,422.0 L 30.0,421.5 L 31.0,421.5 L 31.5,421.0 L 32.0,420.5 L 32.5,421.0 L 33.0,421.5 L 34.0,421.5 L 35.0,421.5 L 36.0,421.5 L 36.5,421.0 L 37.0,420.5 L 38.0,420.5 L 38.5,421.0 L 39.0,421.5 L 40.0,421.5 L 40.5,422.0 L 41.0,422.5 L 41.5,422.0 L 42.0,421.5 L 43.0,421.5 L 44.0,421.5 L 45.0,421.5 L 46.0,421.5 L 47.0,421.5 L 47.5,421.0 L 48.0,420.5 L 49.0,420.5 L 49.5,420.0 L 49.5,419.0 L 50.0,418.5 L 50.5,418.0 L 50.0,417.5 L 49.5,417.0 L 49.5,416.0 L 49.0,415.5 L 48.0,415.5 L 47.5,415.0 L 47.0,414.5 L 46.0,414.5 L 45.0,414.5 L 44.0,414.5 L 43.5,414.0 L 43.0,413.5 L 42.0,413.5 L 41.5,413.0 L 41.5,412.0 L 41.0,411.5 L 40.5,411.0 L 40.0,410.5 L 39.0,410.5 L 38.5,410.0 L 38.0,409.5 L 37.0,409.5 L 36.0,409.5 L 35.5,410.0 L 35.0,410.5 L 34.0,410.5 L 33.5,411.0 L 33.0,411.5 L 32.5,412.0 L 32.0,412.5 L 31.5,413.0 L 31.0,413.5 L 30.5,414.0 L 30.5,415.0 L 30.0,415.5 L 29.0,415.5 L 28.5,415.0 L 28.0,414.5 L 27.0,414.5 L 26.5,415.0 L 26.0,415.5 L 25.5,415.0 L 25.0,414.5 L 24.0,414.5 L 23.5,414.0 L 23.0,413.5 L 22.0,413.5 L 21.5,414.0 L 21.0,414.5 L 20.0,414.5 L 19.5,415.0 L 19.5,416.0 L 19.0,416.5 L 18.5,417.0 L 19.0,417.5 L 19.5,418.0 L 19.5,419.0 L 20.0,419.5 L 21.0,419.5 L 21.5,420.0 L 22.0,420.5 L 23.0,420.5 L 24.0,420.5 L 24.5,421.0 L 24.5,422.0 L 25.0,422.5 L 26.0,422.5 L 26.5,423.0 L 27.0,423.5 L 27.5,423.0 Z" />
    <path d="M 144.5,442.0 L 146.0,441.5 L 146.5,440.0 L 147.5,439.0 L 147.0,437.5 L 146.5,436.0 L 145.0,435.5 L 145.0,434.5 L 146.0,433.5 L 147.5,433.0 L 148.0,431.5 L 149.5,432.0 L 150.5,433.0 L 152.0,433.5 L 153.0,434.5 L 154.0,435.5 L 155.0,436.5 L 156.5,437.0 L 158.0,437.5 L 159.0,438.5 L 161.0,438.5 L 163.0,438.5 L 164.0,437.5 L 166.0,437.5 L 168.0,437.5 L 169.5,437.0 L 171.0,436.5 L 172.0,435.5 L 172.5,434.0 L 173.5,433.0 L 172.5,432.0 L 172.0,430.5 L 170.5,430.0 L 169.5,430.0 L 168.0,430.5 L 167.5,429.0 L 167.5,427.0 L 168.5,426.0 L 167.5,425.0 L 167.0,423.5 L 165.5,423.0 L 164.5,423.0 L 163.0,423.5 L 162.5,425.0 L 161.5,426.0 L 162.5,427.0 L 162.0,428.5 L 161.0,429.5 L 160.0,428.5 L 159.5,427.0 L 160.0,425.5 L 160.0,424.5 L 159.5,423.0 L 158.5,422.0 L 157.0,421.5 L 156.0,420.5 L 155.0,421.5 L 153.5,422.0 L 152.5,423.0 L 152.0,424.5 L 151.0,425.5 L 149.5,425.0 L 148.5,424.0 L 149.0,422.5 L 149.0,421.5 L 148.5,420.0 L 147.5,419.0 L 147.0,417.5 L 146.0,416.5 L 144.5,416.0 L 143.5,416.0 L 142.0,416.5 L 141.0,417.5 L 139.5,418.0 L 138.5,419.0 L 138.0,420.5 L 137.5,419.0 L 136.0,418.5 L 136.0,417.5 L 137.5,417.0 L 138.5,416.0 L 139.0,414.5 L 139.0,413.5 L 138.5,412.0 L 137.0,411.5 L 136.0,410.5 L 135.0,411.5 L 133.5,412.0 L 132.0,412.5 L 131.0,413.5 L 130.0,414.5 L 129.5,416.0 L 128.0,416.5 L 127.0,417.5 L 126.0,418.5 L 125.0,419.5 L 123.5,420.0 L 122.5,421.0 L 121.5,422.0 L 121.0,423.5 L 120.5,425.0 L 121.5,426.0 L 122.0,427.5 L 123.5,428.0 L 124.5,429.0 L 124.5,431.0 L 123.0,431.5 L 121.0,431.5 L 119.5,432.0 L 118.0,432.5 L 117.0,431.5 L 115.5,431.0 L 114.5,431.0 L 113.0,431.5 L 112.0,432.5 L 111.5,434.0 L 110.5,435.0 L 110.5,437.0 L 110.0,438.5 L 109.5,440.0 L 110.0,441.5 Z" />
    <path d="M 532.0,422.5 L 531.0,422.5 L 530.5,422.0 L 530.5,421.0 L 530.0,420.5 L 529.5,420.0 L 529.5,419.0 L 529.0,418.5 L 528.0,418.5 L 527.5,418.0 L 527.0,417.5 L 526.0,417.5 L 525.5,417.0 L 526.0,416.5 L 527.0,416.5 L 527.5,416.0 L 527.5,415.0 L 528.0,414.5 L 529.0,414.5 L 530.0,414.5 L 530.5,415.0 L 531.0,415.5 L 531.5,415.0 L 532.0,414.5 L 533.0,414.5 L 534.0,414.5 L 535.0,414.5 L 535.5,415.0 L 536.0,415.5 L 536.5,415.0 L 537.0,414.5 L 538.0,414.5 L 539.0,414.5 L 539.5,415.0 L 540.0,415.5 L 541.0,415.5 L 541.5,416.0 L 542.0,416.5 L 543.0,416.5 L 544.0,416.5 L 545.0,416.5 L 545.5,416.0 L 546.0,415.5 L 546.5,416.0 L 547.0,416.5 L 547.5,416.0 L 548.0,415.5 L 549.0,415.5 L 549.5,415.0 L 550.0,414.5 L 551.0,414.5 L 551.5,414.0 L 552.0,413.5 L 553.0,413.5 L 554.0,413.5 L 555.0,413.5 L 556.0,413.5 L 556.5,414.0 L 557.0,414.5 L 557.5,415.0 L 557.5,416.0 L 557.5,417.0 L 557.0,417.5 L 556.0,417.5 L 555.5,417.0 L 555.0,416.5 L 554.0,416.5 L 553.0,416.5 L 552.5,417.0 L 552.0,417.5 L 551.0,417.5 L 550.5,418.0 L 550.0,418.5 L 549.0,418.5 L 548.0,418.5 L 547.0,418.5 L 546.0,418.5 L 545.5,419.0 L 545.0,419.5 L 544.0,419.5 L 543.5,420.0 L 543.0,420.5 L 542.0,420.5 L 541.0,420.5 L 540.5,421.0 L 540.0,421.5 L 539.0,421.5 L 538.0,421.5 L 537.0,421.5 L 536.0,421.5 L 535.0,421.5 L 534.0,421.5 L 533.0,421.5 L 532.5,422.0 L 532.0,422.5 Z" />
    <path d="M 239.5,428.0 L 240.0,427.5 L 241.0,427.5 L 241.5,427.0 L 241.5,426.0 L 242.0,425.5 L 242.5,425.0 L 242.5,424.0 L 243.0,423.5 L 243.5,423.0 L 243.0,422.5 L 242.5,422.0 L 242.5,421.0 L 242.0,420.5 L 241.0,420.5 L 240.5,420.0 L 240.0,419.5 L 239.0,419.5 L 238.0,419.5 L 237.0,419.5 L 236.0,419.5 L 235.5,419.0 L 235.5,418.0 L 235.0,417.5 L 234.0,417.5 L 233.5,417.0 L 233.0,416.5 L 232.0,416.5 L 231.5,417.0 L 231.0,417.5 L 230.0,417.5 L 229.0,417.5 L 228.5,417.0 L 228.0,416.5 L 227.0,416.5 L 226.5,416.0 L 226.0,415.5 L 225.0,415.5 L 224.0,415.5 L 223.5,416.0 L 223.0,416.5 L 222.0,416.5 L 221.0,416.5 L 220.5,417.0 L 220.0,417.5 L 219.0,417.5 L 218.5,418.0 L 218.0,418.5 L 217.0,418.5 L 216.5,419.0 L 216.0,419.5 L 215.0,419.5 L 214.5,420.0 L 214.0,420.5 L 213.5,421.0 L 213.5,422.0 L 213.0,422.5 L 212.5,423.0 L 212.5,424.0 L 213.0,424.5 L 213.5,425.0 L 213.5,426.0 L 214.0,426.5 L 215.0,426.5 L 215.5,427.0 L 216.0,427.5 L 217.0,427.5 L 217.5,427.0 L 218.0,426.5 L 219.0,426.5 L 219.5,426.0 L 220.0,425.5 L 220.5,426.0 L 221.0,426.5 L 222.0,426.5 L 223.0,426.5 L 224.0,426.5 L 224.5,426.0 L 225.0,425.5 L 226.0,425.5 L 227.0,425.5 L 227.5,426.0 L 227.5,427.0 L 228.0,427.5 L 229.0,427.5 L 229.5,428.0 L 230.0,428.5 L 231.0,428.5 L 231.5,428.0 L 232.0,427.5 L 233.0,427.5 L 233.5,427.0 L 234.0,426.5 L 235.0,426.5 L 236.0,426.5 L 236.5,427.0 L 237.0,427.5 L 238.0,427.5 L 238.5,428.0 L 239.0,428.5 L 239.5,428.0 Z" />
    <path d="M 0.0,438.5 L 0.5,439.0 L 1.0,439.5 L 2.0,439.5 L 2.5,440.0 L 3.0,440.5 L 4.0,440.5 L 4.5,440.0 L 5.0,439.5 L 6.0,439.5 L 6.5,439.0 L 7.0,438.5 L 7.5,438.0 L 7.5,437.0 L 8.0,436.5 L 8.5,436.0 L 9.0,435.5 L 10.0,435.5 L 11.0,435.5 L 11.5,436.0 L 12.0,436.5 L 13.0,436.5 L 13.5,436.0 L 14.0,435.5 L 15.0,435.5 L 15.5,435.0 L 15.5,434.0 L 16.0,433.5 L 17.0,433.5 L 18.0,433.5 L 18.5,434.0 L 19.0,434.5 L 19.5,435.0 L 20.0,435.5 L 21.0,435.5 L 21.5,436.0 L 22.0,436.5 L 23.0,436.5 L 23.5,436.0 L 24.0,435.5 L 25.0,435.5 L 25.5,436.0 L 26.0,436.5 L 26.5,437.0 L 27.0,437.5 L 28.0,437.5 L 28.5,438.0 L 29.0,438.5 L 30.0,438.5 L 31.0,438.5 L 31.5,439.0 L 32.0,439.5 L 33.0,439.5 L 34.0,439.5 L 35.0,439.5 L 36.0,439.5 L 37.0,439.5 L 37.5,439.0 L 38.0,438.5 L 39.0,438.5 L 39.5,438.0 L 40.0,437.5 L 41.0,437.5 L 41.5,437.0 L 41.5,436.0 L 42.0,435.5 L 42.5,436.0 L 43.0,436.5 L 44.0,436.5 L 45.0,436.5 L 45.5,436.0 L 46.0,435.5 L 47.0,435.5 L 47.5,435.0 L 47.5,434.0 L 48.0,433.5 L 48.5,433.0 L 48.5,432.0 L 48.0,431.5 L 47.5,431.0 L 47.5,430.0 L 47.0,429.5 L 46.5,429.0 L 46.0,428.5 L 45.0,428.5 L 44.5,428.0 L 44.0,427.5 L 43.0,427.5 L 42.0,427.5 L 41.0,427.5 L 40.5,428.0 L 40.0,428.5 L 39.5,428.0 L 39.0,427.5 L 38.0,427.5 L 37.0,427.5 L 36.0,427.5 L 35.5,428.0 L 35.0,428.5 L 34.0,428.5 L 33.5,428.0 L 33.0,427.5 L 32.0,427.5 L 31.5,427.0 L 31.0,426.5 L 30.0,426.5 L 29.0,426.5 L 28.5,426.0 L 28.0,425.5 L 27.5,425.0 L 27.0,424.5 L 26.0,424.5 L 25.5,424.0 L 25.0,423.5 L 24.5,424.0 L 24.0,424.5 L 23.0,424.5 L 22.0,424.5 L 21.0,424.5 L 20.5,424.0 L 20.0,423.5 L 19.5,423.0 L 19.5,422.0 L 19.0,421.5 L 18.5,421.0 L 18.5,420.0 L 18.0,419.5 L 17.0,419.5 L 16.5,419.0 L 16.0,418.5 L 15.0,418.5 L 14.5,419.0 L 14.0,419.5 L 13.0,419.5 L 12.5,420.0 L 12.0,420.5 L 11.0,420.5 L 10.5,420.0 L 10.0,419.5 L 9.5,419.0 L 9.0,418.5 L 8.0,418.5 L 7.5,418.0 L 7.0,417.5 L 6.5,418.0 L 6.0,418.5 L 5.0,418.5 L 4.5,419.0 L 4.0,419.5 L 3.5,420.0 L 3.0,420.5 L 2.5,420.0 L 2.0,419.5 L 1.0,419.5 L 0.0,419.5 Z" />
    <path d="M 66.5,431.0 L 67.0,430.5 L 68.0,430.5 L 68.5,430.0 L 69.0,429.5 L 69.5,429.0 L 69.5,428.0 L 70.0,427.5 L 71.0,427.5 L 72.0,427.5 L 72.5,428.0 L 73.0,428.5 L 74.0,428.5 L 74.5,429.0 L 75.0,429.5 L 76.0,429.5 L 77.0,429.5 L 78.0,429.5 L 78.5,429.0 L 79.0,428.5 L 80.0,428.5 L 80.5,428.0 L 80.5,427.0 L 81.0,426.5 L 81.5,426.0 L 81.0,425.5 L 80.5,425.0 L 80.5,424.0 L 80.0,423.5 L 79.0,423.5 L 78.5,423.0 L 78.0,422.5 L 77.0,422.5 L 76.0,422.5 L 75.5,422.0 L 75.0,421.5 L 74.0,421.5 L 73.5,421.0 L 73.0,420.5 L 72.0,420.5 L 71.0,420.5 L 70.5,421.0 L 70.0,421.5 L 69.0,421.5 L 68.5,421.0 L 68.0,420.5 L 67.5,421.0 L 67.0,421.5 L 66.5,421.0 L 66.0,420.5 L 65.0,420.5 L 64.0,420.5 L 63.0,420.5 L 62.5,420.0 L 62.0,419.5 L 61.0,419.5 L 60.5,419.0 L 60.0,418.5 L 59.5,419.0 L 59.0,419.5 L 58.0,419.5 L 57.5,420.0 L 57.5,421.0 L 57.0,421.5 L 56.5,422.0 L 56.5,423.0 L 56.5,424.0 L 57.0,424.5 L 57.5,425.0 L 57.5,426.0 L 58.0,426.5 L 59.0,426.5 L 59.5,427.0 L 60.0,427.5 L 60.5,428.0 L 61.0,428.5 L 62.0,428.5 L 62.5,429.0 L 63.0,429.5 L 63.5,430.0 L 64.0,430.5 L 65.0,430.5 L 65.5,431.0 L 66.0,431.5 L 66.5,431.0 Z" />
    <path d="M 100.5,436.0 L 101.0,435.5 L 102.0,435.5 L 102.5,435.0 L 102.5,434.0 L 103.0,433.5 L 103.5,433.0 L 103.5,432.0 L 103.0,431.5 L 102.5,431.0 L 102.5,430.0 L 102.0,429.5 L 101.0,429.5 L 100.5,429.0 L 100.5,428.0 L 101.0,427.5 L 101.5,428.0 L 102.0,428.5 L 103.0,428.5 L 103.5,429.0 L 104.0,429.5 L 104.5,429.0 L 105.0,428.5 L 105.5,429.0 L 106.0,429.5 L 106.5,429.0 L 107.0,428.5 L 108.0,428.5 L 108.5,428.0 L 108.5,427.0 L 109.0,426.5 L 109.5,426.0 L 109.0,425.5 L 108.5,425.0 L 109.0,424.5 L 109.5,424.0 L 109.5,423.0 L 109.0,422.5 L 108.5,422.0 L 108.5,421.0 L 108.0,420.5 L 107.0,420.5 L 106.5,420.0 L 106.0,419.5 L 105.5,420.0 L 105.0,420.5 L 104.5,420.0 L 104.0,419.5 L 103.5,420.0 L 103.0,420.5 L 102.0,420.5 L 101.5,421.0 L 101.5,422.0 L 101.0,422.5 L 100.5,423.0 L 100.5,424.0 L 100.0,424.5 L 99.5,425.0 L 99.0,425.5 L 98.0,425.5 L 97.5,425.0 L 97.5,424.0 L 97.0,423.5 L 96.5,423.0 L 96.0,422.5 L 95.0,422.5 L 94.5,422.0 L 94.0,421.5 L 93.5,422.0 L 93.0,422.5 L 92.0,422.5 L 91.5,423.0 L 91.0,423.5 L 90.5,424.0 L 90.0,424.5 L 89.5,425.0 L 89.5,426.0 L 89.0,426.5 L 88.0,426.5 L 87.5,427.0 L 87.5,428.0 L 87.0,428.5 L 86.5,429.0 L 87.0,429.5 L 87.5,430.0 L 87.5,431.0 L 88.0,431.5 L 89.0,431.5 L 89.5,432.0 L 90.0,432.5 L 90.5,432.0 L 91.0,431.5 L 91.5,432.0 L 92.0,432.5 L 93.0,432.5 L 93.5,433.0 L 94.0,433.5 L 95.0,433.5 L 96.0,433.5 L 97.0,433.5 L 97.5,434.0 L 97.5,435.0 L 98.0,435.5 L 99.0,435.5 L 99.5,436.0 L 100.0,436.5 L 100.5,436.0 Z" />
    <path d="M 531.5,442.0 L 531.0,441.5 L 530.5,441.0 L 530.5,440.0 L 530.0,439.5 L 529.5,439.0 L 529.0,438.5 L 528.5,438.0 L 528.0,437.5 L 527.5,437.0 L 527.0,436.5 L 526.0,436.5 L 525.5,436.0 L 525.0,435.5 L 524.0,435.5 L 523.0,435.5 L 522.5,435.0 L 522.0,434.5 L 521.0,434.5 L 520.5,434.0 L 520.0,433.5 L 519.5,433.0 L 519.0,432.5 L 518.0,432.5 L 517.5,432.0 L 517.0,431.5 L 516.0,431.5 L 515.5,431.0 L 515.5,430.0 L 515.5,429.0 L 515.5,428.0 L 516.0,427.5 L 516.5,427.0 L 516.5,426.0 L 516.5,425.0 L 516.0,424.5 L 515.5,424.0 L 515.5,423.0 L 515.0,422.5 L 514.0,422.5 L 513.5,422.0 L 513.0,421.5 L 512.5,422.0 L 512.0,422.5 L 511.0,422.5 L 510.5,423.0 L 510.0,423.5 L 509.0,423.5 L 508.0,423.5 L 507.0,423.5 L 506.5,423.0 L 506.0,422.5 L 505.0,422.5 L 504.0,422.5 L 503.5,422.0 L 503.0,421.5 L 502.0,421.5 L 501.0,421.5 L 500.0,421.5 L 499.5,421.0 L 499.0,420.5 L 498.0,420.5 L 497.0,420.5 L 496.0,420.5 L 495.5,421.0 L 495.0,421.5 L 494.0,421.5 L 493.5,422.0 L 493.0,422.5 L 492.0,422.5 L 491.5,422.0 L 491.0,421.5 L 490.0,421.5 L 489.5,422.0 L 489.0,422.5 L 488.0,422.5 L 487.5,423.0 L 487.0,423.5 L 486.5,423.0 L 486.0,422.5 L 485.0,422.5 L 484.5,423.0 L 484.0,423.5 L 483.0,423.5 L 482.5,424.0 L 482.0,424.5 L 481.0,424.5 L 480.0,424.5 L 479.0,424.5 L 478.0,424.5 L 477.5,425.0 L 477.0,425.5 L 476.0,425.5 L 475.0,425.5 L 474.5,426.0 L 474.0,426.5 L 473.0,426.5 L 472.0,426.5 L 471.0,426.5 L 470.0,426.5 L 469.5,427.0 L 469.0,427.5 L 468.0,427.5 L 467.5,428.0 L 467.5,429.0 L 467.0,429.5 L 466.5,430.0 L 467.0,430.5 L 467.5,431.0 L 467.5,432.0 L 467.5,433.0 L 467.5,434.0 L 467.5,435.0 L 467.0,435.5 L 466.5,436.0 L 466.0,436.5 L 465.0,436.5 L 464.5,437.0 L 464.0,437.5 L 463.5,438.0 L 463.5,439.0 L 463.0,439.5 L 462.5,439.0 L 462.0,438.5 L 461.0,438.5 L 460.5,439.0 L 460.0,439.5 L 459.0,439.5 L 458.5,440.0 L 458.5,441.0 L 458.0,441.5 L 457.5,442.0 Z" />
    <path d="M 431.5,442.0 L 431.5,441.0 L 431.0,440.5 L 430.5,440.0 L 430.5,439.0 L 430.0,438.5 L 429.0,438.5 L 428.5,438.0 L 428.0,437.5 L 427.5,437.0 L 427.0,436.5 L 426.0,436.5 L 425.5,436.0 L 425.5,435.0 L 425.0,434.5 L 424.5,434.0 L 424.0,433.5 L 423.0,433.5 L 422.5,433.0 L 422.0,432.5 L 421.0,432.5 L 420.5,432.0 L 420.5,431.0 L 420.0,430.5 L 419.0,430.5 L 418.5,430.0 L 418.0,429.5 L 417.0,429.5 L 416.5,429.0 L 416.5,428.0 L 416.0,427.5 L 415.0,427.5 L 414.5,427.0 L 414.0,426.5 L 413.0,426.5 L 412.5,426.0 L 412.0,425.5 L 411.0,425.5 L 410.5,426.0 L 410.0,426.5 L 409.0,426.5 L 408.0,426.5 L 407.5,426.0 L 407.0,425.5 L 406.0,425.5 L 405.5,425.0 L 405.0,424.5 L 404.0,424.5 L 403.0,424.5 L 402.0,424.5 L 401.0,424.5 L 400.5,424.0 L 400.0,423.5 L 399.0,423.5 L 398.0,423.5 L 397.0,423.5 L 396.5,423.0 L 396.0,422.5 L 395.5,423.0 L 395.0,423.5 L 394.0,423.5 L 393.0,423.5 L 392.0,423.5 L 391.0,423.5 L 390.0,423.5 L 389.0,423.5 L 388.0,423.5 L 387.5,424.0 L 387.0,424.5 L 386.0,424.5 L 385.5,425.0 L 385.0,425.5 L 384.0,425.5 L 383.0,425.5 L 382.0,425.5 L 381.5,425.0 L 381.0,424.5 L 380.5,424.0 L 380.0,423.5 L 379.0,423.5 L 378.5,423.0 L 378.0,422.5 L 377.0,422.5 L 376.5,423.0 L 376.0,423.5 L 375.0,423.5 L 374.0,423.5 L 373.0,423.5 L 372.5,424.0 L 372.0,424.5 L 371.0,424.5 L 370.5,425.0 L 370.0,425.5 L 369.5,426.0 L 369.0,426.5 L 368.5,427.0 L 368.5,428.0 L 368.0,428.5 L 367.5,429.0 L 368.0,429.5 L 368.5,430.0 L 368.0,430.5 L 367.5,431.0 L 367.5,432.0 L 367.5,433.0 L 367.5,434.0 L 368.0,434.5 L 368.5,435.0 L 368.0,435.5 L 367.5,436.0 L 368.0,436.5 L 368.5,437.0 L 368.5,438.0 L 369.0,438.5 L 369.5,439.0 L 369.5,440.0 L 370.0,440.5 L 371.0,440.5 L 371.5,441.0 L 372.0,441.5 L 372.5,441.0 L 373.0,440.5 L 374.0,440.5 L 375.0,440.5 L 376.0,440.5 L 377.0,440.5 L 378.0,440.5 L 379.0,440.5 L 380.0,440.5 L 381.0,440.5 L 381.5,441.0 L 382.0,441.5 L 382.5,442.0 Z" />
    <path d="M 189.5,434.0 L 190.0,433.5 L 191.0,433.5 L 192.0,433.5 L 193.0,433.5 L 194.0,433.5 L 194.5,433.0 L 195.0,432.5 L 196.0,432.5 L 196.5,432.0 L 197.0,431.5 L 197.5,431.0 L 197.5,430.0 L 198.0,429.5 L 198.5,429.0 L 198.0,428.5 L 197.5,428.0 L 197.5,427.0 L 197.0,426.5 L 196.0,426.5 L 195.5,426.0 L 195.0,425.5 L 194.5,426.0 L 194.0,426.5 L 193.0,426.5 L 192.5,426.0 L 192.0,425.5 L 191.0,425.5 L 190.5,425.0 L 190.0,424.5 L 189.0,424.5 L 188.5,425.0 L 188.0,425.5 L 187.0,425.5 L 186.5,426.0 L 186.0,426.5 L 185.5,427.0 L 185.0,427.5 L 184.0,427.5 L 183.5,428.0 L 183.5,429.0 L 183.0,429.5 L 182.5,430.0 L 182.5,431.0 L 183.0,431.5 L 183.5,432.0 L 183.5,433.0 L 184.0,433.5 L 185.0,433.5 L 185.5,434.0 L 186.0,434.5 L 187.0,434.5 L 188.0,434.5 L 189.0,434.5 L 189.5,434.0 Z" />
    <path d="M 490.5,442.0 L 490.0,441.5 L 489.5,441.0 L 489.5,440.0 L 489.0,439.5 L 488.0,439.5 L 487.5,439.0 L 487.0,438.5 L 486.5,438.0 L 486.0,437.5 L 485.0,437.5 L 484.5,437.0 L 484.0,436.5 L 483.0,436.5 L 482.0,436.5 L 481.5,437.0 L 481.0,437.5 L 480.0,437.5 L 479.0,437.5 L 478.5,438.0 L 478.0,438.5 L 477.0,438.5 L 476.5,438.0 L 476.0,437.5 L 475.0,437.5 L 474.5,437.0 L 474.5,436.0 L 475.0,435.5 L 475.5,435.0 L 475.0,434.5 L 474.5,434.0 L 475.0,433.5 L 475.5,433.0 L 476.0,432.5 L 476.5,432.0 L 477.0,431.5 L 478.0,431.5 L 479.0,431.5 L 479.5,432.0 L 479.5,433.0 L 480.0,433.5 L 481.0,433.5 L 481.5,434.0 L 482.0,434.5 L 483.0,434.5 L 483.5,434.0 L 484.0,433.5 L 485.0,433.5 L 486.0,433.5 L 487.0,433.5 L 487.5,434.0 L 488.0,434.5 L 489.0,434.5 L 490.0,434.5 L 491.0,434.5 L 492.0,434.5 L 493.0,434.5 L 494.0,434.5 L 494.5,435.0 L 495.0,435.5 L 496.0,435.5 L 496.5,436.0 L 497.0,436.5 L 498.0,436.5 L 499.0,436.5 L 499.5,436.0 L 500.0,435.5 L 501.0,435.5 L 502.0,435.5 L 502.5,435.0 L 503.0,434.5 L 504.0,434.5 L 504.5,434.0 L 504.5,433.0 L 505.0,432.5 L 505.5,432.0 L 505.5,431.0 L 505.0,430.5 L 504.5,430.0 L 505.0,429.5 L 506.0,429.5 L 506.5,429.0 L 507.0,428.5 L 507.5,429.0 L 508.0,429.5 L 509.0,429.5 L 509.5,430.0 L 509.5,431.0 L 509.5,432.0 L 510.0,432.5 L 510.5,433.0 L 510.5,434.0 L 510.0,434.5 L 509.0,434.5 L 508.5,435.0 L 508.5,436.0 L 508.0,436.5 L 507.5,437.0 L 508.0,437.5 L 508.5,438.0 L 508.5,439.0 L 508.0,439.5 L 507.5,439.0 L 507.0,438.5 L 506.0,438.5 L 505.5,439.0 L 505.0,439.5 L 504.0,439.5 L 503.5,440.0 L 503.5,441.0 L 503.0,441.5 L 502.5,442.0 Z" />
  </g>
</svg>