<?xml version='1.0' encoding='utf-8'?>
<svg xmlns="http://www.w3.org/2000/svg" version="1.1" width="620" height="443" viewBox="0 0 620 443">
  <rect x="0" y="0" width="620" height="443" fill="#989166" />
  <g fill="#3b362c" stroke="none">
    <path d="M 99.5,0.0 L 100.5,1.0 L 100.5,3.0 L 100.5,5.0 L 100.0,6.5 L 99.5,8.0 L 98.5,9.0 L 97.5,10.0 L 96.5,11.0 L 97.0,12.5 L 98.0,13.5 L 99.0,14.5 L 100.0,15.5 L 101.0,16.5 L 102.0,17.5 L 104.0,17.5 L 105.5,18.0 L 107.0,18.5 L 108.5,19.0 L 110.0,19.5 L 111.5,20.0 L 113.0,20.5 L 115.0,20.5 L 117.0,20.5 L 119.0,20.5 L 120.0,19.5 L 121.5,20.0 L 123.0,20.5 L 125.0,20.5 L 127.0,20.5 L 128.0,21.5 L 129.5,22.0 L 130.5,23.0 L 132.0,23.5 L 134.0,23.5 L 136.0,23.5 L 137.5,24.0 L 139.0,24.5 L 141.0,24.5 L 143.0,24.5 L 144.5,25.0 L 146.0,25.5 L 147.0,26.5 L 148.0,27.5 L 149.5,28.0 L 151.0,28.5 L 152.5,29.0 L 153.5,30.0 L 155.0,30.5 L 156.0,31.5 L 156.5,33.0 L 157.5,34.0 L 159.0,34.5 L 160.0,35.5 L 161.5,36.0 L 163.0,36.5 L 164.0,37.5 L 164.5,39.0 L 165.5,40.0 L 166.5,41.0 L 167.5,42.0 L 169.0,42.5 L 171.0,42.5 L 172.0,43.5 L 173.0,44.5 L 173.0,45.5 L 173.0,46.5 L 174.0,47.5 L 174.5,49.0 L 175.5,50.0 L 176.5,51.0 L 176.5,53.0 L 177.5,54.0 L 178.5,55.0 L 179.5,56.0 L 180.5,57.0 L 180.5,59.0 L 181.0,60.5 L 181.5,62.0 L 182.5,63.0 L 183.5,64.0 L 183.5,66.0 L 183.5,68.0 L 183.5,70.0 L 183.5,72.0 L 184.5,73.0 L 185.5,74.0 L 186.5,75.0 L 186.5,77.0 L 186.5,79.0 L 187.5,80.0 L 187.5,82.0 L 187.5,84.0 L 187.0,85.5 L 186.5,87.0 L 185.5,88.0 L 185.0,89.5 L 184.5,91.0 L 183.5,92.0 L 182.0,92.5 L 181.0,93.5 L 179.0,93.5 L 177.5,94.0 L 176.0,94.5 L 174.0,94.5 L 172.0,94.5 L 170.0,94.5 L 169.0,95.5 L 167.5,96.0 L 166.0,96.5 L 164.0,96.5 L 162.0,96.5 L 160.0,96.5 L 159.0,95.5 L 158.0,94.5 L 156.0,94.5 L 154.0,94.5 L 152.0,94.5 L 150.0,94.5 L 149.0,93.5 L 148.0,92.5 L 147.0,91.5 L 145.0,91.5 L 143.5,91.0 L 142.5,90.0 L 141.5,89.0 L 140.0,88.5 L 138.5,88.0 L 137.5,87.0 L 138.5,86.0 L 137.5,85.0 L 136.0,84.5 L 134.5,84.0 L 133.5,83.0 L 132.5,82.0 L 131.5,81.0 L 130.0,80.5 L 128.5,81.0 L 127.5,82.0 L 126.5,83.0 L 125.0,83.5 L 124.0,84.5 L 122.0,84.5 L 120.5,84.0 L 119.0,83.5 L 118.0,82.5 L 116.5,82.0 L 115.5,81.0 L 114.0,80.5 L 112.5,81.0 L 111.5,82.0 L 110.0,82.5 L 108.0,82.5 L 107.0,83.5 L 105.5,84.0 L 104.0,84.5 L 103.0,85.5 L 101.5,86.0 L 100.0,86.5 L 98.5,87.0 L 97.5,88.0 L 96.0,88.5 L 95.0,89.5 L 93.5,90.0 L 92.0,90.5 L 91.0,91.5 L 90.0,92.5 L 89.0,93.5 L 87.5,94.0 L 86.0,94.5 L 84.0,94.5 L 83.0,95.5 L 81.0,95.5 L 79.5,96.0 L 78.0,96.5 L 76.5,97.0 L 75.5,98.0 L 74.5,99.0 L 73.0,99.5 L 72.0,100.5 L 70.0,100.5 L 69.0,101.5 L 67.0,101.5 L 66.0,102.5 L 64.0,102.5 L 63.0,103.5 L 61.0,103.5 L 60.0,104.5 L 58.0,104.5 L 57.0,105.5 L 55.0,105.5 L 54.0,106.5 L 52.0,106.5 L 50.0,106.5 L 48.0,106.5 L 46.0,106.5 L 44.0,106.5 L 43.0,105.5 L 41.0,105.5 L 39.5,106.0 L 38.5,107.0 L 37.0,107.5 L 35.5,108.0 L 34.0,108.5 L 33.0,109.5 L 31.0,109.5 L 30.0,110.5 L 28.5,111.0 L 27.0,111.5 L 25.5,112.0 L 24.0,112.5 L 23.0,113.5 L 21.0,113.5 L 19.0,113.5 L 17.0,113.5 L 15.5,113.0 L 14.0,112.5 L 12.5,112.0 L 11.0,111.5 L 9.5,111.0 L 8.0,110.5 L 6.0,110.5 L 4.0,110.5 L 2.0,110.5 L 0.0,110.5 Z" />
    <path d="M 620.0,91.5 L 618.0,91.5 L 616.0,91.5 L 615.0,90.5 L 613.0,90.5 L 611.5,90.0 L 610.5,89.0 L 609.0,88.5 L 607.5,88.0 L 606.0,87.5 L 605.0,86.5 L 603.0,86.5 L 601.0,86.5 L 599.0,86.5 L 597.0,86.5 L 596.0,85.5 L 594.5,86.0 L 593.0,86.5 L 591.0,86.5 L 589.0,86.5 L 587.0,86.5 L 585.0,86.5 L 583.0,86.5 L 581.0,86.5 L 579.0,86.5 L 577.0,86.5 L 575.0,86.5 L 573.0,86.5 L 572.0,87.5 L 570.0,87.5 L 569.0,86.5 L 567.5,87.0 L 566.0,87.5 L 564.0,87.5 L 562.5,87.0 L 561.0,86.5 L 559.0,86.5 L 557.0,86.5 L 555.5,86.0 L 554.0,85.5 L 552.0,85.5 L 550.0,85.5 L 548.5,85.0 L 547.0,84.5 L 545.0,84.5 L 544.0,83.5 L 542.5,83.0 L 541.0,82.5 L 539.0,82.5 L 537.0,82.5 L 535.0,82.5 L 533.0,82.5 L 531.0,82.5 L 529.0,82.5 L 527.0,82.5 L 526.0,81.5 L 524.0,81.5 L 522.0,81.5 L 521.0,80.5 L 519.0,80.5 L 517.0,80.5 L 515.0,80.5 L 513.5,80.0 L 512.0,79.5 L 511.0,78.5 L 509.0,78.5 L 507.0,78.5 L 505.0,78.5 L 503.0,78.5 L 501.0,78.5 L 500.0,79.5 L 498.5,80.0 L 497.0,80.5 L 495.5,80.0 L 494.0,79.5 L 493.0,80.5 L 491.5,81.0 L 490.5,82.0 L 489.0,82.5 L 488.0,83.5 L 487.0,82.5 L 486.0,83.5 L 485.0,84.5 L 484.0,85.5 L 482.0,85.5 L 480.0,85.5 L 478.0,85.5 L 476.0,85.5 L 474.5,86.0 L 473.0,86.5 L 471.5,87.0 L 470.0,87.5 L 468.5,88.0 L 467.0,88.5 L 466.0,89.5 L 464.5,90.0 L 463.0,90.5 L 461.0,90.5 L 460.0,91.5 L 458.0,91.5 L 457.0,90.5 L 455.0,90.5 L 453.0,90.5 L 451.0,90.5 L 450.0,89.5 L 448.0,89.5 L 446.0,89.5 L 444.0,89.5 L 442.0,89.5 L 441.0,88.5 L 439.0,88.5 L 437.0,88.5 L 435.0,88.5 L 433.0,88.5 L 431.5,88.0 L 430.0,87.5 L 429.0,88.5 L 427.5,89.0 L 426.0,89.5 L 425.0,90.5 L 423.0,90.5 L 421.0,90.5 L 419.5,91.0 L 418.0,91.5 L 416.0,91.5 L 415.0,92.5 L 413.0,92.5 L 412.0,93.5 L 410.5,94.0 L 409.0,94.5 L 407.5,95.0 L 406.0,95.5 L 405.0,96.5 L 403.5,97.0 L 402.0,97.5 L 400.0,97.5 L 398.0,97.5 L 397.0,96.5 L 395.0,96.5 L 393.0,96.5 L 391.5,97.0 L 390.5,98.0 L 389.0,98.5 L 387.5,99.0 L 386.0,99.5 L 384.0,99.5 L 382.0,99.5 L 380.5,99.0 L 379.0,98.5 L 377.5,98.0 L 376.0,97.5 L 374.0,97.5 L 372.0,97.5 L 370.0,97.5 L 368.5,97.0 L 367.5,97.0 L 366.5,97.0 L 365.0,96.5 L 363.5,97.0 L 362.5,97.0 L 361.5,96.0 L 360.5,95.0 L 359.0,94.5 L 357.5,94.0 L 356.5,93.0 L 357.5,92.0 L 356.5,91.0 L 355.5,90.0 L 354.0,89.5 L 353.0,90.5 L 352.0,91.5 L 351.5,93.0 L 351.5,95.0 L 352.5,96.0 L 352.0,97.5 L 351.5,99.0 L 352.0,100.5 L 353.0,101.5 L 354.0,102.5 L 354.5,104.0 L 354.0,105.5 L 354.0,106.5 L 354.5,108.0 L 355.5,109.0 L 356.5,110.0 L 356.0,111.5 L 355.0,112.5 L 354.0,113.5 L 353.0,112.5 L 351.5,112.0 L 350.5,111.0 L 349.5,110.0 L 348.5,110.0 L 347.5,111.0 L 348.5,112.0 L 349.5,113.0 L 350.0,114.5 L 351.0,115.5 L 352.0,114.5 L 353.0,115.5 L 353.0,116.5 L 352.0,117.5 L 352.0,118.5 L 353.0,119.5 L 354.0,120.5 L 354.5,122.0 L 355.0,123.5 L 356.0,124.5 L 356.0,125.5 L 355.5,127.0 L 355.5,129.0 L 356.5,130.0 L 357.5,131.0 L 358.0,132.5 L 359.0,133.5 L 360.0,134.5 L 361.0,135.5 L 362.5,135.0 L 364.0,134.5 L 365.0,135.5 L 365.5,137.0 L 365.5,139.0 L 365.5,141.0 L 366.5,142.0 L 367.0,143.5 L 367.5,145.0 L 367.5,147.0 L 367.5,149.0 L 367.5,151.0 L 368.5,152.0 L 367.5,153.0 L 368.5,154.0 L 368.0,155.5 L 368.0,156.5 L 368.5,158.0 L 369.5,159.0 L 368.5,160.0 L 369.5,161.0 L 369.5,163.0 L 369.5,165.0 L 369.5,167.0 L 369.5,169.0 L 369.5,171.0 L 369.5,173.0 L 369.5,175.0 L 369.5,177.0 L 370.5,178.0 L 370.5,180.0 L 370.0,181.5 L 369.5,183.0 L 368.5,184.0 L 368.5,186.0 L 369.0,187.5 L 370.0,188.5 L 371.0,189.5 L 371.5,191.0 L 372.0,192.5 L 373.0,193.5 L 374.0,194.5 L 375.0,195.5 L 376.0,196.5 L 377.0,195.5 L 378.0,196.5 L 378.5,198.0 L 379.5,199.0 L 380.5,200.0 L 379.5,201.0 L 379.5,203.0 L 378.5,204.0 L 379.5,205.0 L 381.0,205.5 L 382.0,204.5 L 383.5,205.0 L 384.5,206.0 L 384.5,208.0 L 385.5,209.0 L 384.5,210.0 L 384.5,212.0 L 385.0,213.5 L 385.5,215.0 L 384.5,216.0 L 383.5,217.0 L 382.5,218.0 L 383.0,219.5 L 383.0,220.5 L 383.0,221.5 L 384.0,222.5 L 385.0,221.5 L 385.0,220.5 L 385.0,219.5 L 386.0,218.5 L 387.0,217.5 L 387.5,216.0 L 386.5,215.0 L 387.0,213.5 L 387.5,212.0 L 387.5,210.0 L 386.5,209.0 L 387.5,208.0 L 387.5,206.0 L 386.5,205.0 L 387.0,203.5 L 388.0,202.5 L 389.5,202.0 L 390.5,201.0 L 391.5,200.0 L 390.5,199.0 L 389.5,198.0 L 388.5,197.0 L 387.5,196.0 L 388.5,195.0 L 389.5,194.0 L 390.5,193.0 L 389.5,192.0 L 390.5,191.0 L 389.5,190.0 L 390.0,188.5 L 390.0,187.5 L 389.0,186.5 L 388.5,185.0 L 387.5,184.0 L 386.5,183.0 L 385.5,183.0 L 384.5,184.0 L 383.5,184.0 L 382.0,183.5 L 381.0,182.5 L 380.0,181.5 L 380.0,180.5 L 381.0,179.5 L 382.0,178.5 L 383.0,179.5 L 384.0,180.5 L 385.5,180.0 L 386.5,179.0 L 385.5,178.0 L 384.5,177.0 L 384.5,175.0 L 383.5,174.0 L 382.5,173.0 L 383.0,171.5 L 384.0,170.5 L 386.0,170.5 L 387.5,170.0 L 388.5,169.0 L 387.5,168.0 L 386.5,167.0 L 387.5,166.0 L 388.5,165.0 L 387.5,164.0 L 388.0,162.5 L 388.5,161.0 L 387.5,160.0 L 386.5,159.0 L 385.5,158.0 L 386.5,157.0 L 386.5,155.0 L 385.5,154.0 L 384.5,153.0 L 385.5,152.0 L 386.5,151.0 L 387.5,150.0 L 388.5,150.0 L 389.5,151.0 L 389.0,152.5 L 388.5,154.0 L 389.5,155.0 L 390.5,156.0 L 391.5,157.0 L 392.0,158.5 L 393.0,159.5 L 393.0,160.5 L 392.0,161.5 L 391.0,162.5 L 391.0,163.5 L 391.5,165.0 L 392.5,166.0 L 393.5,167.0 L 394.5,168.0 L 395.0,169.5 L 395.5,171.0 L 394.5,172.0 L 393.5,173.0 L 394.0,174.5 L 395.0,175.5 L 396.0,176.5 L 397.0,177.5 L 397.5,179.0 L 398.5,180.0 L 397.5,181.0 L 396.5,182.0 L 395.5,183.0 L 396.5,184.0 L 398.0,184.5 L 399.0,185.5 L 400.0,186.5 L 401.0,185.5 L 402.0,184.5 L 402.5,183.0 L 401.5,182.0 L 401.5,180.0 L 401.5,178.0 L 401.5,176.0 L 400.5,175.0 L 401.5,174.0 L 402.5,173.0 L 403.5,172.0 L 404.5,172.0 L 405.5,173.0 L 406.5,174.0 L 405.5,175.0 L 404.5,176.0 L 405.5,177.0 L 405.5,179.0 L 406.5,180.0 L 407.5,180.0 L 408.5,180.0 L 409.5,181.0 L 410.5,182.0 L 411.5,183.0 L 412.5,184.0 L 411.5,185.0 L 412.5,186.0 L 413.5,187.0 L 413.0,188.5 L 412.0,189.5 L 411.5,191.0 L 412.5,192.0 L 414.0,192.5 L 415.0,193.5 L 416.0,194.5 L 416.5,196.0 L 416.5,198.0 L 417.5,199.0 L 418.5,200.0 L 418.5,202.0 L 419.0,203.5 L 420.0,204.5 L 420.5,206.0 L 421.5,207.0 L 423.0,207.5 L 424.0,206.5 L 424.5,205.0 L 424.5,203.0 L 423.5,202.0 L 423.0,200.5 L 422.5,199.0 L 421.5,198.0 L 422.5,197.0 L 423.5,196.0 L 425.0,195.5 L 426.0,194.5 L 427.0,193.5 L 427.5,192.0 L 426.5,191.0 L 427.0,189.5 L 427.0,188.5 L 426.0,187.5 L 426.0,186.5 L 426.5,185.0 L 425.5,184.0 L 425.0,182.5 L 424.5,181.0 L 425.5,180.0 L 427.0,179.5 L 428.0,180.5 L 429.0,181.5 L 429.5,183.0 L 430.5,184.0 L 431.5,185.0 L 432.5,186.0 L 433.5,187.0 L 434.0,188.5 L 434.5,190.0 L 433.5,191.0 L 434.5,192.0 L 435.5,193.0 L 435.0,194.5 L 434.0,195.5 L 434.0,196.5 L 435.0,197.5 L 436.0,198.5 L 437.0,199.5 L 438.0,200.5 L 439.0,201.5 L 440.0,200.5 L 441.0,201.5 L 441.5,203.0 L 442.5,204.0 L 443.5,205.0 L 444.5,206.0 L 445.0,207.5 L 446.0,208.5 L 447.0,209.5 L 448.0,210.5 L 449.0,211.5 L 450.0,212.5 L 451.5,212.0 L 452.5,211.0 L 452.5,209.0 L 451.5,208.0 L 452.5,207.0 L 453.5,206.0 L 454.5,205.0 L 455.5,204.0 L 456.5,203.0 L 456.5,201.0 L 455.5,200.0 L 454.5,199.0 L 453.5,198.0 L 452.5,197.0 L 453.5,196.0 L 455.0,195.5 L 456.0,196.5 L 457.0,197.5 L 458.0,198.5 L 459.5,198.0 L 460.5,197.0 L 461.5,197.0 L 462.5,198.0 L 461.5,199.0 L 460.5,200.0 L 461.5,201.0 L 462.5,202.0 L 463.5,202.0 L 464.5,201.0 L 465.5,201.0 L 466.5,202.0 L 465.5,203.0 L 466.5,204.0 L 467.5,205.0 L 468.5,206.0 L 469.5,207.0 L 470.5,208.0 L 470.0,209.5 L 470.0,210.5 L 470.5,212.0 L 471.5,213.0 L 470.5,214.0 L 469.5,215.0 L 468.5,216.0 L 469.5,217.0 L 470.5,218.0 L 471.5,219.0 L 472.5,220.0 L 471.5,221.0 L 470.5,222.0 L 471.5,223.0 L 470.5,224.0 L 470.5,226.0 L 470.5,228.0 L 470.5,230.0 L 471.5,231.0 L 472.0,232.5 L 473.0,233.5 L 473.5,235.0 L 472.5,236.0 L 472.5,238.0 L 472.5,240.0 L 473.0,241.5 L 473.5,243.0 L 474.0,244.5 L 474.5,246.0 L 474.5,248.0 L 475.0,249.5 L 476.0,250.5 L 477.0,251.5 L 478.0,250.5 L 479.5,250.0 L 480.5,249.0 L 481.0,247.5 L 482.0,246.5 L 483.0,245.5 L 484.0,244.5 L 485.0,243.5 L 485.5,242.0 L 485.5,240.0 L 486.5,239.0 L 487.5,239.0 L 488.5,240.0 L 490.0,240.5 L 491.0,239.5 L 492.0,238.5 L 493.0,237.5 L 495.0,237.5 L 496.5,238.0 L 497.5,239.0 L 498.0,240.5 L 499.0,241.5 L 500.0,242.5 L 500.0,243.5 L 499.5,245.0 L 498.5,246.0 L 498.5,248.0 L 497.5,249.0 L 498.5,250.0 L 498.0,251.5 L 497.0,252.5 L 495.5,253.0 L 494.0,253.5 L 493.0,254.5 L 491.0,254.5 L 489.0,254.5 L 488.0,255.5 L 486.0,255.5 L 485.0,256.5 L 483.5,256.0 L 482.0,255.5 L 481.0,256.5 L 479.5,256.0 L 478.5,255.0 L 477.5,254.0 L 476.5,253.0 L 475.5,253.0 L 474.5,254.0 L 474.5,256.0 L 475.5,257.0 L 474.5,258.0 L 473.5,259.0 L 472.5,260.0 L 472.5,262.0 L 472.5,264.0 L 472.5,266.0 L 473.5,267.0 L 473.5,269.0 L 474.5,270.0 L 475.5,271.0 L 474.5,272.0 L 473.5,273.0 L 473.5,275.0 L 472.5,276.0 L 472.5,278.0 L 472.5,280.0 L 473.0,281.5 L 473.5,283.0 L 472.5,284.0 L 471.5,285.0 L 472.0,286.5 L 472.5,288.0 L 472.5,290.0 L 472.0,291.5 L 471.5,293.0 L 470.5,294.0 L 469.5,295.0 L 470.5,296.0 L 471.5,297.0 L 471.0,298.5 L 470.5,300.0 L 470.5,302.0 L 469.5,303.0 L 468.5,304.0 L 467.5,305.0 L 468.0,306.5 L 468.5,308.0 L 468.5,310.0 L 469.0,311.5 L 469.5,313.0 L 469.0,314.5 L 468.0,315.5 L 467.5,317.0 L 468.0,318.5 L 468.5,320.0 L 469.0,321.5 L 469.5,323.0 L 468.5,324.0 L 468.5,326.0 L 467.5,327.0 L 467.0,328.5 L 467.0,329.5 L 467.5,331.0 L 468.5,332.0 L 468.0,333.5 L 467.0,334.5 L 466.5,336.0 L 467.5,337.0 L 467.5,339.0 L 466.5,340.0 L 465.5,341.0 L 466.0,342.5 L 466.5,344.0 L 466.5,346.0 L 466.5,348.0 L 467.0,349.5 L 467.0,350.5 L 466.0,351.5 L 465.0,350.5 L 464.0,351.5 L 463.5,353.0 L 464.5,354.0 L 464.5,356.0 L 464.5,358.0 L 465.0,359.5 L 465.0,360.5 L 464.5,362.0 L 464.0,363.5 L 463.5,365.0 L 464.5,366.0 L 463.5,367.0 L 462.5,368.0 L 462.0,369.5 L 461.5,371.0 L 462.0,372.5 L 462.0,373.5 L 461.5,375.0 L 461.5,377.0 L 462.5,378.0 L 462.0,379.5 L 461.0,380.5 L 459.5,381.0 L 458.5,382.0 L 457.5,383.0 L 458.5,384.0 L 459.0,385.5 L 459.5,387.0 L 460.0,388.5 L 460.0,389.5 L 459.0,390.5 L 457.0,390.5 L 456.0,389.5 L 455.0,390.5 L 454.5,392.0 L 454.5,394.0 L 454.5,396.0 L 454.5,398.0 L 455.5,399.0 L 454.5,400.0 L 455.0,401.5 L 456.0,402.5 L 456.5,404.0 L 456.5,406.0 L 455.5,407.0 L 455.0,408.5 L 454.5,410.0 L 453.5,411.0 L 452.5,412.0 L 453.5,413.0 L 452.5,414.0 L 451.0,414.5 L 450.0,415.5 L 449.0,416.5 L 447.5,416.0 L 446.0,415.5 L 445.0,414.5 L 443.5,414.0 L 442.0,413.5 L 441.0,414.5 L 441.0,415.5 L 442.0,416.5 L 442.0,417.5 L 441.0,418.5 L 440.0,419.5 L 438.5,419.0 L 437.5,418.0 L 436.5,418.0 L 435.5,419.0 L 434.0,419.5 L 433.0,418.5 L 432.0,417.5 L 431.0,418.5 L 429.0,418.5 L 427.5,418.0 L 426.5,417.0 L 425.5,417.0 L 424.0,417.5 L 423.0,416.5 L 422.0,417.5 L 421.0,418.5 L 420.0,419.5 L 418.5,419.0 L 417.5,418.0 L 416.5,417.0 L 415.5,417.0 L 414.5,418.0 L 413.0,418.5 L 412.0,417.5 L 411.0,416.5 L 409.5,416.0 L 408.5,415.0 L 409.5,414.0 L 408.5,413.0 L 407.0,412.5 L 406.0,413.5 L 405.5,415.0 L 404.5,416.0 L 403.5,416.0 L 402.5,415.0 L 403.0,413.5 L 403.0,412.5 L 402.5,411.0 L 403.5,410.0 L 403.0,408.5 L 402.5,407.0 L 402.0,405.5 L 401.5,404.0 L 400.5,403.0 L 399.0,402.5 L 398.0,401.5 L 398.0,400.5 L 398.0,399.5 L 397.0,398.5 L 396.0,399.5 L 395.0,398.5 L 394.5,397.0 L 395.0,395.5 L 396.0,394.5 L 397.0,393.5 L 397.0,392.5 L 396.0,391.5 L 395.0,392.5 L 394.0,393.5 L 393.0,392.5 L 393.0,391.5 L 394.0,390.5 L 394.5,389.0 L 395.0,387.5 L 395.5,386.0 L 396.5,385.0 L 395.5,384.0 L 394.0,383.5 L 393.0,384.5 L 392.0,383.5 L 391.5,382.0 L 392.5,381.0 L 393.0,379.5 L 394.0,378.5 L 394.5,377.0 L 394.5,375.0 L 395.5,374.0 L 395.0,372.5 L 394.0,371.5 L 393.0,372.5 L 392.0,373.5 L 391.0,372.5 L 391.0,371.5 L 392.0,370.5 L 393.0,369.5 L 393.0,368.5 L 392.5,367.0 L 392.5,365.0 L 392.0,363.5 L 391.5,362.0 L 390.5,361.0 L 389.5,360.0 L 390.5,359.0 L 390.5,357.0 L 390.5,355.0 L 391.0,353.5 L 391.5,352.0 L 392.5,351.0 L 392.0,349.5 L 391.0,348.5 L 390.0,349.5 L 389.0,350.5 L 388.0,351.5 L 387.0,352.5 L 386.0,351.5 L 385.5,350.0 L 386.5,349.0 L 386.5,347.0 L 387.5,346.0 L 387.5,344.0 L 388.5,343.0 L 387.5,342.0 L 388.5,341.0 L 387.5,340.0 L 386.5,339.0 L 386.5,337.0 L 387.5,336.0 L 387.0,334.5 L 386.0,333.5 L 386.0,332.5 L 386.0,331.5 L 385.0,330.5 L 383.5,331.0 L 382.5,332.0 L 381.5,333.0 L 380.5,334.0 L 379.5,335.0 L 380.5,336.0 L 379.5,337.0 L 378.5,338.0 L 377.5,339.0 L 376.5,340.0 L 377.5,341.0 L 377.5,343.0 L 376.5,344.0 L 375.5,345.0 L 376.0,346.5 L 376.0,347.5 L 375.0,348.5 L 373.0,348.5 L 372.0,349.5 L 371.0,350.5 L 370.5,352.0 L 371.5,353.0 L 372.5,354.0 L 372.0,355.5 L 371.0,356.5 L 370.0,357.5 L 369.0,358.5 L 368.0,359.5 L 366.5,360.0 L 365.5,361.0 L 365.5,363.0 L 366.5,364.0 L 366.0,365.5 L 365.0,366.5 L 363.5,367.0 L 362.5,368.0 L 362.5,370.0 L 363.5,371.0 L 363.0,372.5 L 362.0,373.5 L 361.0,374.5 L 360.0,375.5 L 359.5,377.0 L 359.5,379.0 L 359.5,381.0 L 359.5,383.0 L 359.5,385.0 L 359.5,387.0 L 359.5,389.0 L 358.5,390.0 L 359.0,391.5 L 360.0,392.5 L 361.0,393.5 L 361.5,395.0 L 360.5,396.0 L 360.5,398.0 L 360.5,400.0 L 360.5,402.0 L 360.5,404.0 L 360.5,406.0 L 359.5,407.0 L 358.5,407.0 L 357.5,407.0 L 356.5,408.0 L 356.0,409.5 L 355.5,411.0 L 354.5,412.0 L 353.5,412.0 L 352.5,411.0 L 351.0,410.5 L 350.0,409.5 L 348.0,409.5 L 347.0,410.5 L 346.0,411.5 L 345.0,412.5 L 344.5,414.0 L 343.5,415.0 L 342.0,415.5 L 341.0,414.5 L 340.0,415.5 L 338.5,415.0 L 337.5,414.0 L 336.0,413.5 L 335.0,414.5 L 334.0,415.5 L 332.0,415.5 L 331.0,416.5 L 330.0,417.5 L 329.0,416.5 L 328.0,415.5 L 326.5,416.0 L 325.5,417.0 L 325.0,418.5 L 324.0,419.5 L 323.0,418.5 L 322.0,417.5 L 321.0,418.5 L 320.0,417.5 L 319.0,416.5 L 318.0,415.5 L 317.0,416.5 L 316.0,417.5 L 315.0,418.5 L 314.0,419.5 L 313.0,420.5 L 311.5,420.0 L 310.5,419.0 L 309.5,418.0 L 308.5,417.0 L 307.5,417.0 L 306.5,418.0 L 305.5,419.0 L 304.5,419.0 L 303.5,418.0 L 302.0,417.5 L 301.0,416.5 L 300.0,415.5 L 298.5,416.0 L 297.5,417.0 L 298.5,418.0 L 297.5,419.0 L 296.5,419.0 L 295.5,418.0 L 294.5,418.0 L 293.5,418.0 L 292.5,417.0 L 292.5,415.0 L 293.5,414.0 L 294.5,413.0 L 295.5,412.0 L 294.5,411.0 L 293.5,411.0 L 292.0,411.5 L 291.0,410.5 L 290.5,409.0 L 291.5,408.0 L 290.5,407.0 L 291.0,405.5 L 291.5,404.0 L 292.5,403.0 L 292.5,401.0 L 293.5,400.0 L 294.5,399.0 L 293.5,398.0 L 292.5,397.0 L 292.5,395.0 L 292.0,393.5 L 291.5,392.0 L 290.5,391.0 L 289.5,390.0 L 289.5,388.0 L 289.5,386.0 L 289.0,384.5 L 288.0,383.5 L 286.5,383.0 L 285.5,382.0 L 286.5,381.0 L 285.5,380.0 L 284.5,379.0 L 283.5,378.0 L 283.5,376.0 L 283.5,374.0 L 282.5,373.0 L 281.5,372.0 L 281.0,370.5 L 280.0,369.5 L 280.0,368.5 L 280.0,367.5 L 280.0,366.5 L 280.5,365.0 L 280.0,363.5 L 279.0,362.5 L 277.5,362.0 L 276.5,361.0 L 276.5,359.0 L 275.5,358.0 L 274.5,357.0 L 273.5,356.0 L 273.0,354.5 L 273.0,353.5 L 273.5,352.0 L 272.5,351.0 L 272.5,349.0 L 271.5,348.0 L 270.5,347.0 L 269.5,346.0 L 268.5,345.0 L 268.5,343.0 L 268.0,341.5 L 267.0,340.5 L 266.5,339.0 L 267.5,338.0 L 267.0,336.5 L 266.5,335.0 L 265.5,334.0 L 264.5,333.0 L 263.5,332.0 L 264.5,331.0 L 265.5,330.0 L 264.5,329.0 L 264.5,327.0 L 264.5,325.0 L 263.5,324.0 L 263.0,322.5 L 262.0,321.5 L 262.0,320.5 L 262.5,319.0 L 263.5,318.0 L 262.5,317.0 L 261.5,316.0 L 261.0,314.5 L 260.0,313.5 L 259.5,312.0 L 260.5,311.0 L 260.5,309.0 L 260.0,307.5 L 259.5,306.0 L 259.5,304.0 L 260.5,303.0 L 260.0,301.5 L 259.0,300.5 L 258.5,299.0 L 258.5,297.0 L 257.5,296.0 L 258.5,295.0 L 257.5,294.0 L 256.5,293.0 L 257.0,291.5 L 257.5,290.0 L 258.5,289.0 L 258.0,287.5 L 257.0,286.5 L 256.0,285.5 L 256.0,284.5 L 256.5,283.0 L 257.5,282.0 L 257.0,280.5 L 256.0,279.5 L 255.5,278.0 L 255.5,276.0 L 254.5,275.0 L 254.0,273.5 L 253.5,272.0 L 254.5,271.0 L 254.5,269.0 L 253.5,268.0 L 254.5,267.0 L 254.0,265.5 L 254.0,264.5 L 254.5,263.0 L 253.5,262.0 L 252.5,261.0 L 251.5,260.0 L 252.0,258.5 L 252.5,257.0 L 253.5,256.0 L 254.5,255.0 L 254.5,253.0 L 253.5,252.0 L 253.5,250.0 L 254.5,249.0 L 253.5,248.0 L 254.5,247.0 L 253.5,246.0 L 254.5,245.0 L 255.0,243.5 L 256.0,242.5 L 257.0,241.5 L 258.0,242.5 L 259.0,241.5 L 259.5,240.0 L 260.5,239.0 L 260.0,237.5 L 259.0,236.5 L 259.0,235.5 L 260.0,234.5 L 261.0,235.5 L 262.0,236.5 L 263.0,237.5 L 264.5,238.0 L 265.5,239.0 L 266.0,240.5 L 267.0,241.5 L 268.0,242.5 L 269.0,241.5 L 269.5,240.0 L 269.0,238.5 L 268.0,237.5 L 267.0,236.5 L 266.0,235.5 L 266.0,234.5 L 266.5,233.0 L 266.0,231.5 L 265.0,230.5 L 264.0,229.5 L 263.0,230.5 L 262.5,232.0 L 261.5,233.0 L 260.5,233.0 L 259.5,232.0 L 260.5,231.0 L 261.0,229.5 L 261.5,228.0 L 260.5,227.0 L 259.5,226.0 L 258.5,225.0 L 257.5,224.0 L 257.0,222.5 L 256.5,221.0 L 255.5,220.0 L 256.0,218.5 L 256.5,217.0 L 257.0,215.5 L 257.0,214.5 L 256.0,213.5 L 254.5,213.0 L 253.5,212.0 L 253.0,210.5 L 252.5,209.0 L 252.5,207.0 L 252.0,205.5 L 251.0,204.5 L 250.0,203.5 L 249.5,202.0 L 250.5,201.0 L 249.5,200.0 L 249.0,198.5 L 248.0,197.5 L 247.0,196.5 L 246.5,195.0 L 245.5,194.0 L 246.5,193.0 L 247.5,192.0 L 247.5,190.0 L 247.5,188.0 L 247.0,186.5 L 246.0,185.5 L 245.0,184.5 L 244.0,183.5 L 243.0,184.5 L 242.0,183.5 L 242.0,182.5 L 243.0,181.5 L 244.0,182.5 L 245.0,181.5 L 245.5,180.0 L 244.5,179.0 L 243.5,178.0 L 242.5,177.0 L 241.5,176.0 L 241.5,174.0 L 241.0,172.5 L 240.0,171.5 L 239.0,172.5 L 238.0,171.5 L 237.5,170.0 L 238.0,168.5 L 239.0,167.5 L 239.5,166.0 L 240.0,164.5 L 241.0,163.5 L 242.0,162.5 L 243.0,161.5 L 244.0,160.5 L 244.0,159.5 L 244.0,158.5 L 244.5,157.0 L 244.0,155.5 L 243.0,154.5 L 241.5,154.0 L 240.5,153.0 L 241.5,152.0 L 242.5,151.0 L 243.5,150.0 L 243.5,148.0 L 244.5,147.0 L 245.5,146.0 L 245.0,144.5 L 244.0,143.5 L 242.5,143.0 L 241.5,142.0 L 242.5,141.0 L 244.0,140.5 L 245.0,141.5 L 246.0,140.5 L 246.5,139.0 L 245.5,138.0 L 246.5,137.0 L 246.5,135.0 L 245.5,134.0 L 246.5,133.0 L 246.0,131.5 L 246.0,130.5 L 247.0,129.5 L 248.0,128.5 L 249.0,127.5 L 249.0,126.5 L 249.0,125.5 L 249.5,124.0 L 248.5,123.0 L 248.5,121.0 L 249.5,120.0 L 250.5,119.0 L 249.5,118.0 L 248.5,117.0 L 249.5,116.0 L 249.5,114.0 L 250.5,113.0 L 251.5,112.0 L 252.5,111.0 L 253.5,110.0 L 253.0,108.5 L 252.0,107.5 L 251.0,106.5 L 250.0,107.5 L 248.5,108.0 L 247.0,108.5 L 246.0,107.5 L 246.0,106.5 L 247.0,105.5 L 248.0,104.5 L 248.0,103.5 L 247.5,102.0 L 248.5,101.0 L 248.5,99.0 L 248.5,97.0 L 248.0,95.5 L 247.0,94.5 L 245.0,94.5 L 243.5,95.0 L 242.5,96.0 L 242.0,97.5 L 241.0,98.5 L 239.0,98.5 L 237.0,98.5 L 235.0,98.5 L 233.0,98.5 L 231.5,98.0 L 230.0,97.5 L 228.0,97.5 L 226.0,97.5 L 224.0,97.5 L 222.0,97.5 L 220.0,97.5 L 219.0,96.5 L 217.0,96.5 L 216.0,95.5 L 214.0,95.5 L 213.0,94.5 L 211.0,94.5 L 210.0,93.5 L 208.5,93.0 L 207.5,92.0 L 206.5,91.0 L 206.5,89.0 L 206.0,87.5 L 206.0,86.5 L 207.0,85.5 L 207.5,84.0 L 208.5,83.0 L 209.5,83.0 L 210.5,83.0 L 211.5,82.0 L 212.5,81.0 L 213.5,80.0 L 214.5,79.0 L 215.0,77.5 L 216.0,76.5 L 217.0,75.5 L 218.5,75.0 L 219.5,74.0 L 220.5,73.0 L 221.5,72.0 L 222.5,71.0 L 222.5,69.0 L 223.0,67.5 L 223.0,66.5 L 222.5,65.0 L 223.0,63.5 L 224.0,62.5 L 225.0,61.5 L 225.5,60.0 L 225.5,58.0 L 225.5,56.0 L 225.5,54.0 L 225.5,52.0 L 225.5,50.0 L 225.5,48.0 L 226.5,47.0 L 226.5,45.0 L 226.5,43.0 L 227.5,42.0 L 227.5,40.0 L 226.5,39.0 L 227.5,38.0 L 229.0,37.5 L 230.0,36.5 L 230.0,35.5 L 229.5,34.0 L 230.5,33.0 L 231.0,31.5 L 231.5,30.0 L 232.5,29.0 L 233.5,28.0 L 235.0,27.5 L 236.0,26.5 L 237.0,25.5 L 237.5,24.0 L 237.5,22.0 L 238.5,21.0 L 239.0,19.5 L 240.0,18.5 L 241.0,17.5 L 241.5,16.0 L 242.5,15.0 L 244.0,14.5 L 245.0,13.5 L 246.0,14.5 L 247.0,13.5 L 248.0,12.5 L 249.5,12.0 L 251.0,11.5 L 252.0,10.5 L 253.0,9.5 L 253.5,8.0 L 253.5,6.0 L 254.0,4.5 L 254.5,3.0 L 255.5,2.0 L 256.0,0.5 Z" />
    <path d="M 309.5,90.0 L 310.5,89.0 L 311.5,88.0 L 312.5,87.0 L 311.5,86.0 L 310.5,85.0 L 311.5,84.0 L 312.5,83.0 L 314.0,82.5 L 315.0,81.5 L 316.0,82.5 L 317.5,82.0 L 319.0,81.5 L 320.5,81.0 L 321.5,80.0 L 322.5,79.0 L 321.5,78.0 L 320.0,77.5 L 318.0,77.5 L 316.5,77.0 L 315.0,76.5 L 313.5,77.0 L 312.5,77.0 L 311.0,76.5 L 309.0,76.5 L 307.0,76.5 L 305.0,76.5 L 303.0,76.5 L 301.5,77.0 L 300.0,77.5 L 299.0,78.5 L 297.5,78.0 L 296.0,77.5 L 294.0,77.5 L 292.0,77.5 L 290.0,77.5 L 288.0,77.5 L 286.0,77.5 L 285.0,76.5 L 283.0,76.5 L 282.0,77.5 L 280.0,77.5 L 279.0,78.5 L 278.0,77.5 L 277.0,78.5 L 277.0,79.5 L 278.0,80.5 L 279.5,81.0 L 281.0,81.5 L 282.0,82.5 L 283.0,83.5 L 285.0,83.5 L 287.0,83.5 L 288.5,84.0 L 289.5,84.0 L 291.0,83.5 L 292.0,82.5 L 293.0,81.5 L 294.0,82.5 L 295.0,83.5 L 296.0,84.5 L 297.0,83.5 L 298.0,82.5 L 299.5,83.0 L 300.5,84.0 L 299.5,85.0 L 300.5,86.0 L 301.5,86.0 L 302.5,85.0 L 303.0,83.5 L 304.0,82.5 L 306.0,82.5 L 307.0,83.5 L 308.5,84.0 L 309.5,85.0 L 308.5,86.0 L 307.5,86.0 L 306.5,86.0 L 305.5,86.0 L 304.5,86.0 L 303.5,87.0 L 304.5,88.0 L 306.0,88.5 L 307.0,89.5 L 308.5,90.0 L 309.5,90.0 Z" />
    <path d="M 270.5,185.0 L 271.5,184.0 L 272.0,182.5 L 273.0,181.5 L 274.0,180.5 L 275.0,179.5 L 276.0,180.5 L 277.0,181.5 L 278.0,182.5 L 279.0,183.5 L 280.5,184.0 L 282.0,184.5 L 283.5,184.0 L 284.5,183.0 L 284.0,181.5 L 283.0,180.5 L 282.0,179.5 L 281.5,178.0 L 281.5,176.0 L 281.0,174.5 L 280.0,173.5 L 279.5,172.0 L 278.5,171.0 L 278.0,169.5 L 277.5,168.0 L 276.5,167.0 L 276.5,165.0 L 275.5,164.0 L 276.0,162.5 L 277.0,161.5 L 278.0,160.5 L 279.0,159.5 L 280.5,159.0 L 282.0,158.5 L 284.0,158.5 L 286.0,158.5 L 288.0,158.5 L 290.0,158.5 L 292.0,158.5 L 293.0,159.5 L 294.5,159.0 L 295.5,158.0 L 296.0,156.5 L 297.0,155.5 L 298.5,156.0 L 300.0,156.5 L 301.0,157.5 L 302.0,158.5 L 303.0,159.5 L 304.0,160.5 L 304.0,161.5 L 303.5,163.0 L 304.5,164.0 L 304.5,166.0 L 303.5,167.0 L 302.5,168.0 L 301.5,169.0 L 302.0,170.5 L 302.5,172.0 L 303.5,173.0 L 304.5,174.0 L 305.0,175.5 L 306.0,176.5 L 307.0,177.5 L 308.5,177.0 L 309.5,176.0 L 310.0,174.5 L 310.0,173.5 L 309.0,172.5 L 308.0,171.5 L 307.0,170.5 L 306.5,169.0 L 306.5,167.0 L 307.5,166.0 L 308.5,165.0 L 308.5,163.0 L 309.0,161.5 L 310.0,160.5 L 311.5,160.0 L 312.5,159.0 L 311.5,158.0 L 310.5,157.0 L 310.5,155.0 L 310.5,153.0 L 310.5,151.0 L 310.5,149.0 L 310.5,147.0 L 310.5,145.0 L 309.5,144.0 L 309.0,142.5 L 308.0,141.5 L 307.5,140.0 L 307.0,138.5 L 306.0,137.5 L 305.0,136.5 L 305.0,135.5 L 305.0,134.5 L 304.0,133.5 L 303.0,132.5 L 301.5,132.0 L 300.5,131.0 L 300.5,129.0 L 299.5,128.0 L 299.5,126.0 L 299.0,124.5 L 298.0,123.5 L 297.0,124.5 L 296.0,123.5 L 296.0,122.5 L 297.0,121.5 L 297.5,120.0 L 297.0,118.5 L 296.0,117.5 L 296.0,116.5 L 297.0,115.5 L 298.0,114.5 L 299.0,113.5 L 300.0,114.5 L 300.5,116.0 L 300.0,117.5 L 300.0,118.5 L 301.0,119.5 L 302.0,120.5 L 303.0,119.5 L 304.0,118.5 L 304.0,117.5 L 304.0,116.5 L 305.0,115.5 L 306.0,114.5 L 307.0,113.5 L 309.0,113.5 L 310.0,112.5 L 311.0,111.5 L 311.0,110.5 L 311.0,109.5 L 311.5,108.0 L 310.5,107.0 L 309.5,106.0 L 308.5,105.0 L 307.5,104.0 L 308.5,103.0 L 307.5,102.0 L 306.5,102.0 L 305.5,103.0 L 306.5,104.0 L 305.5,105.0 L 304.5,106.0 L 303.5,106.0 L 302.5,106.0 L 301.5,107.0 L 300.5,107.0 L 299.5,106.0 L 298.5,105.0 L 297.5,105.0 L 296.0,105.5 L 294.0,105.5 L 293.0,104.5 L 291.5,105.0 L 290.5,105.0 L 289.5,104.0 L 290.5,103.0 L 292.0,102.5 L 293.0,101.5 L 294.0,100.5 L 296.0,100.5 L 297.0,99.5 L 299.0,99.5 L 300.0,98.5 L 301.0,97.5 L 302.0,98.5 L 303.0,99.5 L 304.0,98.5 L 305.0,99.5 L 306.0,100.5 L 307.5,100.0 L 308.5,99.0 L 308.5,97.0 L 308.5,95.0 L 307.5,94.0 L 306.0,93.5 L 304.5,93.0 L 303.5,92.0 L 302.5,91.0 L 301.5,90.0 L 300.5,90.0 L 299.5,91.0 L 298.0,91.5 L 296.0,91.5 L 294.5,91.0 L 293.0,90.5 L 292.0,91.5 L 290.5,91.0 L 289.5,90.0 L 288.5,90.0 L 287.5,91.0 L 288.5,92.0 L 287.5,93.0 L 286.5,94.0 L 286.0,95.5 L 285.5,97.0 L 286.0,98.5 L 287.0,99.5 L 288.0,100.5 L 288.5,102.0 L 289.5,103.0 L 288.5,104.0 L 287.5,105.0 L 286.0,105.5 L 284.0,105.5 L 283.0,106.5 L 282.0,107.5 L 281.0,108.5 L 279.5,109.0 L 278.5,110.0 L 279.5,111.0 L 278.5,112.0 L 277.0,112.5 L 275.5,113.0 L 274.0,113.5 L 273.0,112.5 L 272.0,111.5 L 270.0,111.5 L 268.0,111.5 L 267.0,112.5 L 266.5,114.0 L 267.5,115.0 L 268.5,116.0 L 270.0,116.5 L 271.0,115.5 L 272.0,114.5 L 273.0,113.5 L 274.0,114.5 L 275.0,115.5 L 275.0,116.5 L 274.0,117.5 L 272.5,118.0 L 271.5,119.0 L 270.5,120.0 L 271.5,121.0 L 272.5,122.0 L 273.5,123.0 L 272.5,124.0 L 271.5,125.0 L 272.5,126.0 L 273.5,126.0 L 275.0,125.5 L 277.0,125.5 L 278.5,126.0 L 279.5,126.0 L 280.5,125.0 L 281.5,124.0 L 281.0,122.5 L 280.0,121.5 L 280.0,120.5 L 281.0,119.5 L 282.5,120.0 L 283.5,120.0 L 284.5,119.0 L 285.5,119.0 L 286.5,120.0 L 285.5,121.0 L 286.0,122.5 L 286.0,123.5 L 285.5,125.0 L 286.5,126.0 L 287.0,127.5 L 287.0,128.5 L 286.0,129.5 L 284.5,130.0 L 283.5,131.0 L 283.5,133.0 L 282.5,134.0 L 281.5,135.0 L 280.5,136.0 L 279.5,137.0 L 278.0,137.5 L 277.0,138.5 L 276.0,139.5 L 275.5,141.0 L 276.5,142.0 L 277.5,143.0 L 277.0,144.5 L 276.5,146.0 L 276.5,148.0 L 275.5,149.0 L 275.0,150.5 L 274.0,151.5 L 273.0,150.5 L 272.0,151.5 L 271.5,153.0 L 272.5,154.0 L 272.0,155.5 L 271.5,157.0 L 271.5,159.0 L 270.5,160.0 L 270.5,162.0 L 271.5,163.0 L 270.5,164.0 L 271.5,165.0 L 271.0,166.5 L 270.5,168.0 L 269.5,169.0 L 270.0,170.5 L 270.5,172.0 L 270.0,173.5 L 270.0,174.5 L 270.0,175.5 L 269.5,177.0 L 269.5,179.0 L 269.5,181.0 L 268.5,182.0 L 267.5,183.0 L 268.5,184.0 L 269.5,185.0 L 270.5,185.0 Z" />
    <path d="M 380.0,165.5 L 378.5,165.0 L 377.0,164.5 L 376.0,163.5 L 375.5,162.0 L 375.5,160.0 L 375.5,158.0 L 376.5,157.0 L 376.0,155.5 L 376.0,154.5 L 376.5,153.0 L 375.5,152.0 L 374.5,151.0 L 373.5,150.0 L 373.0,148.5 L 372.5,147.0 L 373.5,146.0 L 374.0,144.5 L 375.0,143.5 L 375.0,142.5 L 375.0,141.5 L 376.0,140.5 L 378.0,140.5 L 379.0,141.5 L 379.0,142.5 L 378.0,143.5 L 377.5,145.0 L 378.5,146.0 L 379.5,147.0 L 380.0,148.5 L 381.0,149.5 L 382.0,150.5 L 382.0,151.5 L 381.5,153.0 L 380.5,154.0 L 379.5,155.0 L 380.5,156.0 L 381.5,156.0 L 382.5,156.0 L 383.5,157.0 L 384.5,158.0 L 385.5,159.0 L 384.5,160.0 L 385.0,161.5 L 386.0,162.5 L 386.0,163.5 L 385.0,164.5 L 384.0,163.5 L 382.5,164.0 L 381.0,164.5 L 380.0,165.5 Z" />
    <path d="M 449.0,206.5 L 448.0,205.5 L 447.0,204.5 L 445.5,204.0 L 444.5,203.0 L 444.5,201.0 L 443.5,200.0 L 444.5,199.0 L 444.0,197.5 L 443.5,196.0 L 442.5,195.0 L 441.5,194.0 L 441.0,192.5 L 440.0,191.5 L 439.0,190.5 L 439.0,189.5 L 440.0,188.5 L 441.0,187.5 L 442.0,186.5 L 443.0,187.5 L 444.0,188.5 L 446.0,188.5 L 447.0,189.5 L 447.5,191.0 L 447.0,192.5 L 447.0,193.5 L 447.5,195.0 L 448.5,196.0 L 448.5,198.0 L 449.5,199.0 L 449.0,200.5 L 449.0,201.5 L 449.5,203.0 L 450.0,204.5 L 450.0,205.5 L 449.0,206.5 Z" />
    <path d="M 492.0,411.5 L 491.0,410.5 L 490.0,409.5 L 489.0,408.5 L 488.0,409.5 L 487.0,410.5 L 486.0,409.5 L 485.0,408.5 L 483.5,409.0 L 482.5,409.0 L 481.0,408.5 L 479.0,408.5 L 478.0,407.5 L 477.0,406.5 L 475.0,406.5 L 473.5,406.0 L 472.5,405.0 L 471.5,404.0 L 470.5,404.0 L 469.0,404.5 L 467.5,404.0 L 466.5,403.0 L 465.5,402.0 L 466.5,401.0 L 468.0,400.5 L 469.0,399.5 L 471.0,399.5 L 472.0,398.5 L 473.0,399.5 L 473.0,400.5 L 473.0,401.5 L 474.0,402.5 L 475.5,403.0 L 476.5,404.0 L 478.0,404.5 L 479.0,403.5 L 481.0,403.5 L 482.5,403.0 L 484.0,402.5 L 485.0,401.5 L 487.0,401.5 L 488.5,402.0 L 489.5,403.0 L 490.5,404.0 L 491.0,405.5 L 492.0,406.5 L 493.5,407.0 L 494.5,408.0 L 493.5,409.0 L 493.0,410.5 L 492.0,411.5 Z" />
    <path d="M 507.0,415.5 L 506.0,414.5 L 505.0,413.5 L 503.5,413.0 L 502.5,412.0 L 503.0,410.5 L 504.0,409.5 L 504.5,408.0 L 505.5,407.0 L 504.5,406.0 L 505.0,404.5 L 505.0,403.5 L 504.0,402.5 L 504.0,401.5 L 505.0,400.5 L 506.5,401.0 L 508.0,401.5 L 509.0,400.5 L 510.0,401.5 L 511.5,402.0 L 512.5,403.0 L 513.5,404.0 L 514.5,404.0 L 516.0,403.5 L 518.0,403.5 L 520.0,403.5 L 521.0,402.5 L 523.0,402.5 L 525.0,402.5 L 527.0,402.5 L 528.0,403.5 L 530.0,403.5 L 532.0,403.5 L 534.0,403.5 L 536.0,403.5 L 538.0,403.5 L 539.0,404.5 L 540.5,405.0 L 541.5,405.0 L 542.5,404.0 L 544.0,403.5 L 545.0,404.5 L 546.0,405.5 L 547.0,406.5 L 548.0,405.5 L 550.0,405.5 L 551.5,405.0 L 552.5,404.0 L 554.0,403.5 L 555.5,404.0 L 556.5,405.0 L 555.5,406.0 L 554.5,407.0 L 555.5,408.0 L 554.5,409.0 L 553.5,410.0 L 554.5,411.0 L 553.5,412.0 L 552.0,412.5 L 550.5,412.0 L 549.5,411.0 L 548.5,411.0 L 547.0,411.5 L 546.0,412.5 L 545.0,413.5 L 544.0,412.5 L 543.0,411.5 L 541.5,412.0 L 540.5,413.0 L 539.0,413.5 L 538.0,412.5 L 536.0,412.5 L 534.0,412.5 L 532.0,412.5 L 531.0,413.5 L 529.5,413.0 L 528.0,412.5 L 527.0,411.5 L 525.5,412.0 L 524.5,412.0 L 523.5,411.0 L 522.0,410.5 L 521.0,411.5 L 520.0,412.5 L 519.0,411.5 L 518.5,410.0 L 517.5,409.0 L 516.5,409.0 L 515.5,410.0 L 516.0,411.5 L 516.0,412.5 L 515.0,413.5 L 513.5,413.0 L 512.5,413.0 L 511.5,414.0 L 510.5,414.0 L 509.0,413.5 L 508.0,414.5 L 507.0,415.5 Z" />
    <path d="M 563.0,411.5 L 561.0,411.5 L 559.5,411.0 L 558.5,410.0 L 558.0,408.5 L 557.5,407.0 L 558.0,405.5 L 559.0,404.5 L 561.0,404.5 L 562.0,403.5 L 563.0,402.5 L 564.0,401.5 L 565.5,401.0 L 567.0,400.5 L 569.0,400.5 L 571.0,400.5 L 573.0,400.5 L 574.0,401.5 L 574.5,403.0 L 574.0,404.5 L 573.0,405.5 L 571.0,405.5 L 569.0,405.5 L 568.0,406.5 L 567.0,407.5 L 566.0,408.5 L 565.0,409.5 L 564.0,410.5 L 563.0,411.5 Z" />
    <path d="M 620.0,413.5 L 618.0,413.5 L 617.0,414.5 L 616.0,415.5 L 615.0,414.5 L 614.5,413.0 L 614.5,411.0 L 613.5,410.0 L 612.5,410.0 L 611.5,410.0 L 610.5,409.0 L 609.0,408.5 L 608.0,409.5 L 607.0,410.5 L 606.0,409.5 L 605.5,408.0 L 605.5,406.0 L 606.0,404.5 L 606.0,403.5 L 606.0,402.5 L 607.0,401.5 L 608.0,402.5 L 609.0,403.5 L 610.0,404.5 L 611.0,403.5 L 613.0,403.5 L 615.0,403.5 L 616.5,404.0 L 618.0,404.5 L 620.0,404.5 Z" />
    <path d="M 581.0,414.5 L 579.0,414.5 L 578.0,413.5 L 577.5,412.0 L 578.5,411.0 L 579.0,409.5 L 579.5,408.0 L 579.5,406.0 L 580.5,405.0 L 582.0,404.5 L 584.0,404.5 L 586.0,404.5 L 587.0,403.5 L 589.0,403.5 L 590.0,402.5 L 591.0,403.5 L 591.0,404.5 L 590.5,406.0 L 590.5,408.0 L 589.5,409.0 L 588.5,409.0 L 587.5,408.0 L 586.5,408.0 L 585.5,409.0 L 585.5,411.0 L 584.5,412.0 L 583.5,413.0 L 582.0,413.5 L 581.0,414.5 Z" />
    <path d="M 44.0,420.5 L 42.0,420.5 L 40.0,420.5 L 39.0,419.5 L 37.0,419.5 L 35.0,419.5 L 33.5,419.0 L 32.5,418.0 L 31.5,417.0 L 32.0,415.5 L 32.0,414.5 L 31.5,413.0 L 32.5,412.0 L 34.0,411.5 L 35.0,410.5 L 36.0,409.5 L 38.0,409.5 L 39.0,410.5 L 40.0,411.5 L 40.5,413.0 L 41.5,414.0 L 43.0,414.5 L 44.0,415.5 L 45.0,416.5 L 47.0,416.5 L 48.0,415.5 L 49.0,416.5 L 49.5,418.0 L 48.5,419.0 L 47.0,419.5 L 45.0,419.5 L 44.0,420.5 Z" />
    <path d="M 548.0,434.5 L 547.0,433.5 L 546.5,432.0 L 547.5,431.0 L 549.0,430.5 L 550.0,431.5 L 551.5,431.0 L 552.5,430.0 L 551.5,429.0 L 550.5,428.0 L 549.5,427.0 L 549.0,425.5 L 548.5,424.0 L 548.5,422.0 L 549.5,421.0 L 551.0,420.5 L 552.0,421.5 L 553.0,420.5 L 555.0,420.5 L 557.0,420.5 L 558.0,421.5 L 559.0,422.5 L 560.5,422.0 L 562.0,421.5 L 564.0,421.5 L 566.0,421.5 L 567.0,422.5 L 568.5,422.0 L 569.5,422.0 L 570.5,423.0 L 571.5,424.0 L 573.0,424.5 L 574.0,425.5 L 574.5,427.0 L 574.0,428.5 L 573.0,429.5 L 571.0,429.5 L 569.0,429.5 L 568.0,428.5 L 567.0,429.5 L 567.0,430.5 L 567.0,431.5 L 566.0,432.5 L 564.0,432.5 L 562.5,433.0 L 561.0,433.5 L 559.5,433.0 L 558.0,432.5 L 557.0,431.5 L 555.0,431.5 L 553.5,432.0 L 552.5,433.0 L 551.5,433.0 L 550.0,432.5 L 549.0,433.5 L 548.0,434.5 Z" />
    <path d="M 397.5,443.0 L 396.5,442.0 L 395.5,441.0 L 394.5,440.0 L 393.5,439.0 L 392.0,438.5 L 391.0,437.5 L 390.0,438.5 L 389.0,439.5 L 388.0,440.5 L 386.0,440.5 L 384.0,440.5 L 382.0,440.5 L 380.0,440.5 L 379.0,439.5 L 377.0,439.5 L 376.0,438.5 L 375.0,437.5 L 374.0,436.5 L 373.0,435.5 L 372.0,436.5 L 370.5,436.0 L 369.5,435.0 L 370.0,433.5 L 371.0,432.5 L 371.0,431.5 L 370.5,430.0 L 370.0,428.5 L 370.0,427.5 L 371.0,426.5 L 372.0,425.5 L 374.0,425.5 L 375.0,426.5 L 377.0,426.5 L 378.0,427.5 L 380.0,427.5 L 381.5,428.0 L 382.5,429.0 L 383.5,430.0 L 384.5,430.0 L 385.5,429.0 L 386.5,428.0 L 387.5,427.0 L 389.0,426.5 L 391.0,426.5 L 392.0,425.5 L 394.0,425.5 L 395.5,425.0 L 397.0,424.5 L 399.0,424.5 L 400.0,425.5 L 401.0,426.5 L 401.5,428.0 L 402.5,429.0 L 404.0,429.5 L 406.0,429.5 L 407.0,430.5 L 408.0,431.5 L 408.5,433.0 L 407.5,434.0 L 406.5,435.0 L 405.5,436.0 L 404.5,437.0 L 403.5,438.0 L 402.5,439.0 L 401.5,440.0 L 400.5,441.0 L 399.5,442.0 L 398.5,443.0 Z" />
    <path d="M 500.0,434.5 L 498.0,434.5 L 496.0,434.5 L 494.5,434.0 L 493.0,433.5 L 491.0,433.5 L 489.0,433.5 L 487.5,433.0 L 486.5,432.0 L 485.5,431.0 L 486.5,430.0 L 488.0,429.5 L 489.0,428.5 L 490.0,427.5 L 492.0,427.5 L 493.5,428.0 L 495.0,428.5 L 496.0,429.5 L 498.0,429.5 L 499.5,430.0 L 500.5,431.0 L 502.0,431.5 L 503.0,430.5 L 504.0,431.5 L 504.0,432.5 L 503.0,433.5 L 502.0,432.5 L 501.0,433.5 L 500.0,434.5 Z" />
  </g>
  <g fill="#e0e2e4" stroke="none">
    <path d="M 306.0,82.5 L 305.0,81.5 L 303.0,81.5 L 301.0,81.5 L 300.0,82.5 L 298.0,82.5 L 296.5,82.0 L 295.5,82.0 L 294.0,82.5 L 293.0,81.5 L 291.0,81.5 L 289.0,81.5 L 287.0,81.5 L 285.0,81.5 L 283.0,81.5 L 281.0,81.5 L 279.5,81.0 L 278.5,80.0 L 279.0,78.5 L 280.0,77.5 L 281.5,77.0 L 283.0,76.5 L 285.0,76.5 L 287.0,76.5 L 289.0,76.5 L 291.0,76.5 L 293.0,76.5 L 295.0,76.5 L 296.5,77.0 L 298.0,77.5 L 299.5,77.0 L 301.0,76.5 L 302.0,75.5 L 304.0,75.5 L 305.5,76.0 L 307.0,76.5 L 308.0,75.5 L 310.0,75.5 L 311.5,76.0 L 313.0,76.5 L 314.0,75.5 L 316.0,75.5 L 317.0,76.5 L 318.0,77.5 L 319.5,77.0 L 320.5,77.0 L 321.5,78.0 L 322.5,79.0 L 321.5,80.0 L 320.5,81.0 L 319.0,81.5 L 317.0,81.5 L 316.0,80.5 L 315.0,81.5 L 313.0,81.5 L 311.0,81.5 L 309.0,81.5 L 307.0,81.5 L 306.0,82.5 Z" />
    <path d="M 474.0,220.5 L 473.0,219.5 L 472.5,218.0 L 473.0,216.5 L 473.5,215.0 L 472.5,214.0 L 472.5,212.0 L 471.5,211.0 L 471.5,209.0 L 471.0,207.5 L 470.5,206.0 L 469.5,205.0 L 469.0,203.5 L 468.5,202.0 L 467.5,201.0 L 467.5,199.0 L 466.5,198.0 L 465.5,197.0 L 465.5,195.0 L 464.5,194.0 L 464.5,192.0 L 463.5,191.0 L 462.5,190.0 L 461.5,189.0 L 461.5,187.0 L 461.0,185.5 L 460.0,184.5 L 459.0,183.5 L 458.5,182.0 L 458.0,180.5 L 457.5,179.0 L 456.5,178.0 L 457.5,177.0 L 456.5,176.0 L 455.0,175.5 L 454.0,174.5 L 453.0,173.5 L 452.5,172.0 L 451.5,171.0 L 450.5,170.0 L 449.0,169.5 L 448.0,168.5 L 447.0,167.5 L 446.0,168.5 L 445.0,169.5 L 444.0,170.5 L 443.0,169.5 L 441.5,169.0 L 440.5,168.0 L 439.0,167.5 L 438.0,166.5 L 437.5,165.0 L 436.5,164.0 L 435.5,163.0 L 434.5,162.0 L 433.5,161.0 L 432.0,160.5 L 431.0,159.5 L 430.5,158.0 L 429.5,157.0 L 428.0,156.5 L 426.5,157.0 L 425.5,158.0 L 426.5,159.0 L 427.5,160.0 L 428.5,161.0 L 428.0,162.5 L 427.0,163.5 L 427.0,164.5 L 428.0,165.5 L 428.0,166.5 L 427.0,167.5 L 425.5,168.0 L 424.0,168.5 L 423.0,167.5 L 422.0,168.5 L 421.0,169.5 L 421.0,170.5 L 422.0,171.5 L 422.0,172.5 L 421.0,173.5 L 419.0,173.5 L 417.5,173.0 L 416.0,172.5 L 415.0,173.5 L 414.0,174.5 L 413.0,173.5 L 412.0,172.5 L 411.0,171.5 L 410.0,170.5 L 410.0,169.5 L 411.0,168.5 L 413.0,168.5 L 414.0,169.5 L 416.0,169.5 L 417.5,170.0 L 418.5,170.0 L 419.5,169.0 L 418.5,168.0 L 419.0,166.5 L 420.0,165.5 L 420.0,164.5 L 419.0,163.5 L 418.0,164.5 L 416.0,164.5 L 414.0,164.5 L 413.0,163.5 L 412.0,162.5 L 411.0,161.5 L 410.0,162.5 L 410.0,163.5 L 411.0,164.5 L 411.0,165.5 L 410.0,166.5 L 408.5,166.0 L 407.0,165.5 L 406.0,164.5 L 405.0,163.5 L 403.0,163.5 L 402.0,162.5 L 400.5,163.0 L 399.5,164.0 L 398.0,164.5 L 397.0,163.5 L 396.0,162.5 L 395.5,161.0 L 394.5,160.0 L 394.0,158.5 L 393.5,157.0 L 393.5,155.0 L 393.0,153.5 L 392.5,152.0 L 391.5,151.0 L 390.5,150.0 L 389.5,149.0 L 389.0,147.5 L 388.5,146.0 L 388.5,144.0 L 387.5,143.0 L 386.5,142.0 L 385.5,142.0 L 384.5,143.0 L 383.5,144.0 L 382.5,144.0 L 381.5,143.0 L 380.5,142.0 L 379.5,141.0 L 378.5,140.0 L 379.5,139.0 L 380.5,139.0 L 382.0,139.5 L 383.0,138.5 L 383.5,137.0 L 382.5,136.0 L 382.5,134.0 L 381.5,133.0 L 380.0,132.5 L 378.5,132.0 L 377.5,132.0 L 376.5,133.0 L 375.0,133.5 L 374.0,132.5 L 374.0,131.5 L 375.0,130.5 L 375.5,129.0 L 374.5,128.0 L 373.5,127.0 L 373.5,125.0 L 373.0,123.5 L 372.0,122.5 L 371.0,121.5 L 370.0,120.5 L 368.5,120.0 L 367.5,119.0 L 367.0,117.5 L 366.0,116.5 L 365.0,115.5 L 364.0,116.5 L 363.5,118.0 L 364.5,119.0 L 365.0,120.5 L 365.5,122.0 L 366.5,123.0 L 367.0,124.5 L 368.0,125.5 L 368.5,127.0 L 369.0,128.5 L 369.5,130.0 L 370.5,131.0 L 370.5,133.0 L 370.5,135.0 L 371.0,136.5 L 371.5,138.0 L 372.0,139.5 L 372.5,141.0 L 372.5,143.0 L 373.5,144.0 L 373.5,146.0 L 373.5,148.0 L 374.0,149.5 L 374.5,151.0 L 374.5,153.0 L 373.5,154.0 L 374.0,155.5 L 375.0,156.5 L 375.5,158.0 L 375.5,160.0 L 376.0,161.5 L 376.0,162.5 L 375.5,164.0 L 376.5,165.0 L 376.5,167.0 L 377.5,168.0 L 376.5,169.0 L 377.5,170.0 L 376.5,171.0 L 377.0,172.5 L 377.0,173.5 L 376.0,174.5 L 375.5,176.0 L 376.5,177.0 L 377.5,178.0 L 376.5,179.0 L 377.5,180.0 L 377.0,181.5 L 376.0,182.5 L 374.5,182.0 L 373.5,181.0 L 373.0,179.5 L 372.5,178.0 L 373.0,176.5 L 374.0,175.5 L 374.0,174.5 L 373.0,173.5 L 373.0,172.5 L 373.5,171.0 L 372.5,170.0 L 372.5,168.0 L 372.5,166.0 L 371.5,165.0 L 371.0,163.5 L 370.5,162.0 L 369.5,161.0 L 370.5,160.0 L 370.5,158.0 L 370.5,156.0 L 371.5,155.0 L 370.5,154.0 L 369.5,153.0 L 369.5,151.0 L 369.5,149.0 L 369.0,147.5 L 368.5,146.0 L 368.5,144.0 L 368.5,142.0 L 367.5,141.0 L 366.5,140.0 L 366.0,138.5 L 365.5,137.0 L 365.5,135.0 L 364.5,134.0 L 364.5,132.0 L 363.5,131.0 L 363.0,129.5 L 362.0,128.5 L 361.5,127.0 L 361.5,125.0 L 361.0,123.5 L 360.0,122.5 L 359.5,121.0 L 358.5,120.0 L 358.0,118.5 L 357.5,117.0 L 358.5,116.0 L 359.5,115.0 L 360.5,114.0 L 361.5,113.0 L 360.5,112.0 L 360.0,110.5 L 359.0,109.5 L 357.5,109.0 L 356.5,108.0 L 356.0,106.5 L 355.5,105.0 L 356.0,103.5 L 357.0,102.5 L 358.0,101.5 L 360.0,101.5 L 361.0,102.5 L 362.0,103.5 L 363.5,104.0 L 365.0,104.5 L 366.0,105.5 L 367.0,106.5 L 368.0,107.5 L 369.0,108.5 L 370.0,109.5 L 371.5,110.0 L 372.5,111.0 L 373.5,112.0 L 374.5,113.0 L 376.0,113.5 L 377.0,114.5 L 377.5,116.0 L 378.5,117.0 L 379.5,118.0 L 380.5,119.0 L 381.5,120.0 L 382.5,121.0 L 383.5,122.0 L 384.5,123.0 L 385.5,124.0 L 386.5,125.0 L 387.0,126.5 L 388.0,127.5 L 389.0,128.5 L 390.0,129.5 L 391.0,130.5 L 392.0,131.5 L 394.0,131.5 L 395.0,132.5 L 397.0,132.5 L 399.0,132.5 L 401.0,132.5 L 402.5,133.0 L 404.0,133.5 L 406.0,133.5 L 407.0,134.5 L 408.0,135.5 L 409.0,136.5 L 410.0,137.5 L 412.0,137.5 L 414.0,137.5 L 415.0,138.5 L 417.0,138.5 L 418.0,139.5 L 419.0,140.5 L 420.5,141.0 L 421.5,142.0 L 423.0,142.5 L 424.5,143.0 L 426.0,143.5 L 428.0,143.5 L 429.0,144.5 L 430.5,145.0 L 431.5,146.0 L 433.0,146.5 L 434.0,147.5 L 435.0,148.5 L 436.0,149.5 L 437.0,150.5 L 438.5,151.0 L 440.0,151.5 L 441.5,152.0 L 442.5,153.0 L 443.5,154.0 L 445.0,154.5 L 446.0,155.5 L 447.5,156.0 L 448.5,157.0 L 448.5,159.0 L 449.5,160.0 L 450.5,161.0 L 451.5,162.0 L 452.5,163.0 L 453.5,164.0 L 455.0,164.5 L 456.0,165.5 L 457.0,166.5 L 458.0,167.5 L 458.5,169.0 L 459.5,170.0 L 460.5,171.0 L 460.5,173.0 L 461.5,174.0 L 460.5,175.0 L 461.5,176.0 L 462.5,177.0 L 463.0,178.5 L 463.5,180.0 L 464.5,181.0 L 464.5,183.0 L 465.5,184.0 L 466.5,185.0 L 466.5,187.0 L 467.0,188.5 L 467.5,190.0 L 468.5,191.0 L 469.5,192.0 L 470.5,193.0 L 471.5,194.0 L 472.5,195.0 L 472.0,196.5 L 471.5,198.0 L 472.5,199.0 L 473.5,200.0 L 473.5,202.0 L 474.0,203.5 L 475.0,204.5 L 475.5,206.0 L 475.5,208.0 L 476.5,209.0 L 476.5,211.0 L 476.5,213.0 L 476.0,214.5 L 475.5,216.0 L 476.5,217.0 L 476.0,218.5 L 475.0,219.5 L 474.0,220.5 Z" />
    <path d="M 0.0,256.5 L 2.0,256.5 L 4.0,256.5 L 6.0,256.5 L 7.5,257.0 L 8.5,257.0 L 10.0,256.5 L 12.0,256.5 L 14.0,256.5 L 15.0,257.5 L 17.0,257.5 L 18.5,258.0 L 19.5,259.0 L 21.0,259.5 L 23.0,259.5 L 25.0,259.5 L 27.0,259.5 L 29.0,259.5 L 31.0,259.5 L 32.0,258.5 L 34.0,258.5 L 36.0,258.5 L 37.0,257.5 L 39.0,257.5 L 41.0,257.5 L 43.0,257.5 L 45.0,257.5 L 47.0,257.5 L 49.0,257.5 L 51.0,257.5 L 53.0,257.5 L 55.0,257.5 L 57.0,257.5 L 58.0,258.5 L 60.0,258.5 L 62.0,258.5 L 63.5,258.0 L 65.0,257.5 L 67.0,257.5 L 68.0,256.5 L 70.0,256.5 L 72.0,256.5 L 74.0,256.5 L 76.0,256.5 L 78.0,256.5 L 80.0,256.5 L 82.0,256.5 L 84.0,256.5 L 86.0,256.5 L 88.0,256.5 L 90.0,256.5 L 91.0,255.5 L 93.0,255.5 L 94.0,254.5 L 96.0,254.5 L 98.0,254.5 L 99.5,255.0 L 101.0,255.5 L 102.0,256.5 L 104.0,256.5 L 105.5,257.0 L 107.0,257.5 L 108.5,257.0 L 110.0,256.5 L 111.5,256.0 L 113.0,255.5 L 115.0,255.5 L 116.0,254.5 L 118.0,254.5 L 119.5,254.0 L 121.0,253.5 L 122.5,253.0 L 123.5,253.0 L 125.0,253.5 L 127.0,253.5 L 129.0,253.5 L 130.0,254.5 L 132.0,254.5 L 133.5,255.0 L 135.0,255.5 L 137.0,255.5 L 139.0,255.5 L 141.0,255.5 L 143.0,255.5 L 144.0,254.5 L 146.0,254.5 L 148.0,254.5 L 150.0,254.5 L 151.5,254.0 L 153.0,253.5 L 155.0,253.5 L 157.0,253.5 L 159.0,253.5 L 161.0,253.5 L 163.0,253.5 L 164.5,254.0 L 166.0,254.5 L 168.0,254.5 L 170.0,254.5 L 172.0,254.5 L 174.0,254.5 L 176.0,254.5 L 178.0,254.5 L 180.0,254.5 L 182.0,254.5 L 184.0,254.5 L 185.5,254.0 L 187.0,253.5 L 189.0,253.5 L 191.0,253.5 L 193.0,253.5 L 195.0,253.5 L 196.5,254.0 L 198.0,254.5 L 199.5,254.0 L 201.0,253.5 L 203.0,253.5 L 205.0,253.5 L 207.0,253.5 L 209.0,253.5 L 211.0,253.5 L 212.0,252.5 L 214.0,252.5 L 216.0,252.5 L 218.0,252.5 L 220.0,252.5 L 222.0,252.5 L 224.0,252.5 L 226.0,252.5 L 228.0,252.5 L 230.0,252.5 L 231.5,253.0 L 233.0,253.5 L 234.0,254.5 L 236.0,254.5 L 238.0,254.5 L 239.5,254.0 L 241.0,253.5 L 242.0,252.5 L 242.5,251.0 L 241.5,250.0 L 241.0,248.5 L 241.0,247.5 L 242.0,246.5 L 242.5,245.0 L 243.5,244.0 L 242.5,243.0 L 241.5,242.0 L 242.5,241.0 L 243.5,240.0 L 243.5,238.0 L 244.0,236.5 L 244.5,235.0 L 244.5,233.0 L 244.5,231.0 L 245.0,229.5 L 246.0,228.5 L 246.0,227.5 L 245.0,226.5 L 244.5,225.0 L 244.5,223.0 L 245.5,222.0 L 245.5,220.0 L 245.5,218.0 L 246.0,216.5 L 246.5,215.0 L 246.5,213.0 L 245.5,212.0 L 244.5,211.0 L 244.5,209.0 L 243.5,208.0 L 242.5,207.0 L 242.0,205.5 L 241.0,204.5 L 240.5,203.0 L 240.0,201.5 L 239.5,200.0 L 239.0,198.5 L 238.0,197.5 L 237.5,196.0 L 237.5,194.0 L 236.5,193.0 L 235.5,192.0 L 234.5,191.0 L 234.5,189.0 L 234.5,187.0 L 234.0,185.5 L 233.0,184.5 L 232.5,183.0 L 231.5,182.0 L 230.5,181.0 L 230.5,179.0 L 230.5,177.0 L 231.5,176.0 L 230.5,175.0 L 230.5,173.0 L 230.5,171.0 L 229.5,170.0 L 229.5,168.0 L 229.5,166.0 L 229.5,164.0 L 228.5,163.0 L 228.5,161.0 L 228.5,159.0 L 227.5,158.0 L 228.5,157.0 L 228.5,155.0 L 228.5,153.0 L 227.5,152.0 L 228.5,151.0 L 228.5,149.0 L 229.5,148.0 L 228.5,147.0 L 228.5,145.0 L 229.0,143.5 L 229.5,142.0 L 230.5,141.0 L 230.5,139.0 L 230.0,137.5 L 229.5,136.0 L 230.5,135.0 L 230.5,133.0 L 230.0,131.5 L 229.0,130.5 L 227.5,130.0 L 226.0,129.5 L 224.0,129.5 L 222.0,129.5 L 220.0,129.5 L 218.0,129.5 L 216.0,129.5 L 215.0,128.5 L 213.0,128.5 L 211.0,128.5 L 210.0,129.5 L 208.0,129.5 L 207.0,130.5 L 205.5,130.0 L 204.0,129.5 L 202.5,129.0 L 201.5,128.0 L 200.5,127.0 L 199.5,126.0 L 198.5,125.0 L 198.5,123.0 L 199.5,122.0 L 201.0,121.5 L 202.5,121.0 L 203.5,120.0 L 204.5,119.0 L 205.5,118.0 L 207.0,117.5 L 209.0,117.5 L 211.0,117.5 L 213.0,117.5 L 215.0,117.5 L 216.0,118.5 L 218.0,118.5 L 220.0,118.5 L 222.0,118.5 L 223.0,117.5 L 224.0,116.5 L 225.0,117.5 L 226.5,118.0 L 228.0,118.5 L 230.0,118.5 L 232.0,118.5 L 233.5,118.0 L 234.5,117.0 L 235.5,116.0 L 236.0,114.5 L 237.0,113.5 L 238.0,112.5 L 239.5,112.0 L 241.0,111.5 L 242.0,112.5 L 243.0,113.5 L 244.0,112.5 L 245.0,111.5 L 246.0,110.5 L 247.0,109.5 L 248.0,108.5 L 249.0,107.5 L 250.0,106.5 L 251.5,107.0 L 252.5,108.0 L 251.5,109.0 L 251.0,110.5 L 250.5,112.0 L 250.0,113.5 L 249.0,114.5 L 248.0,115.5 L 247.5,117.0 L 246.5,118.0 L 247.0,119.5 L 247.5,121.0 L 246.5,122.0 L 245.5,123.0 L 244.5,124.0 L 244.0,125.5 L 243.5,127.0 L 243.0,128.5 L 242.5,130.0 L 242.5,132.0 L 243.5,133.0 L 242.5,134.0 L 242.5,136.0 L 242.0,137.5 L 241.5,139.0 L 242.0,140.5 L 242.0,141.5 L 241.0,142.5 L 239.5,143.0 L 238.5,144.0 L 237.5,145.0 L 236.5,146.0 L 236.5,148.0 L 235.5,149.0 L 235.5,151.0 L 235.5,153.0 L 236.5,154.0 L 236.0,155.5 L 235.5,157.0 L 236.0,158.5 L 236.0,159.5 L 235.5,161.0 L 235.5,163.0 L 235.5,165.0 L 236.5,166.0 L 236.5,168.0 L 236.5,170.0 L 236.5,172.0 L 237.5,173.0 L 237.5,175.0 L 238.5,176.0 L 239.0,177.5 L 239.5,179.0 L 239.5,181.0 L 239.5,183.0 L 240.5,184.0 L 241.5,185.0 L 242.5,186.0 L 242.0,187.5 L 241.5,189.0 L 241.5,191.0 L 242.5,192.0 L 243.0,193.5 L 244.0,194.5 L 244.5,196.0 L 245.5,197.0 L 245.5,199.0 L 246.5,200.0 L 247.0,201.5 L 248.0,202.5 L 249.5,203.0 L 250.5,204.0 L 250.5,206.0 L 251.5,207.0 L 252.5,208.0 L 252.5,210.0 L 253.5,211.0 L 254.0,212.5 L 254.5,214.0 L 255.5,215.0 L 255.5,217.0 L 256.5,218.0 L 256.0,219.5 L 255.5,221.0 L 256.5,222.0 L 257.5,223.0 L 257.0,224.5 L 256.0,225.5 L 255.5,227.0 L 256.5,228.0 L 256.5,230.0 L 256.0,231.5 L 255.0,232.5 L 254.0,233.5 L 253.0,234.5 L 252.5,236.0 L 252.5,238.0 L 251.5,239.0 L 251.5,241.0 L 252.0,242.5 L 252.5,244.0 L 252.5,246.0 L 252.0,247.5 L 251.5,249.0 L 250.5,250.0 L 251.0,251.5 L 251.0,252.5 L 250.5,254.0 L 251.5,255.0 L 251.5,257.0 L 251.5,259.0 L 251.0,260.5 L 250.0,261.5 L 250.0,262.5 L 251.0,263.5 L 251.5,265.0 L 252.5,266.0 L 251.5,267.0 L 252.0,268.5 L 252.5,270.0 L 251.5,271.0 L 252.0,272.5 L 253.0,273.5 L 253.5,275.0 L 253.5,277.0 L 254.5,278.0 L 254.5,280.0 L 254.5,282.0 L 254.5,284.0 L 255.5,285.0 L 255.5,287.0 L 255.5,289.0 L 255.5,291.0 L 256.0,292.5 L 257.0,293.5 L 257.5,295.0 L 257.0,296.5 L 257.0,297.5 L 257.0,298.5 L 256.5,300.0 L 257.5,301.0 L 258.5,302.0 L 257.5,303.0 L 258.0,304.5 L 258.5,306.0 L 259.0,307.5 L 260.0,308.5 L 260.5,310.0 L 260.5,312.0 L 259.5,313.0 L 258.5,314.0 L 259.0,315.5 L 260.0,316.5 L 261.0,317.5 L 261.0,318.5 L 261.0,319.5 L 261.5,321.0 L 262.5,322.0 L 262.5,324.0 L 261.5,325.0 L 262.0,326.5 L 262.5,328.0 L 263.5,329.0 L 264.5,330.0 L 263.5,331.0 L 262.5,332.0 L 263.5,333.0 L 265.0,333.5 L 266.0,334.5 L 266.5,336.0 L 265.5,337.0 L 265.5,339.0 L 265.5,341.0 L 266.5,342.0 L 267.5,343.0 L 268.0,344.5 L 269.0,345.5 L 269.0,346.5 L 269.0,347.5 L 270.0,348.5 L 270.5,350.0 L 271.5,351.0 L 271.5,353.0 L 272.5,354.0 L 273.5,355.0 L 274.5,356.0 L 275.5,357.0 L 276.5,358.0 L 277.5,359.0 L 278.0,360.5 L 279.0,361.5 L 280.5,362.0 L 281.5,363.0 L 281.5,365.0 L 280.5,366.0 L 281.0,367.5 L 282.0,368.5 L 283.0,369.5 L 283.5,371.0 L 284.5,372.0 L 285.5,373.0 L 284.5,374.0 L 284.5,376.0 L 284.5,378.0 L 285.5,379.0 L 286.5,380.0 L 287.5,381.0 L 288.5,382.0 L 289.5,383.0 L 290.5,384.0 L 290.5,386.0 L 290.5,388.0 L 290.5,390.0 L 291.5,391.0 L 292.5,392.0 L 293.5,393.0 L 292.5,394.0 L 293.0,395.5 L 293.5,397.0 L 294.5,398.0 L 293.5,399.0 L 293.0,400.5 L 292.0,401.5 L 292.0,402.5 L 292.0,403.5 L 291.0,404.5 L 290.0,405.5 L 289.0,406.5 L 287.0,406.5 L 285.5,406.0 L 284.5,405.0 L 283.0,404.5 L 281.0,404.5 L 279.0,404.5 L 278.0,405.5 L 276.0,405.5 L 274.0,405.5 L 272.0,405.5 L 271.0,404.5 L 269.0,404.5 L 268.0,403.5 L 267.0,404.5 L 266.0,403.5 L 264.5,403.0 L 263.0,402.5 L 261.0,402.5 L 260.0,403.5 L 260.0,404.5 L 261.0,405.5 L 262.0,406.5 L 262.5,408.0 L 262.0,409.5 L 261.0,410.5 L 260.0,411.5 L 259.0,412.5 L 257.5,412.0 L 256.5,411.0 L 255.5,410.0 L 254.5,410.0 L 253.5,411.0 L 253.0,412.5 L 252.0,413.5 L 250.5,414.0 L 249.5,415.0 L 248.5,416.0 L 247.0,416.5 L 245.5,416.0 L 244.0,415.5 L 242.5,415.0 L 241.5,415.0 L 240.5,416.0 L 239.0,416.5 L 237.0,416.5 L 236.0,415.5 L 234.0,415.5 L 232.0,415.5 L 230.0,415.5 L 229.0,414.5 L 228.0,413.5 L 226.0,413.5 L 224.0,413.5 L 222.5,413.0 L 221.5,413.0 L 220.5,414.0 L 219.5,415.0 L 218.5,416.0 L 217.0,416.5 L 215.5,417.0 L 214.0,417.5 L 213.0,416.5 L 212.0,417.5 L 210.5,417.0 L 209.0,416.5 L 208.0,415.5 L 207.0,416.5 L 206.0,417.5 L 204.5,418.0 L 203.5,418.0 L 202.5,417.0 L 201.5,416.0 L 200.0,415.5 L 199.0,416.5 L 198.0,415.5 L 197.5,414.0 L 197.0,412.5 L 196.0,411.5 L 194.5,411.0 L 193.0,410.5 L 191.0,410.5 L 189.5,411.0 L 188.0,411.5 L 186.0,411.5 L 185.0,412.5 L 183.0,412.5 L 181.0,412.5 L 179.0,412.5 L 177.5,413.0 L 176.5,414.0 L 177.5,415.0 L 178.5,416.0 L 177.5,417.0 L 176.0,417.5 L 174.5,417.0 L 173.5,416.0 L 173.0,414.5 L 172.0,413.5 L 171.0,414.5 L 169.0,414.5 L 168.0,413.5 L 167.0,414.5 L 165.0,414.5 L 164.0,413.5 L 163.0,412.5 L 161.5,412.0 L 160.5,411.0 L 159.5,410.0 L 158.0,409.5 L 156.5,409.0 L 155.0,408.5 L 154.0,407.5 L 153.0,406.5 L 152.5,405.0 L 152.0,403.5 L 151.5,402.0 L 150.5,401.0 L 149.0,400.5 L 147.0,400.5 L 145.5,401.0 L 144.5,402.0 L 143.5,402.0 L 142.5,402.0 L 141.0,402.5 L 140.0,403.5 L 139.5,405.0 L 140.5,406.0 L 140.0,407.5 L 139.0,408.5 L 138.0,407.5 L 137.5,406.0 L 136.5,405.0 L 135.5,405.0 L 134.0,405.5 L 133.0,406.5 L 131.5,407.0 L 130.5,408.0 L 129.0,408.5 L 128.0,407.5 L 127.0,406.5 L 126.0,407.5 L 124.0,407.5 L 123.0,406.5 L 121.0,406.5 L 120.0,405.5 L 119.0,406.5 L 118.0,407.5 L 116.5,408.0 L 115.0,408.5 L 113.0,408.5 L 112.0,409.5 L 111.0,410.5 L 110.0,411.5 L 109.0,412.5 L 108.0,413.5 L 107.0,412.5 L 105.5,412.0 L 104.5,411.0 L 103.5,411.0 L 102.5,412.0 L 101.5,413.0 L 100.0,413.5 L 99.0,414.5 L 98.0,415.5 L 96.5,415.0 L 95.0,414.5 L 94.0,415.5 L 93.0,416.5 L 91.5,417.0 L 90.0,417.5 L 89.0,416.5 L 87.5,416.0 L 86.5,416.0 L 85.0,416.5 L 83.5,416.0 L 82.5,416.0 L 81.5,417.0 L 80.5,418.0 L 79.5,418.0 L 78.0,417.5 L 77.0,416.5 L 75.5,416.0 L 74.0,415.5 L 72.0,415.5 L 70.0,415.5 L 68.0,415.5 L 66.5,416.0 L 65.0,416.5 L 64.0,415.5 L 63.0,414.5 L 63.0,413.5 L 64.0,412.5 L 64.5,411.0 L 65.5,410.0 L 66.5,409.0 L 65.5,408.0 L 64.0,407.5 L 62.0,407.5 L 61.0,406.5 L 59.0,406.5 L 58.0,407.5 L 57.5,409.0 L 57.5,411.0 L 57.0,412.5 L 56.0,413.5 L 55.0,414.5 L 53.0,414.5 L 51.5,414.0 L 50.5,414.0 L 49.0,414.5 L 47.0,414.5 L 45.0,414.5 L 44.0,413.5 L 42.5,413.0 L 41.5,412.0 L 41.0,410.5 L 40.5,409.0 L 39.5,408.0 L 38.0,407.5 L 37.0,408.5 L 36.0,409.5 L 34.0,409.5 L 32.0,409.5 L 30.5,410.0 L 29.5,411.0 L 28.5,412.0 L 27.5,412.0 L 26.0,411.5 L 25.0,412.5 L 24.0,413.5 L 22.0,413.5 L 20.0,413.5 L 18.0,413.5 L 16.0,413.5 L 15.0,414.5 L 13.5,415.0 L 12.0,415.5 L 11.0,414.5 L 9.0,414.5 L 8.0,413.5 L 7.5,412.0 L 6.5,411.0 L 5.0,410.5 L 3.0,410.5 L 2.0,411.5 L 1.0,410.5 L 0.0,409.5 Z" />
    <path d="M 277.0,177.5 L 275.0,177.5 L 274.0,176.5 L 273.5,175.0 L 273.0,173.5 L 272.5,172.0 L 272.5,170.0 L 273.5,169.0 L 273.5,167.0 L 273.5,165.0 L 274.5,164.0 L 273.5,163.0 L 272.5,162.0 L 272.5,160.0 L 273.0,158.5 L 273.5,157.0 L 274.5,156.0 L 275.5,155.0 L 276.5,154.0 L 276.0,152.5 L 275.5,151.0 L 276.0,149.5 L 276.5,148.0 L 277.5,147.0 L 276.5,146.0 L 276.5,144.0 L 277.5,143.0 L 278.5,143.0 L 279.5,143.0 L 280.5,142.0 L 282.0,141.5 L 283.0,140.5 L 284.0,139.5 L 284.5,138.0 L 285.0,136.5 L 286.0,135.5 L 286.5,134.0 L 287.0,132.5 L 288.0,131.5 L 289.0,132.5 L 289.5,134.0 L 288.5,135.0 L 289.5,136.0 L 291.0,136.5 L 292.0,137.5 L 293.0,136.5 L 295.0,136.5 L 296.0,137.5 L 297.0,136.5 L 298.5,137.0 L 299.5,138.0 L 299.5,140.0 L 300.0,141.5 L 300.5,143.0 L 300.0,144.5 L 299.5,146.0 L 299.5,148.0 L 298.5,149.0 L 297.0,149.5 L 296.0,150.5 L 296.0,151.5 L 297.0,152.5 L 297.0,153.5 L 296.0,154.5 L 295.0,153.5 L 294.0,154.5 L 293.0,155.5 L 291.0,155.5 L 290.0,156.5 L 288.0,156.5 L 286.5,157.0 L 285.0,157.5 L 283.5,158.0 L 282.0,158.5 L 281.0,159.5 L 280.0,160.5 L 279.0,161.5 L 277.5,162.0 L 276.5,163.0 L 277.5,164.0 L 277.5,166.0 L 278.5,167.0 L 278.5,169.0 L 278.5,171.0 L 278.5,173.0 L 277.5,174.0 L 278.0,175.5 L 278.0,176.5 L 277.0,177.5 Z" />
    <path d="M 450.0,188.5 L 448.5,188.0 L 447.5,187.0 L 448.5,186.0 L 449.5,185.0 L 448.5,184.0 L 447.5,183.0 L 448.5,182.0 L 447.5,181.0 L 447.0,179.5 L 446.0,178.5 L 445.0,177.5 L 444.0,176.5 L 444.0,175.5 L 445.0,174.5 L 446.0,173.5 L 447.0,174.5 L 448.0,175.5 L 448.5,177.0 L 449.5,178.0 L 450.5,179.0 L 451.0,180.5 L 451.5,182.0 L 452.5,183.0 L 453.5,184.0 L 453.0,185.5 L 452.0,186.5 L 451.0,187.5 L 450.0,188.5 Z" />
    <path d="M 620.0,401.5 L 618.0,401.5 L 616.0,401.5 L 614.0,401.5 L 612.0,401.5 L 610.0,401.5 L 608.0,401.5 L 607.0,400.5 L 606.5,399.0 L 606.0,397.5 L 605.5,396.0 L 606.5,395.0 L 606.0,393.5 L 605.0,392.5 L 604.0,391.5 L 602.5,392.0 L 601.5,393.0 L 600.5,394.0 L 599.0,394.5 L 597.5,395.0 L 596.0,395.5 L 594.0,395.5 L 592.0,395.5 L 590.0,395.5 L 589.0,394.5 L 588.5,393.0 L 588.5,391.0 L 588.0,389.5 L 587.0,388.5 L 585.0,388.5 L 583.0,388.5 L 581.0,388.5 L 580.0,389.5 L 578.5,390.0 L 577.5,391.0 L 578.5,392.0 L 579.5,393.0 L 581.0,393.5 L 582.5,394.0 L 584.0,394.5 L 585.5,395.0 L 586.5,396.0 L 587.5,397.0 L 587.5,399.0 L 586.5,400.0 L 585.5,401.0 L 584.5,402.0 L 583.5,403.0 L 582.0,403.5 L 580.0,403.5 L 579.0,402.5 L 578.0,401.5 L 577.0,400.5 L 575.0,400.5 L 573.0,400.5 L 571.5,400.0 L 570.5,399.0 L 569.5,398.0 L 569.0,396.5 L 568.0,395.5 L 566.5,396.0 L 565.5,397.0 L 564.5,398.0 L 563.5,399.0 L 562.5,400.0 L 561.0,400.5 L 560.0,401.5 L 559.0,402.5 L 557.0,402.5 L 555.0,402.5 L 553.0,402.5 L 551.0,402.5 L 549.0,402.5 L 547.0,402.5 L 546.0,401.5 L 544.5,401.0 L 543.0,400.5 L 541.0,400.5 L 539.5,401.0 L 538.0,401.5 L 536.0,401.5 L 534.0,401.5 L 532.0,401.5 L 530.5,402.0 L 529.0,402.5 L 527.0,402.5 L 525.0,402.5 L 523.0,402.5 L 521.0,402.5 L 519.0,402.5 L 517.0,402.5 L 515.0,402.5 L 514.0,401.5 L 512.0,401.5 L 511.0,400.5 L 509.5,400.0 L 508.0,399.5 L 507.0,398.5 L 506.0,397.5 L 504.5,397.0 L 503.5,397.0 L 502.5,398.0 L 502.0,399.5 L 501.0,400.5 L 499.5,401.0 L 498.0,401.5 L 496.0,401.5 L 495.0,402.5 L 493.5,402.0 L 492.5,401.0 L 491.5,400.0 L 491.0,398.5 L 490.5,397.0 L 490.5,395.0 L 490.5,393.0 L 491.5,392.0 L 492.5,391.0 L 491.5,390.0 L 490.5,390.0 L 489.0,390.5 L 488.0,391.5 L 487.0,392.5 L 485.5,393.0 L 484.5,394.0 L 483.0,394.5 L 482.0,395.5 L 480.0,395.5 L 478.5,395.0 L 477.0,394.5 L 476.0,393.5 L 474.0,393.5 L 472.5,394.0 L 471.0,394.5 L 469.5,395.0 L 468.5,396.0 L 467.5,397.0 L 466.0,397.5 L 465.0,398.5 L 464.0,399.5 L 462.0,399.5 L 461.0,400.5 L 459.0,400.5 L 458.0,399.5 L 457.0,400.5 L 455.5,400.0 L 454.5,399.0 L 453.5,398.0 L 454.0,396.5 L 455.0,395.5 L 455.5,394.0 L 455.5,392.0 L 454.5,391.0 L 455.0,389.5 L 456.0,388.5 L 457.0,389.5 L 458.0,388.5 L 458.5,387.0 L 458.0,385.5 L 457.5,384.0 L 456.5,383.0 L 457.5,382.0 L 459.0,381.5 L 460.0,380.5 L 461.0,379.5 L 461.5,378.0 L 460.5,377.0 L 460.5,375.0 L 461.5,374.0 L 461.5,372.0 L 462.5,371.0 L 462.0,369.5 L 462.0,368.5 L 463.0,367.5 L 464.0,366.5 L 464.5,365.0 L 464.5,363.0 L 464.5,361.0 L 465.5,360.0 L 464.5,359.0 L 464.5,357.0 L 464.5,355.0 L 463.5,354.0 L 462.5,353.0 L 463.0,351.5 L 464.0,350.5 L 465.5,351.0 L 466.5,351.0 L 467.5,350.0 L 466.5,349.0 L 466.0,347.5 L 465.5,346.0 L 465.5,344.0 L 464.5,343.0 L 465.0,341.5 L 466.0,340.5 L 466.5,339.0 L 467.0,337.5 L 467.5,336.0 L 468.0,334.5 L 468.0,333.5 L 467.5,332.0 L 468.5,331.0 L 469.5,330.0 L 469.0,328.5 L 468.5,327.0 L 467.5,326.0 L 468.5,325.0 L 469.5,324.0 L 469.0,322.5 L 468.5,321.0 L 468.5,319.0 L 467.5,318.0 L 468.5,317.0 L 469.0,315.5 L 469.5,314.0 L 469.5,312.0 L 469.0,310.5 L 468.5,309.0 L 467.5,308.0 L 468.0,306.5 L 469.0,305.5 L 469.0,304.5 L 469.0,303.5 L 470.0,302.5 L 470.5,301.0 L 471.0,299.5 L 471.5,298.0 L 471.0,296.5 L 471.0,295.5 L 471.5,294.0 L 471.5,292.0 L 471.5,290.0 L 471.5,288.0 L 472.0,286.5 L 473.0,285.5 L 473.5,284.0 L 473.0,282.5 L 472.5,281.0 L 472.0,279.5 L 471.5,278.0 L 472.5,277.0 L 473.5,276.0 L 472.5,275.0 L 473.0,273.5 L 474.0,272.5 L 474.5,271.0 L 473.5,270.0 L 473.5,268.0 L 474.0,266.5 L 475.0,265.5 L 476.0,264.5 L 478.0,264.5 L 479.0,265.5 L 481.0,265.5 L 482.5,266.0 L 484.0,266.5 L 486.0,266.5 L 488.0,266.5 L 489.0,265.5 L 491.0,265.5 L 492.0,264.5 L 493.0,263.5 L 494.0,262.5 L 495.5,262.0 L 497.0,261.5 L 499.0,261.5 L 501.0,261.5 L 503.0,261.5 L 504.0,260.5 L 506.0,260.5 L 508.0,260.5 L 510.0,260.5 L 512.0,260.5 L 513.5,261.0 L 515.0,261.5 L 517.0,261.5 L 518.5,262.0 L 520.0,262.5 L 522.0,262.5 L 524.0,262.5 L 526.0,262.5 L 528.0,262.5 L 529.0,261.5 L 531.0,261.5 L 533.0,261.5 L 534.0,260.5 L 536.0,260.5 L 538.0,260.5 L 540.0,260.5 L 542.0,260.5 L 543.0,259.5 L 545.0,259.5 L 547.0,259.5 L 549.0,259.5 L 551.0,259.5 L 553.0,259.5 L 555.0,259.5 L 557.0,259.5 L 559.0,259.5 L 561.0,259.5 L 563.0,259.5 L 564.0,260.5 L 566.0,260.5 L 567.5,261.0 L 568.5,261.0 L 570.0,260.5 L 572.0,260.5 L 573.0,261.5 L 575.0,261.5 L 577.0,261.5 L 579.0,261.5 L 580.0,262.5 L 581.0,261.5 L 583.0,261.5 L 585.0,261.5 L 586.0,262.5 L 587.0,261.5 L 589.0,261.5 L 591.0,261.5 L 592.5,261.0 L 594.0,260.5 L 595.0,259.5 L 597.0,259.5 L 598.0,258.5 L 600.0,258.5 L 601.5,258.0 L 603.0,257.5 L 605.0,257.5 L 607.0,257.5 L 609.0,257.5 L 610.5,257.0 L 612.0,256.5 L 614.0,256.5 L 615.5,257.0 L 617.0,257.5 L 619.0,257.5 Z" />
    <path d="M 391.0,409.5 L 389.0,409.5 L 388.0,408.5 L 388.0,407.5 L 388.5,406.0 L 388.0,404.5 L 387.0,403.5 L 385.0,403.5 L 383.0,403.5 L 381.0,403.5 L 379.0,403.5 L 377.0,403.5 L 376.0,402.5 L 375.5,401.0 L 374.5,400.0 L 374.5,398.0 L 374.5,396.0 L 373.5,395.0 L 372.0,394.5 L 371.0,393.5 L 369.5,393.0 L 368.0,392.5 L 367.0,393.5 L 365.0,393.5 L 364.0,394.5 L 362.5,395.0 L 361.5,395.0 L 360.5,394.0 L 359.5,393.0 L 359.0,391.5 L 358.5,390.0 L 358.5,388.0 L 358.5,386.0 L 358.5,384.0 L 358.5,382.0 L 358.5,380.0 L 358.5,378.0 L 358.5,376.0 L 359.5,375.0 L 360.0,373.5 L 361.0,372.5 L 361.5,371.0 L 361.5,369.0 L 360.5,368.0 L 361.5,367.0 L 362.5,366.0 L 363.5,365.0 L 364.5,364.0 L 365.0,362.5 L 366.0,361.5 L 366.5,360.0 L 367.5,359.0 L 368.5,358.0 L 369.0,356.5 L 370.0,355.5 L 371.0,354.5 L 371.0,353.5 L 370.0,352.5 L 370.0,351.5 L 371.0,350.5 L 372.0,349.5 L 373.0,348.5 L 374.0,347.5 L 374.5,346.0 L 375.5,345.0 L 376.5,344.0 L 377.5,343.0 L 377.0,341.5 L 377.0,340.5 L 378.0,339.5 L 379.0,338.5 L 380.0,337.5 L 380.0,336.5 L 379.0,335.5 L 379.0,334.5 L 380.0,333.5 L 381.0,332.5 L 382.0,331.5 L 383.0,330.5 L 384.0,329.5 L 385.0,328.5 L 386.0,329.5 L 386.5,331.0 L 387.0,332.5 L 388.0,333.5 L 388.5,335.0 L 387.5,336.0 L 387.0,337.5 L 386.0,338.5 L 385.0,339.5 L 384.0,340.5 L 384.0,341.5 L 385.0,342.5 L 387.0,342.5 L 388.0,343.5 L 388.5,345.0 L 389.0,346.5 L 390.0,347.5 L 391.0,346.5 L 392.0,347.5 L 392.0,348.5 L 392.0,349.5 L 393.0,350.5 L 393.0,351.5 L 392.5,353.0 L 392.0,354.5 L 391.5,356.0 L 392.5,357.0 L 392.0,358.5 L 391.0,359.5 L 390.0,360.5 L 390.0,361.5 L 390.5,363.0 L 391.5,364.0 L 392.5,365.0 L 393.0,366.5 L 393.5,368.0 L 393.5,370.0 L 394.0,371.5 L 395.0,372.5 L 395.5,374.0 L 395.5,376.0 L 394.5,377.0 L 394.5,379.0 L 394.0,380.5 L 393.5,382.0 L 394.5,383.0 L 396.0,383.5 L 397.0,384.5 L 397.0,385.5 L 396.0,386.5 L 395.5,388.0 L 395.5,390.0 L 394.5,391.0 L 395.0,392.5 L 396.0,393.5 L 396.5,395.0 L 395.5,396.0 L 395.5,398.0 L 394.5,399.0 L 393.5,400.0 L 394.5,401.0 L 395.5,401.0 L 396.5,400.0 L 397.5,400.0 L 398.5,401.0 L 399.0,402.5 L 400.0,403.5 L 400.5,405.0 L 400.0,406.5 L 399.0,407.5 L 397.5,407.0 L 396.5,406.0 L 395.0,405.5 L 394.0,406.5 L 393.0,407.5 L 392.0,408.5 L 391.0,409.5 Z" />
    <path d="M 620.0,334.5 L 618.5,335.0 L 617.5,336.0 L 616.0,336.5 L 615.0,335.5 L 614.0,334.5 L 613.0,333.5 L 611.0,333.5 L 609.0,333.5 L 607.0,333.5 L 605.0,333.5 L 603.0,333.5 L 602.0,334.5 L 601.0,335.5 L 600.5,337.0 L 601.5,338.0 L 603.0,338.5 L 604.0,339.5 L 606.0,339.5 L 608.0,339.5 L 610.0,339.5 L 611.0,338.5 L 613.0,338.5 L 615.0,338.5 L 616.0,339.5 L 617.0,340.5 L 618.0,341.5 L 619.0,342.5 Z" />
    <path d="M 620.0,349.5 L 619.0,350.5 L 618.5,352.0 L 618.5,354.0 L 618.0,355.5 L 617.0,356.5 L 615.5,357.0 L 614.0,357.5 L 612.0,357.5 L 610.0,357.5 L 608.0,357.5 L 606.0,357.5 L 604.0,357.5 L 602.0,357.5 L 601.0,358.5 L 600.0,359.5 L 599.0,360.5 L 597.0,360.5 L 596.0,361.5 L 595.0,362.5 L 593.0,362.5 L 591.0,362.5 L 589.0,362.5 L 587.0,362.5 L 586.0,361.5 L 585.0,360.5 L 584.5,359.0 L 584.0,357.5 L 583.0,356.5 L 581.0,356.5 L 579.0,356.5 L 577.0,356.5 L 575.0,356.5 L 573.5,357.0 L 572.5,358.0 L 573.5,359.0 L 574.5,360.0 L 575.5,361.0 L 575.5,363.0 L 574.5,364.0 L 575.5,365.0 L 577.0,365.5 L 578.0,366.5 L 580.0,366.5 L 582.0,366.5 L 583.5,367.0 L 584.5,368.0 L 585.5,369.0 L 587.0,369.5 L 588.0,370.5 L 589.0,371.5 L 590.0,372.5 L 591.0,373.5 L 593.0,373.5 L 595.0,373.5 L 597.0,373.5 L 598.0,374.5 L 599.0,375.5 L 600.0,376.5 L 602.0,376.5 L 604.0,376.5 L 605.0,375.5 L 606.0,374.5 L 607.5,374.0 L 609.0,373.5 L 611.0,373.5 L 612.0,372.5 L 613.5,373.0 L 615.0,373.5 L 616.0,372.5 L 618.0,372.5 L 620.0,372.5 Z" />
    <path d="M 374.0,412.5 L 373.0,411.5 L 372.0,410.5 L 371.0,411.5 L 369.0,411.5 L 368.0,412.5 L 366.0,412.5 L 365.0,411.5 L 364.0,410.5 L 363.0,409.5 L 362.0,408.5 L 361.5,407.0 L 361.5,405.0 L 362.0,403.5 L 363.0,402.5 L 365.0,402.5 L 366.0,401.5 L 368.0,401.5 L 370.0,401.5 L 371.5,402.0 L 373.0,402.5 L 374.0,403.5 L 375.0,404.5 L 375.5,406.0 L 376.5,407.0 L 375.5,408.0 L 375.5,410.0 L 375.0,411.5 L 374.0,412.5 Z" />
    <path d="M 293.0,424.5 L 292.0,423.5 L 291.0,422.5 L 289.0,422.5 L 287.0,422.5 L 286.0,423.5 L 285.0,422.5 L 283.5,422.0 L 282.5,421.0 L 281.5,420.0 L 280.5,419.0 L 279.5,418.0 L 278.5,417.0 L 279.0,415.5 L 280.0,414.5 L 280.0,413.5 L 279.5,412.0 L 280.5,411.0 L 282.0,410.5 L 283.0,411.5 L 283.5,413.0 L 282.5,414.0 L 283.5,415.0 L 285.0,415.5 L 286.0,416.5 L 287.0,415.5 L 288.0,414.5 L 289.0,413.5 L 290.5,414.0 L 291.5,414.0 L 292.5,414.0 L 293.5,415.0 L 293.0,416.5 L 293.0,417.5 L 293.5,419.0 L 292.5,420.0 L 293.0,421.5 L 294.0,422.5 L 294.0,423.5 L 293.0,424.5 Z" />
  </g>
</svg>