<?xml version='1.0' encoding='utf-8'?>
<svg xmlns="http://www.w3.org/2000/svg" version="1.1" width="620" height="443" viewBox="0 0 620 443">
  <rect x="0" y="0" width="620" height="443" fill="#58543d" />
  <g fill="#ccc9b9" stroke="none">
    <path d="M 248.0,78.5 L 247.0,77.5 L 246.5,76.0 L 247.5,75.0 L 248.0,73.5 L 249.0,72.5 L 250.0,71.5 L 251.5,71.0 L 252.5,70.0 L 254.0,69.5 L 255.0,68.5 L 257.0,68.5 L 259.0,68.5 L 260.5,69.0 L 261.5,69.0 L 263.0,68.5 L 264.0,69.5 L 264.0,70.5 L 263.0,71.5 L 261.5,71.0 L 260.5,71.0 L 259.0,71.5 L 257.0,71.5 L 255.5,72.0 L 254.0,72.5 L 253.0,73.5 L 252.0,74.5 L 251.0,75.5 L 250.0,76.5 L 249.0,77.5 L 248.0,78.5 Z" />
    <path d="M 304.0,88.5 L 303.0,87.5 L 302.0,86.5 L 301.0,87.5 L 299.5,87.0 L 298.5,86.0 L 297.5,86.0 L 296.0,86.5 L 295.0,85.5 L 294.5,84.0 L 293.5,83.0 L 292.0,82.5 L 291.0,83.5 L 290.0,84.5 L 289.0,83.5 L 288.0,82.5 L 287.0,83.5 L 285.0,83.5 L 283.0,83.5 L 282.0,82.5 L 280.0,82.5 L 279.0,81.5 L 277.5,81.0 L 276.5,80.0 L 277.0,78.5 L 278.0,77.5 L 279.5,77.0 L 281.0,76.5 L 282.5,76.0 L 284.0,75.5 L 286.0,75.5 L 287.0,76.5 L 289.0,76.5 L 290.0,75.5 L 292.0,75.5 L 293.0,76.5 L 295.0,76.5 L 297.0,76.5 L 298.0,77.5 L 299.0,76.5 L 300.5,76.0 L 302.0,75.5 L 304.0,75.5 L 306.0,75.5 L 308.0,75.5 L 309.0,74.5 L 310.5,75.0 L 312.0,75.5 L 314.0,75.5 L 316.0,75.5 L 317.5,76.0 L 319.0,76.5 L 321.0,76.5 L 322.5,77.0 L 323.5,78.0 L 323.0,79.5 L 322.0,80.5 L 321.0,81.5 L 320.0,82.5 L 318.0,82.5 L 316.0,82.5 L 314.0,82.5 L 312.5,83.0 L 311.5,84.0 L 310.5,85.0 L 309.0,85.5 L 308.0,84.5 L 307.0,83.5 L 305.0,83.5 L 304.0,84.5 L 304.0,85.5 L 305.0,86.5 L 305.0,87.5 L 304.0,88.5 Z" />
    <path d="M 620.0,133.5 L 618.0,133.5 L 616.0,133.5 L 615.0,132.5 L 613.0,132.5 L 612.0,131.5 L 610.0,131.5 L 609.0,130.5 L 607.5,131.0 L 606.0,131.5 L 605.0,130.5 L 604.0,129.5 L 603.0,128.5 L 601.0,128.5 L 599.0,128.5 L 597.5,129.0 L 596.5,129.0 L 595.0,128.5 L 594.0,127.5 L 593.0,126.5 L 591.0,126.5 L 589.5,126.0 L 588.5,125.0 L 587.0,124.5 L 586.0,123.5 L 584.0,123.5 L 582.0,123.5 L 580.5,124.0 L 579.0,124.5 L 577.0,124.5 L 576.0,125.5 L 575.0,126.5 L 574.0,127.5 L 573.0,128.5 L 572.0,129.5 L 571.0,130.5 L 569.5,131.0 L 568.5,132.0 L 568.0,133.5 L 567.0,134.5 L 566.0,135.5 L 565.0,136.5 L 564.0,137.5 L 563.5,139.0 L 563.0,140.5 L 562.0,141.5 L 561.0,142.5 L 560.0,143.5 L 559.5,145.0 L 558.5,146.0 L 558.0,147.5 L 557.0,148.5 L 555.5,149.0 L 554.5,150.0 L 554.0,151.5 L 553.0,152.5 L 552.5,154.0 L 552.5,156.0 L 551.5,157.0 L 551.5,159.0 L 550.5,160.0 L 550.0,161.5 L 549.5,163.0 L 549.5,165.0 L 548.5,166.0 L 549.5,167.0 L 549.5,169.0 L 548.5,170.0 L 549.5,171.0 L 549.5,173.0 L 549.5,175.0 L 548.5,176.0 L 547.0,176.5 L 546.0,177.5 L 545.0,178.5 L 543.0,178.5 L 541.5,178.0 L 540.5,177.0 L 539.5,176.0 L 538.5,175.0 L 538.0,173.5 L 537.0,172.5 L 535.5,172.0 L 534.5,171.0 L 533.0,170.5 L 531.0,170.5 L 530.0,169.5 L 528.0,169.5 L 527.0,170.5 L 526.0,169.5 L 524.0,169.5 L 522.0,169.5 L 521.0,168.5 L 519.0,168.5 L 518.0,169.5 L 516.5,170.0 L 515.0,170.5 L 513.5,171.0 L 512.0,171.5 L 510.0,171.5 L 508.0,171.5 L 506.0,171.5 L 505.0,172.5 L 503.5,173.0 L 502.0,173.5 L 500.0,173.5 L 499.0,174.5 L 497.5,175.0 L 496.0,175.5 L 494.0,175.5 L 492.0,175.5 L 491.0,174.5 L 489.5,174.0 L 488.0,173.5 L 487.0,172.5 L 486.0,171.5 L 485.0,170.5 L 483.5,170.0 L 482.0,169.5 L 480.0,169.5 L 479.0,168.5 L 477.0,168.5 L 476.0,167.5 L 474.5,168.0 L 473.0,168.5 L 472.0,169.5 L 471.0,170.5 L 470.0,171.5 L 469.5,173.0 L 469.0,174.5 L 468.0,175.5 L 467.5,177.0 L 467.5,179.0 L 466.5,180.0 L 467.0,181.5 L 468.0,182.5 L 468.5,184.0 L 469.5,185.0 L 469.5,187.0 L 468.5,188.0 L 469.5,189.0 L 471.0,189.5 L 472.0,190.5 L 472.5,192.0 L 473.5,193.0 L 474.0,194.5 L 475.0,195.5 L 475.5,197.0 L 474.5,198.0 L 475.5,199.0 L 474.5,200.0 L 474.5,202.0 L 475.5,203.0 L 476.5,204.0 L 476.5,206.0 L 477.0,207.5 L 477.5,209.0 L 478.0,210.5 L 478.5,212.0 L 478.5,214.0 L 478.5,216.0 L 478.5,218.0 L 478.0,219.5 L 477.0,220.5 L 477.0,221.5 L 478.0,222.5 L 478.5,224.0 L 477.5,225.0 L 477.5,227.0 L 478.5,228.0 L 479.5,229.0 L 479.5,231.0 L 480.0,232.5 L 480.5,234.0 L 480.0,235.5 L 479.0,236.5 L 478.0,237.5 L 477.5,239.0 L 477.5,241.0 L 477.5,243.0 L 478.5,244.0 L 478.5,246.0 L 479.0,247.5 L 479.0,248.5 L 478.0,249.5 L 477.0,250.5 L 476.0,251.5 L 475.0,250.5 L 474.0,249.5 L 473.5,248.0 L 473.5,246.0 L 474.0,244.5 L 474.0,243.5 L 473.5,242.0 L 474.5,241.0 L 473.5,240.0 L 472.5,239.0 L 472.5,237.0 L 472.5,235.0 L 472.5,233.0 L 471.5,232.0 L 471.5,230.0 L 470.5,229.0 L 471.0,227.5 L 471.5,226.0 L 471.5,224.0 L 470.5,223.0 L 471.0,221.5 L 471.5,220.0 L 470.5,219.0 L 471.0,217.5 L 471.5,216.0 L 470.5,215.0 L 470.5,213.0 L 470.5,211.0 L 470.5,209.0 L 470.0,207.5 L 469.0,206.5 L 468.5,205.0 L 467.5,204.0 L 467.0,202.5 L 466.0,201.5 L 465.5,200.0 L 464.5,199.0 L 464.0,197.5 L 463.5,196.0 L 462.5,195.0 L 461.5,195.0 L 460.5,196.0 L 459.5,196.0 L 458.0,195.5 L 457.0,196.5 L 456.0,197.5 L 455.0,196.5 L 453.5,197.0 L 452.5,198.0 L 453.0,199.5 L 454.0,200.5 L 455.0,201.5 L 455.5,203.0 L 454.5,204.0 L 454.0,205.5 L 453.0,206.5 L 451.5,206.0 L 450.5,205.0 L 449.5,204.0 L 450.0,202.5 L 450.5,201.0 L 449.5,200.0 L 448.5,199.0 L 449.5,198.0 L 448.5,197.0 L 447.5,196.0 L 447.0,194.5 L 447.0,193.5 L 448.0,192.5 L 448.0,191.5 L 447.0,190.5 L 446.5,189.0 L 445.5,188.0 L 444.5,187.0 L 443.5,186.0 L 442.0,185.5 L 440.5,186.0 L 439.0,186.5 L 438.0,187.5 L 438.0,188.5 L 438.0,189.5 L 438.0,190.5 L 439.0,191.5 L 440.0,190.5 L 441.0,191.5 L 441.0,192.5 L 441.0,193.5 L 442.0,194.5 L 443.0,195.5 L 444.0,196.5 L 444.0,197.5 L 443.0,198.5 L 442.0,197.5 L 440.5,198.0 L 439.5,199.0 L 438.0,199.5 L 436.5,199.0 L 435.5,198.0 L 434.5,197.0 L 433.0,196.5 L 432.0,197.5 L 430.5,197.0 L 429.5,196.0 L 428.5,195.0 L 429.5,194.0 L 431.0,193.5 L 432.5,194.0 L 433.5,195.0 L 434.5,195.0 L 435.5,194.0 L 436.5,193.0 L 435.5,192.0 L 434.5,191.0 L 435.5,190.0 L 434.5,189.0 L 433.5,188.0 L 432.5,187.0 L 431.5,186.0 L 430.5,185.0 L 429.5,184.0 L 428.5,183.0 L 427.5,182.0 L 426.5,182.0 L 425.5,183.0 L 426.5,184.0 L 427.5,185.0 L 427.0,186.5 L 426.0,187.5 L 425.0,188.5 L 424.5,190.0 L 425.5,191.0 L 425.5,193.0 L 424.5,194.0 L 423.0,194.5 L 422.0,193.5 L 421.0,192.5 L 421.0,191.5 L 422.0,190.5 L 422.0,189.5 L 421.0,188.5 L 419.0,188.5 L 417.5,189.0 L 416.5,189.0 L 415.0,188.5 L 414.0,187.5 L 412.5,187.0 L 411.5,186.0 L 411.5,184.0 L 410.5,183.0 L 410.0,181.5 L 409.5,180.0 L 409.5,178.0 L 408.5,177.0 L 407.5,176.0 L 406.5,175.0 L 406.0,173.5 L 405.0,172.5 L 403.5,173.0 L 402.5,174.0 L 401.5,175.0 L 402.5,176.0 L 401.5,177.0 L 400.5,178.0 L 401.5,179.0 L 401.5,181.0 L 402.0,182.5 L 402.0,183.5 L 401.0,184.5 L 399.5,184.0 L 398.5,183.0 L 397.5,182.0 L 397.5,180.0 L 396.5,179.0 L 397.0,177.5 L 397.5,176.0 L 396.5,175.0 L 395.5,174.0 L 394.5,173.0 L 395.5,172.0 L 396.5,171.0 L 395.5,170.0 L 395.0,168.5 L 394.5,167.0 L 394.5,165.0 L 395.5,164.0 L 394.5,163.0 L 393.0,162.5 L 392.0,163.5 L 391.0,162.5 L 391.0,161.5 L 392.0,160.5 L 392.5,159.0 L 391.5,158.0 L 390.5,157.0 L 389.5,156.0 L 390.0,154.5 L 391.0,153.5 L 391.0,152.5 L 390.0,151.5 L 388.0,151.5 L 387.0,150.5 L 385.0,150.5 L 384.0,149.5 L 383.0,148.5 L 382.0,147.5 L 381.0,146.5 L 380.5,145.0 L 381.5,144.0 L 380.5,143.0 L 379.0,142.5 L 378.0,141.5 L 377.0,140.5 L 376.5,139.0 L 376.0,137.5 L 375.0,136.5 L 374.0,135.5 L 373.0,134.5 L 372.0,135.5 L 372.0,136.5 L 372.5,138.0 L 373.5,139.0 L 374.5,140.0 L 374.5,142.0 L 375.5,143.0 L 376.5,144.0 L 375.5,145.0 L 374.5,146.0 L 374.5,148.0 L 374.5,150.0 L 375.5,151.0 L 376.5,152.0 L 376.0,153.5 L 375.5,155.0 L 376.0,156.5 L 376.5,158.0 L 376.5,160.0 L 377.0,161.5 L 377.0,162.5 L 376.5,164.0 L 377.5,165.0 L 378.5,166.0 L 379.5,166.0 L 380.5,166.0 L 381.5,167.0 L 380.5,168.0 L 379.5,169.0 L 379.0,170.5 L 378.0,171.5 L 378.0,172.5 L 379.0,173.5 L 380.5,173.0 L 381.5,173.0 L 382.5,173.0 L 383.5,173.0 L 384.5,174.0 L 383.5,175.0 L 382.5,175.0 L 381.5,175.0 L 380.5,175.0 L 379.5,175.0 L 378.5,176.0 L 379.0,177.5 L 380.0,178.5 L 380.0,179.5 L 380.0,180.5 L 381.0,181.5 L 382.0,182.5 L 383.0,183.5 L 383.0,184.5 L 382.0,185.5 L 381.0,184.5 L 379.5,184.0 L 378.5,184.0 L 377.5,185.0 L 378.0,186.5 L 378.5,188.0 L 379.5,189.0 L 380.5,189.0 L 381.5,188.0 L 382.5,188.0 L 383.5,189.0 L 383.0,190.5 L 382.0,191.5 L 381.0,190.5 L 380.0,191.5 L 379.0,192.5 L 378.5,194.0 L 379.5,195.0 L 380.5,195.0 L 381.5,195.0 L 382.5,195.0 L 383.5,194.0 L 384.5,193.0 L 385.5,193.0 L 386.5,194.0 L 387.5,195.0 L 386.5,196.0 L 385.5,197.0 L 384.5,198.0 L 385.5,199.0 L 386.5,200.0 L 386.0,201.5 L 385.0,202.5 L 384.0,201.5 L 383.5,200.0 L 382.5,199.0 L 381.0,198.5 L 380.0,197.5 L 379.0,198.5 L 377.5,199.0 L 376.5,200.0 L 375.5,200.0 L 374.5,199.0 L 375.0,197.5 L 375.5,196.0 L 374.5,195.0 L 373.5,194.0 L 373.5,192.0 L 373.0,190.5 L 372.0,189.5 L 371.0,188.5 L 370.0,187.5 L 369.0,186.5 L 369.0,185.5 L 370.0,184.5 L 370.5,183.0 L 370.5,181.0 L 369.5,180.0 L 369.5,178.0 L 370.0,176.5 L 370.0,175.5 L 370.0,174.5 L 370.5,173.0 L 370.0,171.5 L 369.5,170.0 L 370.5,169.0 L 371.5,168.0 L 371.0,166.5 L 370.5,165.0 L 369.5,164.0 L 369.0,162.5 L 368.5,161.0 L 369.0,159.5 L 369.0,158.5 L 368.5,157.0 L 368.5,155.0 L 367.5,154.0 L 367.5,152.0 L 368.5,151.0 L 368.5,149.0 L 367.5,148.0 L 366.5,147.0 L 367.5,146.0 L 366.5,145.0 L 366.5,143.0 L 366.5,141.0 L 365.5,140.0 L 365.5,138.0 L 364.5,137.0 L 364.0,135.5 L 363.0,134.5 L 362.0,135.5 L 360.5,135.0 L 359.5,134.0 L 359.0,132.5 L 358.0,131.5 L 357.0,130.5 L 356.5,129.0 L 356.0,127.5 L 356.0,126.5 L 356.0,125.5 L 355.5,124.0 L 354.5,123.0 L 355.0,121.5 L 355.0,120.5 L 354.0,119.5 L 353.5,118.0 L 354.5,117.0 L 355.5,116.0 L 355.5,114.0 L 355.5,112.0 L 355.0,110.5 L 354.0,109.5 L 354.0,108.5 L 354.5,107.0 L 353.5,106.0 L 354.5,105.0 L 353.5,104.0 L 352.5,103.0 L 351.5,102.0 L 350.5,101.0 L 350.0,99.5 L 350.0,98.5 L 351.0,97.5 L 352.0,96.5 L 353.0,97.5 L 355.0,97.5 L 357.0,97.5 L 359.0,97.5 L 360.0,98.5 L 361.5,99.0 L 362.5,100.0 L 363.5,101.0 L 364.5,102.0 L 366.0,102.5 L 367.5,103.0 L 369.0,103.5 L 370.5,104.0 L 371.5,105.0 L 372.5,106.0 L 374.0,106.5 L 375.0,105.5 L 376.0,106.5 L 377.0,107.5 L 379.0,107.5 L 381.0,107.5 L 383.0,107.5 L 385.0,107.5 L 386.0,106.5 L 388.0,106.5 L 390.0,106.5 L 392.0,106.5 L 393.5,106.0 L 395.0,105.5 L 397.0,105.5 L 398.5,105.0 L 400.0,104.5 L 402.0,104.5 L 403.5,104.0 L 405.0,103.5 L 407.0,103.5 L 408.0,102.5 L 410.0,102.5 L 412.0,102.5 L 413.0,101.5 L 415.0,101.5 L 416.5,101.0 L 418.0,100.5 L 420.0,100.5 L 421.5,100.0 L 423.0,99.5 L 424.0,98.5 L 426.0,98.5 L 428.0,98.5 L 429.0,97.5 L 431.0,97.5 L 433.0,97.5 L 434.0,96.5 L 436.0,96.5 L 438.0,96.5 L 439.5,97.0 L 441.0,97.5 L 443.0,97.5 L 445.0,97.5 L 447.0,97.5 L 448.0,98.5 L 450.0,98.5 L 452.0,98.5 L 453.0,99.5 L 455.0,99.5 L 457.0,99.5 L 459.0,99.5 L 461.0,99.5 L 462.0,98.5 L 463.5,98.0 L 465.0,97.5 L 467.0,97.5 L 469.0,97.5 L 470.5,97.0 L 472.0,96.5 L 474.0,96.5 L 476.0,96.5 L 478.0,96.5 L 479.5,96.0 L 481.0,95.5 L 483.0,95.5 L 485.0,95.5 L 487.0,95.5 L 489.0,95.5 L 491.0,95.5 L 492.5,95.0 L 494.0,94.5 L 495.5,94.0 L 496.5,93.0 L 498.0,92.5 L 499.0,91.5 L 501.0,91.5 L 503.0,91.5 L 504.0,90.5 L 506.0,90.5 L 507.5,90.0 L 509.0,89.5 L 511.0,89.5 L 512.0,88.5 L 514.0,88.5 L 516.0,88.5 L 518.0,88.5 L 520.0,88.5 L 522.0,88.5 L 524.0,88.5 L 526.0,88.5 L 528.0,88.5 L 529.5,89.0 L 531.0,89.5 L 533.0,89.5 L 535.0,89.5 L 536.0,88.5 L 538.0,88.5 L 539.0,89.5 L 541.0,89.5 L 543.0,89.5 L 544.0,90.5 L 546.0,90.5 L 547.5,91.0 L 549.0,91.5 L 551.0,91.5 L 553.0,91.5 L 555.0,91.5 L 556.5,92.0 L 558.0,92.5 L 560.0,92.5 L 562.0,92.5 L 564.0,92.5 L 566.0,92.5 L 568.0,92.5 L 570.0,92.5 L 572.0,92.5 L 574.0,92.5 L 575.0,93.5 L 576.0,92.5 L 577.0,93.5 L 579.0,93.5 L 580.5,94.0 L 582.0,94.5 L 583.5,95.0 L 584.5,95.0 L 586.0,94.5 L 588.0,94.5 L 589.5,95.0 L 591.0,95.5 L 592.0,94.5 L 593.5,95.0 L 595.0,95.5 L 596.5,96.0 L 598.0,96.5 L 599.5,97.0 L 601.0,97.5 L 603.0,97.5 L 605.0,97.5 L 606.0,98.5 L 607.0,99.5 L 608.0,98.5 L 609.0,99.5 L 610.0,100.5 L 612.0,100.5 L 613.0,101.5 L 615.0,101.5 L 616.0,102.5 L 618.0,102.5 L 620.0,102.5 Z" />
    <path d="M 0.0,121.5 L 2.0,121.5 L 3.0,122.5 L 5.0,122.5 L 7.0,122.5 L 8.0,121.5 L 9.5,122.0 L 11.0,122.5 L 13.0,122.5 L 15.0,122.5 L 16.0,123.5 L 17.0,124.5 L 19.0,124.5 L 20.5,125.0 L 22.0,125.5 L 23.5,126.0 L 24.5,126.0 L 25.5,125.0 L 26.5,124.0 L 27.5,123.0 L 29.0,122.5 L 30.0,121.5 L 31.5,121.0 L 33.0,120.5 L 34.5,120.0 L 35.5,119.0 L 37.0,118.5 L 38.0,117.5 L 40.0,117.5 L 42.0,117.5 L 44.0,117.5 L 46.0,117.5 L 47.5,118.0 L 48.5,118.0 L 50.0,117.5 L 51.0,116.5 L 53.0,116.5 L 54.0,115.5 L 56.0,115.5 L 58.0,115.5 L 59.5,115.0 L 61.0,114.5 L 63.0,114.5 L 64.0,113.5 L 65.5,113.0 L 66.5,112.0 L 67.5,111.0 L 69.0,110.5 L 70.5,110.0 L 71.5,110.0 L 72.5,110.0 L 74.0,109.5 L 75.0,108.5 L 76.5,108.0 L 78.0,107.5 L 80.0,107.5 L 82.0,107.5 L 84.0,107.5 L 85.0,106.5 L 87.0,106.5 L 88.0,105.5 L 90.0,105.5 L 91.5,105.0 L 93.0,104.5 L 95.0,104.5 L 96.0,103.5 L 97.5,103.0 L 99.0,102.5 L 100.0,101.5 L 101.5,101.0 L 103.0,100.5 L 105.0,100.5 L 106.5,100.0 L 108.0,99.5 L 110.0,99.5 L 111.5,100.0 L 113.0,100.5 L 115.0,100.5 L 116.0,101.5 L 117.5,102.0 L 119.0,102.5 L 120.0,103.5 L 121.0,104.5 L 122.0,105.5 L 124.0,105.5 L 125.0,106.5 L 127.0,106.5 L 128.5,106.0 L 129.5,106.0 L 131.0,106.5 L 133.0,106.5 L 134.0,107.5 L 136.0,107.5 L 138.0,107.5 L 140.0,107.5 L 141.5,107.0 L 143.0,106.5 L 145.0,106.5 L 147.0,106.5 L 149.0,106.5 L 151.0,106.5 L 153.0,106.5 L 154.0,105.5 L 156.0,105.5 L 157.0,104.5 L 159.0,104.5 L 161.0,104.5 L 163.0,104.5 L 165.0,104.5 L 167.0,104.5 L 169.0,104.5 L 171.0,104.5 L 173.0,104.5 L 174.0,103.5 L 176.0,103.5 L 178.0,103.5 L 179.5,104.0 L 181.0,104.5 L 183.0,104.5 L 185.0,104.5 L 187.0,104.5 L 189.0,104.5 L 191.0,104.5 L 193.0,104.5 L 195.0,104.5 L 197.0,104.5 L 198.0,103.5 L 200.0,103.5 L 202.0,103.5 L 203.5,104.0 L 205.0,104.5 L 207.0,104.5 L 209.0,104.5 L 211.0,104.5 L 213.0,104.5 L 215.0,104.5 L 217.0,104.5 L 219.0,104.5 L 221.0,104.5 L 223.0,104.5 L 225.0,104.5 L 227.0,104.5 L 229.0,104.5 L 231.0,104.5 L 232.0,105.5 L 233.0,104.5 L 235.0,104.5 L 236.5,104.0 L 237.5,103.0 L 239.0,102.5 L 240.0,101.5 L 241.0,100.5 L 242.0,99.5 L 243.0,98.5 L 243.5,97.0 L 244.5,96.0 L 246.0,95.5 L 247.0,94.5 L 248.5,95.0 L 249.5,96.0 L 249.0,97.5 L 248.0,98.5 L 247.0,99.5 L 245.5,100.0 L 244.5,101.0 L 244.0,102.5 L 244.0,103.5 L 244.5,105.0 L 243.5,106.0 L 244.5,107.0 L 245.5,108.0 L 246.5,108.0 L 248.0,107.5 L 249.0,106.5 L 250.0,105.5 L 251.5,105.0 L 253.0,104.5 L 254.0,103.5 L 255.0,102.5 L 256.5,103.0 L 257.5,104.0 L 256.5,105.0 L 255.5,106.0 L 254.5,107.0 L 253.5,108.0 L 252.5,109.0 L 253.0,110.5 L 253.0,111.5 L 252.0,112.5 L 251.0,113.5 L 250.5,115.0 L 250.0,116.5 L 249.0,117.5 L 248.5,119.0 L 249.5,120.0 L 248.5,121.0 L 247.5,122.0 L 248.0,123.5 L 248.0,124.5 L 247.0,125.5 L 247.0,126.5 L 247.5,128.0 L 247.0,129.5 L 246.0,130.5 L 246.0,131.5 L 246.0,132.5 L 245.5,134.0 L 246.5,135.0 L 247.5,136.0 L 246.5,137.0 L 245.5,138.0 L 245.5,140.0 L 244.5,141.0 L 243.5,142.0 L 244.0,143.5 L 244.5,145.0 L 244.0,146.5 L 243.5,148.0 L 242.5,149.0 L 242.0,150.5 L 241.0,151.5 L 241.0,152.5 L 242.0,153.5 L 243.0,154.5 L 244.0,153.5 L 245.0,154.5 L 245.5,156.0 L 244.5,157.0 L 243.5,158.0 L 244.5,159.0 L 243.5,160.0 L 242.5,161.0 L 241.5,162.0 L 241.5,164.0 L 240.5,165.0 L 240.0,166.5 L 239.0,167.5 L 238.0,168.5 L 237.5,170.0 L 238.0,171.5 L 239.0,172.5 L 239.5,174.0 L 240.5,175.0 L 241.5,176.0 L 241.0,177.5 L 241.0,178.5 L 242.0,179.5 L 243.0,180.5 L 243.0,181.5 L 242.5,183.0 L 243.5,184.0 L 243.5,186.0 L 244.0,187.5 L 244.0,188.5 L 243.5,190.0 L 243.5,192.0 L 244.5,193.0 L 245.5,194.0 L 246.0,195.5 L 247.0,196.5 L 247.5,198.0 L 247.5,200.0 L 248.5,201.0 L 249.5,202.0 L 250.5,203.0 L 251.5,204.0 L 252.0,205.5 L 253.0,206.5 L 253.5,208.0 L 253.5,210.0 L 254.5,211.0 L 255.0,212.5 L 256.0,213.5 L 257.0,214.5 L 257.0,215.5 L 257.0,216.5 L 257.5,218.0 L 257.0,219.5 L 257.0,220.5 L 258.0,221.5 L 258.5,223.0 L 258.5,225.0 L 259.5,226.0 L 260.5,227.0 L 261.0,228.5 L 262.0,229.5 L 263.0,230.5 L 264.0,231.5 L 266.0,231.5 L 267.0,232.5 L 267.0,233.5 L 266.5,235.0 L 266.5,237.0 L 267.5,238.0 L 268.5,238.0 L 269.5,238.0 L 270.5,239.0 L 270.5,241.0 L 269.5,242.0 L 268.0,242.5 L 267.0,243.5 L 266.0,242.5 L 265.5,241.0 L 265.0,239.5 L 264.0,238.5 L 262.0,238.5 L 261.0,237.5 L 260.0,236.5 L 259.0,237.5 L 258.5,239.0 L 257.5,240.0 L 256.5,241.0 L 255.5,241.0 L 254.5,241.0 L 253.5,242.0 L 253.5,244.0 L 253.5,246.0 L 253.5,248.0 L 254.0,249.5 L 254.0,250.5 L 253.0,251.5 L 252.5,253.0 L 252.5,255.0 L 253.5,256.0 L 253.0,257.5 L 252.5,259.0 L 252.0,260.5 L 252.0,261.5 L 253.0,262.5 L 253.5,264.0 L 253.5,266.0 L 254.0,267.5 L 254.0,268.5 L 253.5,270.0 L 254.5,271.0 L 253.5,272.0 L 254.5,273.0 L 254.5,275.0 L 254.5,277.0 L 254.5,279.0 L 255.5,280.0 L 256.0,281.5 L 256.5,283.0 L 256.5,285.0 L 257.5,286.0 L 258.5,287.0 L 257.5,288.0 L 257.5,290.0 L 257.5,292.0 L 258.0,293.5 L 258.5,295.0 L 258.5,297.0 L 258.5,299.0 L 259.0,300.5 L 259.5,302.0 L 259.5,304.0 L 260.5,305.0 L 260.0,306.5 L 260.0,307.5 L 261.0,308.5 L 261.5,310.0 L 261.0,311.5 L 260.5,313.0 L 261.5,314.0 L 262.5,315.0 L 262.5,317.0 L 263.0,318.5 L 263.0,319.5 L 262.5,321.0 L 263.5,322.0 L 263.5,324.0 L 264.0,325.5 L 264.0,326.5 L 264.0,327.5 L 264.5,329.0 L 265.5,330.0 L 264.5,331.0 L 265.0,332.5 L 266.0,333.5 L 267.0,334.5 L 267.0,335.5 L 267.0,336.5 L 268.0,337.5 L 268.0,338.5 L 267.5,340.0 L 268.5,341.0 L 269.5,342.0 L 269.0,343.5 L 269.0,344.5 L 270.0,345.5 L 270.5,347.0 L 271.5,348.0 L 272.5,349.0 L 273.5,350.0 L 272.5,351.0 L 273.0,352.5 L 273.5,354.0 L 274.5,355.0 L 276.0,355.5 L 277.0,356.5 L 277.5,358.0 L 278.5,359.0 L 279.5,360.0 L 280.5,361.0 L 281.5,362.0 L 281.5,364.0 L 281.5,366.0 L 282.5,367.0 L 283.5,368.0 L 284.5,369.0 L 284.5,371.0 L 285.5,372.0 L 285.5,374.0 L 284.5,375.0 L 284.5,377.0 L 285.5,378.0 L 286.5,379.0 L 287.5,380.0 L 288.5,381.0 L 289.5,382.0 L 290.5,383.0 L 291.5,384.0 L 291.0,385.5 L 290.5,387.0 L 290.5,389.0 L 291.0,390.5 L 292.0,391.5 L 293.0,392.5 L 293.5,394.0 L 293.5,396.0 L 294.5,397.0 L 294.5,399.0 L 293.5,400.0 L 293.5,402.0 L 293.0,403.5 L 292.5,405.0 L 291.5,406.0 L 292.5,407.0 L 291.5,408.0 L 292.0,409.5 L 293.0,410.5 L 294.5,411.0 L 295.5,412.0 L 296.5,413.0 L 295.5,414.0 L 296.5,415.0 L 298.0,415.5 L 299.0,414.5 L 299.5,413.0 L 300.5,412.0 L 302.0,411.5 L 304.0,411.5 L 306.0,411.5 L 307.0,412.5 L 307.0,413.5 L 306.0,414.5 L 306.0,415.5 L 307.0,416.5 L 308.0,417.5 L 309.5,417.0 L 310.5,416.0 L 311.5,416.0 L 312.5,417.0 L 313.5,418.0 L 314.5,418.0 L 315.5,417.0 L 316.5,416.0 L 317.5,415.0 L 318.5,414.0 L 319.5,414.0 L 320.5,415.0 L 320.0,416.5 L 320.0,417.5 L 321.0,418.5 L 322.0,419.5 L 322.5,421.0 L 321.5,422.0 L 321.5,424.0 L 320.5,425.0 L 319.0,425.5 L 317.0,425.5 L 316.0,426.5 L 316.0,427.5 L 317.0,428.5 L 319.0,428.5 L 320.0,427.5 L 321.5,427.0 L 323.0,426.5 L 324.0,427.5 L 325.0,428.5 L 326.0,429.5 L 327.5,429.0 L 328.5,428.0 L 330.0,427.5 L 331.0,426.5 L 331.0,425.5 L 330.0,424.5 L 329.0,423.5 L 328.0,424.5 L 327.0,423.5 L 326.0,422.5 L 325.0,421.5 L 324.0,420.5 L 324.0,419.5 L 324.5,418.0 L 324.5,416.0 L 324.0,414.5 L 323.5,413.0 L 324.5,412.0 L 325.5,412.0 L 326.5,413.0 L 327.0,414.5 L 328.0,415.5 L 329.0,416.5 L 330.0,417.5 L 331.0,416.5 L 332.0,415.5 L 333.5,415.0 L 334.5,414.0 L 335.5,413.0 L 336.5,413.0 L 338.0,413.5 L 339.0,414.5 L 340.0,413.5 L 341.0,412.5 L 342.0,413.5 L 343.0,414.5 L 344.0,413.5 L 345.0,412.5 L 346.0,411.5 L 346.5,410.0 L 347.5,409.0 L 348.5,409.0 L 349.5,410.0 L 350.5,410.0 L 352.0,409.5 L 353.0,410.5 L 354.5,410.0 L 355.5,409.0 L 356.0,407.5 L 357.0,406.5 L 358.0,407.5 L 359.0,406.5 L 359.5,405.0 L 359.5,403.0 L 359.5,401.0 L 359.5,399.0 L 358.5,398.0 L 359.0,396.5 L 360.0,395.5 L 360.0,394.5 L 359.5,393.0 L 358.5,392.0 L 358.5,390.0 L 357.5,389.0 L 357.5,387.0 L 358.5,386.0 L 358.5,384.0 L 358.5,382.0 L 358.0,380.5 L 357.5,379.0 L 357.5,377.0 L 358.5,376.0 L 358.5,374.0 L 359.5,373.0 L 360.5,372.0 L 361.5,371.0 L 361.0,369.5 L 360.5,368.0 L 361.0,366.5 L 362.0,365.5 L 363.0,364.5 L 364.0,363.5 L 365.0,362.5 L 365.0,361.5 L 364.5,360.0 L 365.5,359.0 L 366.5,358.0 L 367.5,357.0 L 368.5,356.0 L 370.0,355.5 L 371.0,354.5 L 371.0,353.5 L 370.0,352.5 L 370.0,351.5 L 370.5,350.0 L 371.0,348.5 L 372.0,347.5 L 373.0,348.5 L 374.0,347.5 L 374.0,346.5 L 373.5,345.0 L 374.5,344.0 L 375.5,343.0 L 376.5,342.0 L 375.5,341.0 L 376.0,339.5 L 377.0,338.5 L 378.0,337.5 L 378.5,336.0 L 378.5,334.0 L 379.5,333.0 L 381.0,332.5 L 382.0,331.5 L 383.0,330.5 L 383.0,329.5 L 383.0,328.5 L 384.0,327.5 L 385.0,326.5 L 386.0,327.5 L 386.5,329.0 L 386.5,331.0 L 387.5,332.0 L 388.0,333.5 L 389.0,334.5 L 389.0,335.5 L 388.5,337.0 L 388.5,339.0 L 389.0,340.5 L 389.5,342.0 L 389.5,344.0 L 390.0,345.5 L 391.0,346.5 L 392.0,347.5 L 392.5,349.0 L 393.5,350.0 L 393.5,352.0 L 392.5,353.0 L 392.5,355.0 L 392.5,357.0 L 393.0,358.5 L 394.0,359.5 L 394.0,360.5 L 393.0,361.5 L 392.5,363.0 L 393.5,364.0 L 394.5,365.0 L 394.5,367.0 L 394.0,368.5 L 393.5,370.0 L 394.5,371.0 L 395.5,371.0 L 396.5,371.0 L 397.5,372.0 L 397.0,373.5 L 396.0,374.5 L 396.0,375.5 L 396.5,377.0 L 395.5,378.0 L 394.5,379.0 L 395.0,380.5 L 396.0,381.5 L 397.0,382.5 L 398.0,383.5 L 398.0,384.5 L 397.5,386.0 L 396.5,387.0 L 396.5,389.0 L 395.5,390.0 L 396.5,391.0 L 398.0,391.5 L 399.0,392.5 L 399.0,393.5 L 398.0,394.5 L 398.0,395.5 L 399.0,396.5 L 399.5,398.0 L 399.5,400.0 L 400.0,401.5 L 401.0,402.5 L 402.0,401.5 L 403.0,402.5 L 403.0,403.5 L 402.0,404.5 L 402.0,405.5 L 403.0,406.5 L 403.0,407.5 L 403.0,408.5 L 404.0,409.5 L 404.5,411.0 L 404.0,412.5 L 404.0,413.5 L 405.0,414.5 L 406.5,415.0 L 407.5,416.0 L 409.0,416.5 L 410.0,415.5 L 411.0,414.5 L 412.0,413.5 L 413.0,414.5 L 413.0,415.5 L 413.0,416.5 L 414.0,417.5 L 415.0,416.5 L 416.0,417.5 L 417.0,416.5 L 418.0,417.5 L 419.0,418.5 L 420.5,418.0 L 421.5,417.0 L 422.5,417.0 L 423.5,418.0 L 424.5,418.0 L 425.5,417.0 L 424.5,416.0 L 423.5,415.0 L 422.5,414.0 L 423.5,413.0 L 424.5,413.0 L 425.5,414.0 L 426.5,415.0 L 427.5,416.0 L 428.0,417.5 L 429.0,418.5 L 430.5,418.0 L 432.0,417.5 L 433.0,416.5 L 434.0,417.5 L 434.5,419.0 L 435.5,420.0 L 436.5,420.0 L 437.5,420.0 L 439.0,420.5 L 440.5,420.0 L 442.0,419.5 L 443.0,420.5 L 444.0,421.5 L 445.5,421.0 L 446.5,420.0 L 446.0,418.5 L 445.5,417.0 L 444.5,416.0 L 445.5,415.0 L 446.5,415.0 L 448.0,415.5 L 449.5,415.0 L 450.5,414.0 L 451.5,414.0 L 452.5,414.0 L 453.5,413.0 L 454.0,411.5 L 455.0,410.5 L 455.5,409.0 L 455.5,407.0 L 456.0,405.5 L 457.0,404.5 L 458.0,405.5 L 458.5,407.0 L 459.0,408.5 L 459.5,410.0 L 459.5,412.0 L 460.0,413.5 L 461.0,414.5 L 462.0,413.5 L 463.5,414.0 L 465.0,414.5 L 467.0,414.5 L 468.5,414.0 L 469.5,413.0 L 470.0,411.5 L 471.0,410.5 L 472.0,411.5 L 473.5,411.0 L 474.5,411.0 L 476.0,411.5 L 478.0,411.5 L 479.5,411.0 L 480.5,411.0 L 481.5,412.0 L 482.5,412.0 L 483.5,411.0 L 483.5,409.0 L 484.0,407.5 L 485.0,406.5 L 486.0,407.5 L 486.5,409.0 L 487.5,410.0 L 488.5,410.0 L 489.5,409.0 L 489.5,407.0 L 490.0,405.5 L 491.0,404.5 L 492.0,405.5 L 492.5,407.0 L 493.0,408.5 L 494.0,409.5 L 495.0,408.5 L 496.0,409.5 L 496.5,411.0 L 496.0,412.5 L 496.0,413.5 L 497.0,414.5 L 499.0,414.5 L 500.0,413.5 L 501.0,412.5 L 502.0,411.5 L 503.0,412.5 L 504.0,413.5 L 505.5,414.0 L 506.5,415.0 L 507.5,415.0 L 509.0,414.5 L 510.5,415.0 L 511.5,416.0 L 513.0,416.5 L 514.0,415.5 L 515.0,414.5 L 515.5,413.0 L 516.5,412.0 L 517.5,412.0 L 519.0,412.5 L 520.0,411.5 L 521.5,412.0 L 522.5,413.0 L 521.5,414.0 L 521.0,415.5 L 521.0,416.5 L 522.0,417.5 L 522.5,419.0 L 522.5,421.0 L 522.0,422.5 L 521.0,423.5 L 519.5,424.0 L 518.5,425.0 L 517.5,426.0 L 518.5,427.0 L 519.5,427.0 L 521.0,426.5 L 522.0,427.5 L 523.5,428.0 L 524.5,429.0 L 525.5,430.0 L 527.0,430.5 L 528.0,429.5 L 529.0,430.5 L 530.5,431.0 L 531.5,432.0 L 532.5,433.0 L 534.0,433.5 L 536.0,433.5 L 537.0,434.5 L 538.0,435.5 L 540.0,435.5 L 541.0,434.5 L 542.0,433.5 L 543.0,434.5 L 545.0,434.5 L 546.0,435.5 L 547.0,436.5 L 547.0,437.5 L 546.0,438.5 L 545.0,439.5 L 543.5,440.0 L 542.5,440.0 L 541.0,439.5 L 539.0,439.5 L 538.0,440.5 L 536.0,440.5 L 535.0,441.5 L 534.5,443.0 Z" />
    <path d="M 0.0,253.5 L 2.0,253.5 L 4.0,253.5 L 6.0,253.5 L 7.5,253.0 L 9.0,252.5 L 10.5,252.0 L 12.0,251.5 L 14.0,251.5 L 15.5,252.0 L 17.0,252.5 L 19.0,252.5 L 21.0,252.5 L 23.0,252.5 L 25.0,252.5 L 27.0,252.5 L 28.0,251.5 L 30.0,251.5 L 32.0,251.5 L 34.0,251.5 L 36.0,251.5 L 38.0,251.5 L 40.0,251.5 L 41.5,251.0 L 43.0,250.5 L 44.5,250.0 L 46.0,249.5 L 48.0,249.5 L 50.0,249.5 L 51.0,250.5 L 53.0,250.5 L 55.0,250.5 L 57.0,250.5 L 59.0,250.5 L 61.0,250.5 L 62.5,250.0 L 63.5,250.0 L 64.5,250.0 L 66.0,249.5 L 68.0,249.5 L 70.0,249.5 L 71.5,249.0 L 73.0,248.5 L 74.0,247.5 L 75.0,246.5 L 77.0,246.5 L 78.0,245.5 L 79.0,244.5 L 80.0,243.5 L 81.0,242.5 L 81.5,241.0 L 82.0,239.5 L 82.5,238.0 L 82.5,236.0 L 83.0,234.5 L 83.5,233.0 L 84.5,232.0 L 83.5,231.0 L 84.5,230.0 L 85.5,229.0 L 86.5,228.0 L 87.0,226.5 L 87.5,225.0 L 88.5,224.0 L 89.5,223.0 L 91.0,222.5 L 92.0,221.5 L 93.0,220.5 L 94.0,219.5 L 95.0,218.5 L 96.0,217.5 L 96.5,216.0 L 97.5,215.0 L 98.5,214.0 L 97.5,213.0 L 96.0,212.5 L 95.0,211.5 L 94.5,210.0 L 94.0,208.5 L 93.0,207.5 L 92.5,206.0 L 93.5,205.0 L 94.0,203.5 L 95.0,202.5 L 95.5,201.0 L 96.0,199.5 L 97.0,198.5 L 98.0,197.5 L 99.0,196.5 L 101.0,196.5 L 103.0,196.5 L 104.0,197.5 L 104.5,199.0 L 104.5,201.0 L 105.5,202.0 L 106.5,203.0 L 107.5,204.0 L 109.0,204.5 L 110.5,204.0 L 111.5,204.0 L 112.5,205.0 L 112.5,207.0 L 113.5,208.0 L 113.5,210.0 L 114.5,211.0 L 114.5,213.0 L 114.5,215.0 L 114.5,217.0 L 113.5,218.0 L 112.5,219.0 L 112.5,221.0 L 111.5,222.0 L 110.5,223.0 L 109.5,224.0 L 108.5,225.0 L 108.0,226.5 L 107.5,228.0 L 106.5,229.0 L 106.0,230.5 L 105.0,231.5 L 104.5,233.0 L 104.5,235.0 L 104.0,236.5 L 103.5,238.0 L 103.0,239.5 L 103.0,240.5 L 103.5,242.0 L 103.0,243.5 L 102.5,245.0 L 103.0,246.5 L 104.0,247.5 L 105.5,248.0 L 107.0,248.5 L 109.0,248.5 L 111.0,248.5 L 113.0,248.5 L 114.5,248.0 L 115.5,247.0 L 117.0,246.5 L 119.0,246.5 L 120.0,245.5 L 121.5,245.0 L 123.0,244.5 L 124.5,244.0 L 126.0,243.5 L 127.0,242.5 L 129.0,242.5 L 130.5,242.0 L 132.0,241.5 L 133.0,240.5 L 135.0,240.5 L 137.0,240.5 L 138.0,239.5 L 139.5,239.0 L 141.0,238.5 L 142.5,238.0 L 143.5,237.0 L 144.5,236.0 L 145.5,235.0 L 146.5,234.0 L 147.5,233.0 L 149.0,232.5 L 150.5,232.0 L 152.0,231.5 L 153.5,231.0 L 155.0,230.5 L 157.0,230.5 L 158.0,229.5 L 159.0,228.5 L 160.0,227.5 L 162.0,227.5 L 164.0,227.5 L 165.5,228.0 L 167.0,228.5 L 168.5,229.0 L 169.5,230.0 L 170.5,231.0 L 172.0,231.5 L 173.0,232.5 L 174.5,233.0 L 175.5,234.0 L 177.0,234.5 L 179.0,234.5 L 181.0,234.5 L 183.0,234.5 L 185.0,234.5 L 186.0,233.5 L 187.0,232.5 L 188.0,231.5 L 189.0,230.5 L 190.0,229.5 L 191.0,228.5 L 192.0,229.5 L 193.0,228.5 L 194.5,228.0 L 195.5,227.0 L 195.5,225.0 L 196.0,223.5 L 196.0,222.5 L 195.0,221.5 L 194.0,220.5 L 192.5,220.0 L 191.5,219.0 L 190.0,218.5 L 188.5,218.0 L 187.5,217.0 L 187.0,215.5 L 186.5,214.0 L 185.5,213.0 L 185.0,211.5 L 184.5,210.0 L 184.0,208.5 L 183.0,207.5 L 182.0,206.5 L 180.5,206.0 L 179.5,205.0 L 179.5,203.0 L 178.5,202.0 L 178.0,200.5 L 177.0,199.5 L 176.5,198.0 L 176.5,196.0 L 176.5,194.0 L 176.5,192.0 L 175.5,191.0 L 175.5,189.0 L 176.5,188.0 L 176.5,186.0 L 176.0,184.5 L 175.0,183.5 L 174.5,182.0 L 174.5,180.0 L 174.5,178.0 L 174.5,176.0 L 175.5,175.0 L 176.5,174.0 L 177.0,172.5 L 177.5,171.0 L 178.5,170.0 L 179.5,169.0 L 181.0,168.5 L 183.0,168.5 L 184.0,169.5 L 186.0,169.5 L 187.5,170.0 L 189.0,170.5 L 190.5,171.0 L 192.0,171.5 L 194.0,171.5 L 195.0,170.5 L 197.0,170.5 L 198.5,171.0 L 200.0,171.5 L 201.0,170.5 L 202.0,169.5 L 203.0,168.5 L 204.0,167.5 L 204.5,166.0 L 205.5,165.0 L 206.5,164.0 L 207.5,163.0 L 208.5,162.0 L 209.5,161.0 L 210.0,159.5 L 210.5,158.0 L 210.0,156.5 L 209.0,155.5 L 208.0,154.5 L 206.0,154.5 L 204.5,154.0 L 203.5,153.0 L 202.5,152.0 L 201.0,151.5 L 199.5,152.0 L 198.0,152.5 L 196.0,152.5 L 195.0,151.5 L 193.0,151.5 L 191.5,151.0 L 190.0,150.5 L 188.5,151.0 L 187.5,151.0 L 186.0,150.5 L 184.0,150.5 L 182.0,150.5 L 180.0,150.5 L 179.0,151.5 L 177.5,151.0 L 176.0,150.5 L 174.0,150.5 L 173.0,149.5 L 171.0,149.5 L 170.0,148.5 L 168.5,148.0 L 167.0,147.5 L 165.5,147.0 L 164.0,146.5 L 162.0,146.5 L 160.0,146.5 L 158.0,146.5 L 156.5,146.0 L 155.0,145.5 L 154.0,144.5 L 152.0,144.5 L 150.0,144.5 L 148.0,144.5 L 146.0,144.5 L 144.0,144.5 L 142.0,144.5 L 141.0,143.5 L 140.0,142.5 L 138.5,142.0 L 137.0,141.5 L 136.0,140.5 L 135.0,139.5 L 133.5,139.0 L 132.0,138.5 L 131.0,137.5 L 130.0,136.5 L 128.0,136.5 L 126.5,136.0 L 125.5,135.0 L 124.0,134.5 L 123.0,133.5 L 122.0,132.5 L 120.0,132.5 L 119.0,131.5 L 117.0,131.5 L 115.0,131.5 L 113.0,131.5 L 111.0,131.5 L 109.0,131.5 L 108.0,130.5 L 106.5,130.0 L 105.5,129.0 L 104.0,128.5 L 103.0,127.5 L 102.0,126.5 L 100.0,126.5 L 99.0,127.5 L 98.0,128.5 L 97.0,127.5 L 95.5,128.0 L 94.0,128.5 L 92.0,128.5 L 90.0,128.5 L 88.0,128.5 L 86.5,129.0 L 85.5,130.0 L 84.5,131.0 L 83.5,132.0 L 82.0,132.5 L 81.0,133.5 L 79.5,134.0 L 78.0,134.5 L 77.0,135.5 L 76.5,137.0 L 75.5,138.0 L 75.0,139.5 L 74.0,140.5 L 73.0,141.5 L 72.5,143.0 L 71.5,144.0 L 70.5,145.0 L 70.5,147.0 L 69.5,148.0 L 69.0,149.5 L 68.0,150.5 L 68.0,151.5 L 68.0,152.5 L 67.5,154.0 L 66.5,155.0 L 65.5,156.0 L 64.5,157.0 L 63.5,158.0 L 62.0,158.5 L 61.0,159.5 L 60.0,160.5 L 58.0,160.5 L 56.0,160.5 L 55.0,161.5 L 53.5,161.0 L 52.0,160.5 L 50.0,160.5 L 48.0,160.5 L 46.5,160.0 L 45.0,159.5 L 44.0,160.5 L 42.5,161.0 L 41.5,162.0 L 41.0,163.5 L 40.5,165.0 L 40.0,166.5 L 39.0,167.5 L 38.0,168.5 L 36.5,168.0 L 35.0,167.5 L 34.0,168.5 L 32.0,168.5 L 31.0,167.5 L 30.0,166.5 L 29.0,165.5 L 28.0,166.5 L 27.0,165.5 L 26.0,164.5 L 25.0,163.5 L 24.5,162.0 L 23.5,161.0 L 23.0,159.5 L 22.5,158.0 L 22.5,156.0 L 21.5,155.0 L 21.5,153.0 L 21.5,151.0 L 20.5,150.0 L 20.0,148.5 L 19.0,147.5 L 18.0,148.5 L 17.0,149.5 L 15.0,149.5 L 13.0,149.5 L 11.0,149.5 L 9.5,149.0 L 8.0,148.5 L 7.0,147.5 L 6.0,146.5 L 4.0,146.5 L 2.0,146.5 L 1.0,145.5 Z" />
    <path d="M 282.0,185.5 L 281.0,184.5 L 279.0,184.5 L 278.0,183.5 L 277.0,182.5 L 276.0,181.5 L 276.0,180.5 L 276.0,179.5 L 275.0,178.5 L 274.0,177.5 L 272.5,178.0 L 271.5,179.0 L 270.5,180.0 L 269.5,180.0 L 268.5,179.0 L 268.5,177.0 L 269.5,176.0 L 271.0,175.5 L 272.0,174.5 L 272.0,173.5 L 271.5,172.0 L 272.5,171.0 L 272.5,169.0 L 271.5,168.0 L 270.5,167.0 L 270.5,165.0 L 271.5,164.0 L 271.5,162.0 L 271.5,160.0 L 272.5,159.0 L 272.5,157.0 L 273.5,156.0 L 273.5,154.0 L 274.0,152.5 L 274.5,151.0 L 274.5,149.0 L 275.0,147.5 L 275.5,146.0 L 276.0,144.5 L 276.5,143.0 L 277.5,142.0 L 277.5,140.0 L 278.5,139.0 L 279.0,137.5 L 280.0,136.5 L 281.0,135.5 L 282.0,134.5 L 282.5,133.0 L 283.0,131.5 L 284.0,130.5 L 286.0,130.5 L 287.0,129.5 L 287.5,128.0 L 288.5,127.0 L 290.0,126.5 L 291.0,127.5 L 292.0,128.5 L 293.5,128.0 L 294.5,128.0 L 295.5,129.0 L 296.0,130.5 L 297.0,131.5 L 298.0,130.5 L 300.0,130.5 L 301.0,131.5 L 301.5,133.0 L 302.5,134.0 L 303.5,135.0 L 303.5,137.0 L 304.0,138.5 L 305.0,139.5 L 306.5,140.0 L 307.5,141.0 L 308.0,142.5 L 308.0,143.5 L 307.0,144.5 L 306.5,146.0 L 307.5,147.0 L 308.0,148.5 L 308.5,150.0 L 307.5,151.0 L 306.0,151.5 L 305.0,152.5 L 304.5,154.0 L 304.5,156.0 L 303.5,157.0 L 302.5,158.0 L 301.0,158.5 L 300.0,157.5 L 299.0,156.5 L 297.5,156.0 L 296.5,156.0 L 295.0,156.5 L 294.0,157.5 L 293.0,158.5 L 292.0,159.5 L 291.0,158.5 L 289.0,158.5 L 287.5,159.0 L 286.0,159.5 L 284.0,159.5 L 282.0,159.5 L 281.0,160.5 L 279.5,161.0 L 278.5,162.0 L 277.5,163.0 L 277.5,165.0 L 278.5,166.0 L 278.5,168.0 L 279.5,169.0 L 279.5,171.0 L 280.5,172.0 L 280.5,174.0 L 280.5,176.0 L 280.0,177.5 L 280.0,178.5 L 281.0,179.5 L 283.0,179.5 L 284.0,180.5 L 284.5,182.0 L 284.0,183.5 L 283.0,184.5 L 282.0,185.5 Z" />
    <path d="M 15.0,210.5 L 13.0,210.5 L 11.5,210.0 L 10.5,209.0 L 11.0,207.5 L 11.5,206.0 L 10.5,205.0 L 10.0,203.5 L 9.5,202.0 L 9.5,200.0 L 8.5,199.0 L 7.5,198.0 L 6.5,197.0 L 6.0,195.5 L 5.5,194.0 L 5.5,192.0 L 6.5,191.0 L 7.0,189.5 L 8.0,188.5 L 9.5,188.0 L 11.0,187.5 L 12.0,186.5 L 13.5,187.0 L 15.0,187.5 L 16.0,186.5 L 16.5,185.0 L 17.0,183.5 L 18.0,182.5 L 19.0,183.5 L 19.5,185.0 L 19.5,187.0 L 19.5,189.0 L 20.0,190.5 L 21.0,191.5 L 21.5,193.0 L 22.5,194.0 L 21.5,195.0 L 21.5,197.0 L 21.5,199.0 L 20.5,200.0 L 19.5,201.0 L 18.5,202.0 L 17.5,203.0 L 17.5,205.0 L 16.5,206.0 L 15.5,207.0 L 16.5,208.0 L 16.0,209.5 L 15.0,210.5 Z" />
    <path d="M 601.0,246.5 L 599.5,246.0 L 598.0,245.5 L 596.5,246.0 L 595.0,246.5 L 593.0,246.5 L 591.0,246.5 L 589.0,246.5 L 587.0,246.5 L 585.0,246.5 L 583.5,246.0 L 582.5,245.0 L 581.5,244.0 L 580.5,243.0 L 579.5,242.0 L 578.5,241.0 L 577.5,240.0 L 578.5,239.0 L 579.5,238.0 L 580.5,237.0 L 581.0,235.5 L 582.0,234.5 L 582.0,233.5 L 581.5,232.0 L 582.5,231.0 L 582.0,229.5 L 581.5,228.0 L 582.5,227.0 L 582.0,225.5 L 581.0,224.5 L 580.0,223.5 L 580.0,222.5 L 581.0,221.5 L 582.0,220.5 L 582.5,219.0 L 583.5,218.0 L 585.0,217.5 L 587.0,217.5 L 589.0,217.5 L 591.0,217.5 L 592.0,216.5 L 594.0,216.5 L 596.0,216.5 L 598.0,216.5 L 599.5,217.0 L 600.5,218.0 L 602.0,218.5 L 603.0,219.5 L 604.5,220.0 L 606.0,220.5 L 607.5,221.0 L 608.5,222.0 L 609.5,222.0 L 610.5,221.0 L 611.5,221.0 L 612.5,222.0 L 613.5,223.0 L 614.0,224.5 L 615.0,225.5 L 616.0,226.5 L 616.5,228.0 L 616.5,230.0 L 616.5,232.0 L 615.5,233.0 L 614.5,234.0 L 614.0,235.5 L 613.5,237.0 L 612.5,238.0 L 612.0,239.5 L 611.0,240.5 L 610.0,241.5 L 609.0,242.5 L 608.0,243.5 L 606.0,243.5 L 605.0,244.5 L 604.0,245.5 L 602.0,245.5 L 601.0,246.5 Z" />
    <path d="M 620.0,402.5 L 618.0,402.5 L 616.0,402.5 L 614.0,402.5 L 612.0,402.5 L 610.0,402.5 L 608.0,402.5 L 606.5,402.0 L 605.5,401.0 L 604.5,400.0 L 603.5,399.0 L 603.0,397.5 L 602.0,396.5 L 601.0,395.5 L 599.0,395.5 L 597.5,396.0 L 596.0,396.5 L 595.0,397.5 L 594.5,399.0 L 593.5,400.0 L 592.5,401.0 L 591.0,401.5 L 589.5,402.0 L 588.5,403.0 L 587.5,404.0 L 586.0,404.5 L 585.0,405.5 L 583.0,405.5 L 581.0,405.5 L 579.0,405.5 L 578.0,406.5 L 577.5,408.0 L 577.5,410.0 L 576.5,411.0 L 576.0,412.5 L 575.0,413.5 L 573.0,413.5 L 572.0,414.5 L 570.5,414.0 L 569.5,413.0 L 569.5,411.0 L 568.5,410.0 L 568.5,408.0 L 569.5,407.0 L 570.5,406.0 L 571.5,405.0 L 573.0,404.5 L 575.0,404.5 L 576.0,403.5 L 576.0,402.5 L 575.0,401.5 L 573.0,401.5 L 571.0,401.5 L 569.5,401.0 L 568.0,400.5 L 567.0,399.5 L 566.0,400.5 L 564.0,400.5 L 563.0,401.5 L 562.0,402.5 L 561.0,403.5 L 559.0,403.5 L 557.0,403.5 L 555.0,403.5 L 553.0,403.5 L 551.0,403.5 L 549.0,403.5 L 547.0,403.5 L 545.0,403.5 L 544.0,402.5 L 542.0,402.5 L 540.0,402.5 L 538.0,402.5 L 536.0,402.5 L 534.0,402.5 L 532.0,402.5 L 530.0,402.5 L 528.0,402.5 L 527.0,403.5 L 525.5,403.0 L 524.5,403.0 L 523.0,403.5 L 521.0,403.5 L 519.0,403.5 L 517.0,403.5 L 515.0,403.5 L 514.0,402.5 L 512.0,402.5 L 511.0,401.5 L 509.0,401.5 L 508.0,400.5 L 506.0,400.5 L 504.0,400.5 L 503.0,401.5 L 501.0,401.5 L 499.5,402.0 L 498.0,402.5 L 496.0,402.5 L 495.0,403.5 L 493.0,403.5 L 492.0,404.5 L 491.0,403.5 L 490.0,402.5 L 489.0,401.5 L 488.0,400.5 L 487.5,399.0 L 486.5,398.0 L 485.0,397.5 L 483.5,398.0 L 482.0,398.5 L 480.0,398.5 L 478.0,398.5 L 477.0,397.5 L 476.0,396.5 L 475.0,395.5 L 473.0,395.5 L 471.5,396.0 L 470.0,396.5 L 469.0,397.5 L 468.0,398.5 L 467.0,399.5 L 465.5,400.0 L 464.0,400.5 L 462.5,401.0 L 461.5,401.0 L 460.5,401.0 L 459.0,401.5 L 457.5,402.0 L 456.5,402.0 L 455.5,401.0 L 454.5,400.0 L 453.5,399.0 L 453.0,397.5 L 452.5,396.0 L 453.0,394.5 L 454.0,393.5 L 454.5,392.0 L 454.0,390.5 L 453.5,389.0 L 454.5,388.0 L 455.5,388.0 L 457.0,388.5 L 458.0,387.5 L 458.0,386.5 L 457.5,385.0 L 456.5,384.0 L 456.0,382.5 L 455.5,381.0 L 456.5,380.0 L 457.5,380.0 L 459.0,380.5 L 460.0,379.5 L 460.5,378.0 L 460.5,376.0 L 460.5,374.0 L 461.5,373.0 L 461.5,371.0 L 461.0,369.5 L 460.5,368.0 L 461.0,366.5 L 462.0,365.5 L 463.0,364.5 L 463.5,363.0 L 463.5,361.0 L 464.5,360.0 L 464.0,358.5 L 463.5,357.0 L 463.5,355.0 L 462.5,354.0 L 462.0,352.5 L 462.0,351.5 L 463.0,350.5 L 464.0,349.5 L 465.0,348.5 L 465.5,347.0 L 464.5,346.0 L 464.5,344.0 L 464.5,342.0 L 463.5,341.0 L 464.5,340.0 L 465.5,339.0 L 466.0,337.5 L 467.0,336.5 L 467.0,335.5 L 467.0,334.5 L 467.0,333.5 L 466.5,332.0 L 466.5,330.0 L 465.5,329.0 L 466.5,328.0 L 467.5,327.0 L 467.5,325.0 L 468.5,324.0 L 468.0,322.5 L 467.5,321.0 L 467.5,319.0 L 466.5,318.0 L 466.0,316.5 L 466.0,315.5 L 467.0,314.5 L 468.5,314.0 L 469.5,313.0 L 468.5,312.0 L 468.5,310.0 L 467.5,309.0 L 467.0,307.5 L 466.5,306.0 L 467.5,305.0 L 468.5,304.0 L 469.0,302.5 L 469.5,301.0 L 469.5,299.0 L 470.5,298.0 L 470.0,296.5 L 469.5,295.0 L 470.5,294.0 L 470.5,292.0 L 471.5,291.0 L 470.5,290.0 L 470.5,288.0 L 470.5,286.0 L 471.5,285.0 L 472.5,284.0 L 472.5,282.0 L 471.5,281.0 L 471.5,279.0 L 470.5,278.0 L 471.0,276.5 L 472.0,275.5 L 472.0,274.5 L 471.5,273.0 L 472.0,271.5 L 473.0,270.5 L 473.0,269.5 L 472.5,268.0 L 471.5,267.0 L 472.0,265.5 L 473.0,264.5 L 473.0,263.5 L 472.0,262.5 L 472.0,261.5 L 473.0,260.5 L 474.0,259.5 L 474.5,258.0 L 474.5,256.0 L 475.5,255.0 L 476.5,255.0 L 477.5,256.0 L 478.5,257.0 L 478.5,259.0 L 479.5,260.0 L 480.5,261.0 L 482.0,261.5 L 484.0,261.5 L 485.0,260.5 L 487.0,260.5 L 488.0,259.5 L 490.0,259.5 L 491.0,258.5 L 492.5,258.0 L 494.0,257.5 L 495.0,256.5 L 497.0,256.5 L 498.5,256.0 L 500.0,255.5 L 501.5,255.0 L 503.0,254.5 L 505.0,254.5 L 507.0,254.5 L 509.0,254.5 L 511.0,254.5 L 513.0,254.5 L 515.0,254.5 L 517.0,254.5 L 518.0,255.5 L 519.0,256.5 L 520.0,257.5 L 521.5,258.0 L 523.0,258.5 L 525.0,258.5 L 526.5,258.0 L 528.0,257.5 L 530.0,257.5 L 532.0,257.5 L 534.0,257.5 L 535.5,257.0 L 537.0,256.5 L 538.5,256.0 L 540.0,255.5 L 541.5,255.0 L 543.0,254.5 L 545.0,254.5 L 547.0,254.5 L 549.0,254.5 L 551.0,254.5 L 553.0,254.5 L 555.0,254.5 L 556.0,253.5 L 558.0,253.5 L 560.0,253.5 L 561.5,254.0 L 563.0,254.5 L 564.0,253.5 L 566.0,253.5 L 568.0,253.5 L 570.0,253.5 L 572.0,253.5 L 573.5,253.0 L 575.0,252.5 L 576.0,253.5 L 578.0,253.5 L 579.5,254.0 L 581.0,254.5 L 582.0,255.5 L 583.0,256.5 L 585.0,256.5 L 586.5,256.0 L 587.5,255.0 L 588.5,254.0 L 590.0,253.5 L 592.0,253.5 L 593.5,253.0 L 595.0,252.5 L 597.0,252.5 L 598.0,253.5 L 599.5,253.0 L 601.0,252.5 L 603.0,252.5 L 605.0,252.5 L 607.0,252.5 L 609.0,252.5 L 611.0,252.5 L 613.0,252.5 L 615.0,252.5 L 616.0,253.5 L 618.0,253.5 L 620.0,253.5 Z" />
    <path d="M 598.5,372.0 L 600.0,371.5 L 601.0,370.5 L 602.0,369.5 L 603.0,368.5 L 603.5,367.0 L 604.5,366.0 L 605.5,365.0 L 606.5,364.0 L 608.0,363.5 L 610.0,363.5 L 612.0,363.5 L 614.0,363.5 L 616.0,363.5 L 617.5,363.0 L 618.5,362.0 L 617.5,361.0 L 616.5,360.0 L 615.0,359.5 L 613.0,359.5 L 612.0,360.5 L 610.0,360.5 L 608.0,360.5 L 606.0,360.5 L 604.5,361.0 L 603.5,362.0 L 602.0,362.5 L 600.5,363.0 L 599.0,363.5 L 597.0,363.5 L 595.0,363.5 L 593.0,363.5 L 591.5,364.0 L 590.0,364.5 L 589.0,365.5 L 589.0,366.5 L 589.5,368.0 L 590.5,369.0 L 591.5,370.0 L 592.5,371.0 L 593.5,372.0 L 595.0,372.5 L 597.0,372.5 L 598.5,372.0 Z" />
    <path d="M 550.5,443.0 L 550.5,441.0 L 550.0,439.5 L 549.5,438.0 L 550.5,437.0 L 550.5,435.0 L 551.5,434.0 L 553.0,433.5 L 555.0,433.5 L 556.5,433.0 L 557.5,433.0 L 559.0,433.5 L 560.0,434.5 L 561.0,435.5 L 562.5,435.0 L 564.0,434.5 L 565.0,433.5 L 566.5,433.0 L 567.5,433.0 L 568.5,433.0 L 569.5,432.0 L 568.5,431.0 L 569.5,430.0 L 571.0,429.5 L 572.0,430.5 L 573.0,431.5 L 574.0,430.5 L 575.0,429.5 L 576.0,428.5 L 577.0,427.5 L 578.5,428.0 L 579.5,429.0 L 579.0,430.5 L 578.0,431.5 L 577.0,432.5 L 576.0,433.5 L 574.5,433.0 L 573.5,433.0 L 572.5,434.0 L 573.5,435.0 L 574.5,436.0 L 575.5,437.0 L 577.0,437.5 L 578.5,437.0 L 579.5,437.0 L 580.5,438.0 L 581.5,438.0 L 582.5,437.0 L 583.5,436.0 L 585.0,435.5 L 586.0,434.5 L 587.0,433.5 L 588.0,432.5 L 588.0,431.5 L 587.5,430.0 L 586.5,429.0 L 587.0,427.5 L 588.0,426.5 L 589.5,427.0 L 591.0,427.5 L 592.0,428.5 L 593.0,427.5 L 593.0,426.5 L 592.0,425.5 L 591.0,424.5 L 590.5,423.0 L 590.0,421.5 L 589.0,420.5 L 587.5,421.0 L 586.0,421.5 L 584.0,421.5 L 582.5,421.0 L 581.5,421.0 L 580.5,422.0 L 579.5,422.0 L 578.0,421.5 L 577.0,420.5 L 577.0,419.5 L 578.0,418.5 L 579.5,418.0 L 580.5,417.0 L 581.5,416.0 L 582.5,415.0 L 583.0,413.5 L 584.0,412.5 L 585.0,413.5 L 586.5,413.0 L 587.5,412.0 L 589.0,411.5 L 590.0,412.5 L 591.0,413.5 L 592.0,414.5 L 593.0,413.5 L 593.0,412.5 L 592.0,411.5 L 591.0,410.5 L 590.5,409.0 L 590.5,407.0 L 591.5,406.0 L 592.5,405.0 L 593.0,403.5 L 594.0,402.5 L 595.5,402.0 L 597.0,401.5 L 599.0,401.5 L 601.0,401.5 L 602.5,402.0 L 603.5,403.0 L 604.5,404.0 L 604.5,406.0 L 604.5,408.0 L 603.5,409.0 L 602.5,410.0 L 601.5,411.0 L 600.0,411.5 L 599.0,412.5 L 597.5,413.0 L 596.5,414.0 L 597.5,415.0 L 598.5,416.0 L 599.5,417.0 L 601.0,417.5 L 602.0,416.5 L 602.0,415.5 L 602.0,414.5 L 603.0,413.5 L 604.0,414.5 L 605.0,415.5 L 606.5,415.0 L 607.5,414.0 L 608.5,414.0 L 610.0,414.5 L 612.0,414.5 L 613.0,413.5 L 614.0,414.5 L 615.0,415.5 L 616.0,416.5 L 617.0,417.5 L 618.0,418.5 L 618.0,419.5 L 617.0,420.5 L 616.0,421.5 L 615.0,422.5 L 614.0,423.5 L 613.5,425.0 L 613.0,426.5 L 612.0,427.5 L 612.0,428.5 L 613.0,429.5 L 614.0,430.5 L 614.0,431.5 L 613.0,432.5 L 612.0,431.5 L 610.5,432.0 L 609.5,433.0 L 608.5,434.0 L 607.5,435.0 L 608.5,436.0 L 607.5,437.0 L 608.0,438.5 L 608.0,439.5 L 607.0,440.5 L 606.0,441.5 L 604.5,441.0 L 603.0,440.5 L 602.0,441.5 L 601.5,443.0 Z" />
    <path d="M 0.0,437.5 L 1.0,438.5 L 2.5,439.0 L 3.5,440.0 L 5.0,440.5 L 6.0,439.5 L 6.5,438.0 L 7.0,436.5 L 8.0,435.5 L 9.0,434.5 L 11.0,434.5 L 12.0,435.5 L 13.0,436.5 L 14.0,435.5 L 14.5,434.0 L 15.5,433.0 L 17.0,432.5 L 18.5,433.0 L 19.5,434.0 L 20.5,435.0 L 22.0,435.5 L 23.5,435.0 L 25.0,434.5 L 26.0,435.5 L 27.0,436.5 L 28.5,437.0 L 30.0,437.5 L 31.5,438.0 L 33.0,438.5 L 35.0,438.5 L 37.0,438.5 L 38.0,437.5 L 39.5,437.0 L 40.5,436.0 L 41.5,435.0 L 42.5,435.0 L 43.5,436.0 L 44.5,436.0 L 45.5,435.0 L 47.0,434.5 L 48.0,435.5 L 49.0,434.5 L 50.0,435.5 L 51.0,436.5 L 53.0,436.5 L 54.0,437.5 L 55.0,438.5 L 56.0,439.5 L 57.5,439.0 L 58.5,438.0 L 58.0,436.5 L 57.0,435.5 L 56.0,434.5 L 55.0,433.5 L 54.0,432.5 L 53.0,433.5 L 51.0,433.5 L 50.0,434.5 L 49.0,433.5 L 48.0,432.5 L 47.5,431.0 L 46.5,430.0 L 45.0,429.5 L 44.0,428.5 L 43.0,427.5 L 42.5,426.0 L 41.5,425.0 L 40.5,425.0 L 39.5,426.0 L 40.5,427.0 L 41.5,428.0 L 40.5,429.0 L 39.5,429.0 L 38.5,428.0 L 37.0,427.5 L 36.0,428.5 L 35.0,429.5 L 33.5,429.0 L 32.0,428.5 L 31.0,427.5 L 29.0,427.5 L 28.0,426.5 L 27.0,425.5 L 26.0,424.5 L 24.5,425.0 L 23.0,425.5 L 21.0,425.5 L 20.0,424.5 L 19.0,423.5 L 18.5,422.0 L 18.0,420.5 L 17.0,419.5 L 17.0,418.5 L 18.0,417.5 L 19.5,418.0 L 20.5,419.0 L 22.0,419.5 L 24.0,419.5 L 25.0,420.5 L 26.0,421.5 L 27.0,422.5 L 28.0,421.5 L 29.5,421.0 L 31.0,420.5 L 32.0,419.5 L 33.0,420.5 L 34.0,421.5 L 35.5,421.0 L 36.5,420.0 L 38.0,419.5 L 39.0,420.5 L 40.0,421.5 L 41.5,421.0 L 43.0,420.5 L 45.0,420.5 L 47.0,420.5 L 48.0,419.5 L 49.0,418.5 L 49.0,417.5 L 48.0,416.5 L 47.0,415.5 L 45.0,415.5 L 43.5,415.0 L 42.0,414.5 L 41.0,413.5 L 40.5,412.0 L 39.5,411.0 L 38.0,410.5 L 36.0,410.5 L 34.5,411.0 L 33.5,412.0 L 32.5,413.0 L 31.5,414.0 L 31.0,415.5 L 30.0,416.5 L 28.5,416.0 L 27.0,415.5 L 26.0,416.5 L 25.0,415.5 L 24.0,414.5 L 22.0,414.5 L 20.0,414.5 L 18.0,414.5 L 16.0,414.5 L 15.0,415.5 L 14.5,417.0 L 14.5,419.0 L 13.5,420.0 L 12.5,421.0 L 11.0,421.5 L 10.0,420.5 L 9.0,419.5 L 7.5,419.0 L 6.0,418.5 L 5.0,419.5 L 4.0,420.5 L 3.0,421.5 L 2.0,420.5 L 0.0,420.5 Z" />
    <path d="M 143.5,443.0 L 144.0,441.5 L 145.0,440.5 L 146.5,440.0 L 147.5,439.0 L 147.0,437.5 L 146.0,436.5 L 145.0,435.5 L 145.0,434.5 L 146.0,433.5 L 146.5,432.0 L 147.5,431.0 L 149.0,430.5 L 150.0,431.5 L 151.0,432.5 L 152.5,433.0 L 153.5,434.0 L 154.5,435.0 L 156.0,435.5 L 157.0,436.5 L 158.0,437.5 L 160.0,437.5 L 162.0,437.5 L 163.5,437.0 L 165.0,436.5 L 167.0,436.5 L 169.0,436.5 L 170.5,436.0 L 171.5,435.0 L 172.5,434.0 L 173.5,433.0 L 173.5,431.0 L 172.5,430.0 L 171.0,429.5 L 170.0,430.5 L 169.0,431.5 L 167.5,431.0 L 166.5,430.0 L 166.5,428.0 L 167.5,427.0 L 167.0,425.5 L 166.0,424.5 L 165.0,423.5 L 164.0,424.5 L 163.0,423.5 L 162.0,422.5 L 160.5,423.0 L 159.0,423.5 L 158.0,422.5 L 157.0,421.5 L 156.0,420.5 L 154.5,421.0 L 153.5,422.0 L 153.5,424.0 L 152.5,425.0 L 151.5,426.0 L 150.0,426.5 L 149.0,425.5 L 148.0,424.5 L 147.5,423.0 L 148.5,422.0 L 148.0,420.5 L 147.0,419.5 L 146.5,418.0 L 145.5,417.0 L 144.0,416.5 L 143.0,417.5 L 142.0,416.5 L 141.0,417.5 L 140.0,418.5 L 139.0,419.5 L 138.0,420.5 L 137.0,419.5 L 135.5,419.0 L 134.5,418.0 L 135.5,417.0 L 137.0,416.5 L 138.0,415.5 L 138.5,414.0 L 137.5,413.0 L 136.5,412.0 L 135.0,411.5 L 134.0,412.5 L 133.0,413.5 L 131.5,414.0 L 130.5,415.0 L 130.0,416.5 L 129.0,417.5 L 127.5,418.0 L 126.5,419.0 L 125.5,420.0 L 124.0,420.5 L 123.0,421.5 L 122.0,422.5 L 121.5,424.0 L 122.0,425.5 L 123.0,426.5 L 124.0,427.5 L 125.0,428.5 L 125.5,430.0 L 125.0,431.5 L 124.0,432.5 L 122.0,432.5 L 120.0,432.5 L 119.0,433.5 L 117.5,433.0 L 116.5,432.0 L 115.5,431.0 L 114.5,430.0 L 115.5,429.0 L 115.0,427.5 L 114.0,426.5 L 113.5,425.0 L 114.5,424.0 L 115.0,422.5 L 116.0,421.5 L 117.5,421.0 L 118.5,420.0 L 118.5,418.0 L 119.0,416.5 L 120.0,415.5 L 122.0,415.5 L 123.5,415.0 L 124.5,414.0 L 123.5,413.0 L 122.5,412.0 L 121.5,411.0 L 120.0,410.5 L 119.0,411.5 L 118.0,412.5 L 117.0,413.5 L 116.0,414.5 L 115.5,416.0 L 115.5,418.0 L 114.5,419.0 L 113.0,419.5 L 112.0,420.5 L 110.5,421.0 L 109.5,421.0 L 108.5,420.0 L 107.5,419.0 L 107.0,417.5 L 106.5,416.0 L 105.5,415.0 L 104.5,415.0 L 103.5,416.0 L 104.0,417.5 L 105.0,418.5 L 106.0,419.5 L 106.0,420.5 L 105.0,421.5 L 104.0,420.5 L 102.0,420.5 L 101.0,419.5 L 100.0,420.5 L 98.5,420.0 L 97.5,419.0 L 96.0,418.5 L 95.0,419.5 L 94.5,421.0 L 94.0,422.5 L 93.0,423.5 L 91.5,424.0 L 90.5,425.0 L 90.0,426.5 L 89.0,427.5 L 87.0,427.5 L 85.0,427.5 L 84.0,428.5 L 83.0,429.5 L 83.0,430.5 L 84.0,431.5 L 86.0,431.5 L 88.0,431.5 L 90.0,431.5 L 91.0,430.5 L 92.0,431.5 L 93.0,432.5 L 95.0,432.5 L 97.0,432.5 L 98.0,433.5 L 99.0,434.5 L 100.0,435.5 L 101.5,435.0 L 102.5,434.0 L 103.5,433.0 L 103.0,431.5 L 102.0,430.5 L 100.5,430.0 L 99.5,429.0 L 100.5,428.0 L 102.0,427.5 L 103.5,428.0 L 104.5,428.0 L 105.5,428.0 L 106.5,429.0 L 107.5,430.0 L 108.5,430.0 L 109.5,429.0 L 110.5,428.0 L 111.5,428.0 L 112.5,429.0 L 113.5,430.0 L 114.5,431.0 L 113.5,432.0 L 112.5,433.0 L 111.5,434.0 L 111.5,436.0 L 111.5,438.0 L 110.5,439.0 L 110.5,441.0 L 111.5,442.0 Z" />
    <path d="M 530.0,425.5 L 529.0,424.5 L 529.0,423.5 L 530.0,422.5 L 530.5,421.0 L 529.5,420.0 L 528.5,419.0 L 527.0,418.5 L 525.5,418.0 L 524.5,417.0 L 525.5,416.0 L 526.5,415.0 L 527.5,414.0 L 526.5,413.0 L 527.5,412.0 L 528.5,412.0 L 529.5,413.0 L 528.5,414.0 L 529.5,415.0 L 530.5,415.0 L 531.5,414.0 L 533.0,413.5 L 535.0,413.5 L 536.0,414.5 L 537.0,413.5 L 539.0,413.5 L 540.0,414.5 L 541.0,415.5 L 543.0,415.5 L 545.0,415.5 L 546.0,414.5 L 547.0,415.5 L 548.0,414.5 L 549.5,414.0 L 551.0,413.5 L 552.0,412.5 L 554.0,412.5 L 556.0,412.5 L 557.0,413.5 L 558.0,414.5 L 558.5,416.0 L 558.0,417.5 L 557.0,418.5 L 555.5,418.0 L 554.5,417.0 L 553.0,416.5 L 552.0,417.5 L 551.0,418.5 L 550.0,419.5 L 548.0,419.5 L 546.0,419.5 L 544.5,420.0 L 543.5,421.0 L 542.0,421.5 L 540.5,422.0 L 539.0,422.5 L 537.0,422.5 L 535.0,422.5 L 533.0,422.5 L 532.0,423.5 L 531.0,424.5 L 530.0,425.5 Z" />
    <path d="M 245.5,430.0 L 246.5,429.0 L 247.0,427.5 L 247.0,426.5 L 246.0,425.5 L 244.0,425.5 L 243.0,426.5 L 242.0,427.5 L 241.0,426.5 L 241.0,425.5 L 242.0,424.5 L 242.5,423.0 L 243.5,422.0 L 242.5,421.0 L 241.0,420.5 L 239.0,420.5 L 237.0,420.5 L 235.5,420.0 L 234.5,419.0 L 233.5,418.0 L 232.0,417.5 L 231.0,418.5 L 229.0,418.5 L 228.0,417.5 L 227.0,416.5 L 225.0,416.5 L 223.5,417.0 L 222.0,417.5 L 220.5,418.0 L 219.0,418.5 L 218.0,419.5 L 216.0,419.5 L 215.0,420.5 L 214.5,422.0 L 213.5,423.0 L 212.5,424.0 L 213.5,425.0 L 214.5,426.0 L 215.5,427.0 L 217.0,427.5 L 218.0,426.5 L 219.0,425.5 L 220.0,424.5 L 221.0,425.5 L 222.0,426.5 L 223.5,426.0 L 224.5,425.0 L 226.0,424.5 L 227.5,425.0 L 228.5,426.0 L 229.5,427.0 L 230.5,428.0 L 231.5,428.0 L 232.5,427.0 L 233.5,426.0 L 235.0,425.5 L 236.5,426.0 L 237.5,427.0 L 238.5,428.0 L 240.0,428.5 L 241.0,429.5 L 242.0,428.5 L 243.0,429.5 L 244.5,430.0 L 245.5,430.0 Z" />
    <path d="M 72.5,436.0 L 73.5,435.0 L 72.5,434.0 L 72.0,432.5 L 71.0,431.5 L 70.0,430.5 L 69.0,429.5 L 68.5,428.0 L 69.5,427.0 L 71.0,426.5 L 72.5,427.0 L 73.5,428.0 L 75.0,428.5 L 77.0,428.5 L 79.0,428.5 L 80.0,427.5 L 80.5,426.0 L 79.5,425.0 L 78.5,424.0 L 77.0,423.5 L 75.5,423.0 L 74.5,422.0 L 73.5,421.0 L 72.0,420.5 L 71.0,421.5 L 70.0,422.5 L 68.5,422.0 L 67.5,422.0 L 66.5,422.0 L 65.0,421.5 L 63.0,421.5 L 62.0,420.5 L 61.0,419.5 L 60.0,418.5 L 59.0,419.5 L 58.0,420.5 L 57.5,422.0 L 57.0,423.5 L 57.0,424.5 L 58.0,425.5 L 59.5,426.0 L 60.5,427.0 L 62.0,427.5 L 63.0,428.5 L 64.0,429.5 L 65.5,430.0 L 67.0,430.5 L 68.0,431.5 L 68.5,433.0 L 69.5,434.0 L 70.5,435.0 L 71.5,436.0 L 72.5,436.0 Z" />
    <path d="M 189.5,433.0 L 191.0,432.5 L 193.0,432.5 L 195.0,432.5 L 196.0,431.5 L 197.0,430.5 L 198.0,429.5 L 200.0,429.5 L 202.0,429.5 L 203.0,428.5 L 204.0,427.5 L 205.0,426.5 L 207.0,426.5 L 208.5,426.0 L 209.5,425.0 L 208.5,424.0 L 207.0,423.5 L 206.0,422.5 L 205.0,421.5 L 204.0,420.5 L 202.5,421.0 L 201.5,422.0 L 200.5,423.0 L 200.5,425.0 L 199.5,426.0 L 198.0,426.5 L 197.0,427.5 L 196.0,426.5 L 194.5,427.0 L 193.0,427.5 L 192.0,426.5 L 191.0,425.5 L 189.0,425.5 L 187.5,426.0 L 186.5,427.0 L 185.5,428.0 L 184.0,428.5 L 182.0,428.5 L 180.5,429.0 L 179.5,430.0 L 180.0,431.5 L 181.0,432.5 L 183.0,432.5 L 185.0,432.5 L 186.0,433.5 L 188.0,433.5 L 189.5,433.0 Z" />
    <path d="M 532.5,443.0 L 531.5,442.0 L 530.5,441.0 L 529.5,440.0 L 528.5,439.0 L 527.5,438.0 L 526.5,437.0 L 525.0,436.5 L 523.0,436.5 L 522.0,435.5 L 520.5,435.0 L 519.5,434.0 L 518.5,433.0 L 517.0,432.5 L 515.5,432.0 L 514.5,431.0 L 514.5,429.0 L 515.0,427.5 L 516.0,426.5 L 516.0,425.5 L 515.5,424.0 L 514.5,423.0 L 513.0,422.5 L 511.5,423.0 L 510.5,424.0 L 509.0,424.5 L 507.0,424.5 L 506.0,423.5 L 504.0,423.5 L 503.0,422.5 L 501.0,422.5 L 499.5,422.0 L 498.5,421.0 L 497.5,421.0 L 496.0,421.5 L 495.0,422.5 L 493.5,423.0 L 492.0,423.5 L 491.0,422.5 L 489.0,422.5 L 488.0,423.5 L 487.0,424.5 L 486.0,423.5 L 484.0,423.5 L 483.0,424.5 L 482.0,425.5 L 480.0,425.5 L 479.0,424.5 L 478.0,425.5 L 477.0,426.5 L 475.0,426.5 L 474.0,427.5 L 472.0,427.5 L 470.0,427.5 L 468.0,427.5 L 467.0,426.5 L 466.0,427.5 L 466.0,428.5 L 467.0,429.5 L 468.0,430.5 L 468.5,432.0 L 468.5,434.0 L 468.0,435.5 L 467.0,436.5 L 466.0,437.5 L 465.0,438.5 L 464.0,439.5 L 463.0,440.5 L 462.0,439.5 L 462.0,438.5 L 463.0,437.5 L 463.0,436.5 L 462.0,435.5 L 461.0,434.5 L 460.0,433.5 L 460.0,432.5 L 461.0,431.5 L 461.0,430.5 L 460.0,429.5 L 459.0,430.5 L 458.0,431.5 L 456.5,432.0 L 455.5,433.0 L 456.5,434.0 L 458.0,434.5 L 459.0,435.5 L 460.0,436.5 L 461.0,437.5 L 461.0,438.5 L 460.0,439.5 L 459.0,440.5 L 458.0,441.5 L 456.0,441.5 L 454.0,441.5 L 453.0,440.5 L 452.5,439.0 L 452.5,437.0 L 451.5,436.0 L 452.5,435.0 L 453.5,434.0 L 454.5,433.0 L 453.5,432.0 L 452.5,431.0 L 451.0,430.5 L 449.0,430.5 L 448.0,431.5 L 448.0,432.5 L 449.0,433.5 L 450.0,434.5 L 450.5,436.0 L 449.5,437.0 L 448.5,438.0 L 448.0,439.5 L 447.0,440.5 L 446.0,439.5 L 445.0,438.5 L 444.0,439.5 L 443.0,440.5 L 442.0,441.5 L 441.5,443.0 Z" />
    <path d="M 435.5,443.0 L 436.0,441.5 L 436.5,440.0 L 435.5,439.0 L 435.5,437.0 L 434.5,436.0 L 433.5,436.0 L 432.5,437.0 L 431.5,438.0 L 430.5,439.0 L 429.0,439.5 L 428.0,438.5 L 427.0,437.5 L 425.5,437.0 L 424.5,436.0 L 424.0,434.5 L 423.0,433.5 L 421.0,433.5 L 420.0,432.5 L 419.0,431.5 L 418.0,430.5 L 416.5,430.0 L 415.5,429.0 L 414.5,428.0 L 413.0,427.5 L 412.0,426.5 L 410.5,427.0 L 409.0,427.5 L 407.5,427.0 L 406.0,426.5 L 405.0,425.5 L 403.0,425.5 L 401.0,425.5 L 400.0,424.5 L 398.0,424.5 L 396.5,424.0 L 395.5,424.0 L 394.0,424.5 L 392.0,424.5 L 390.0,424.5 L 388.0,424.5 L 386.5,425.0 L 385.5,426.0 L 384.0,426.5 L 382.0,426.5 L 381.0,425.5 L 380.0,424.5 L 379.0,423.5 L 378.0,422.5 L 377.0,423.5 L 376.0,424.5 L 374.0,424.5 L 372.0,424.5 L 371.0,425.5 L 370.0,426.5 L 369.0,427.5 L 368.5,429.0 L 369.5,430.0 L 368.5,431.0 L 367.5,431.0 L 366.0,430.5 L 365.0,431.5 L 365.0,432.5 L 365.5,434.0 L 364.5,435.0 L 363.5,435.0 L 362.0,434.5 L 360.0,434.5 L 359.0,433.5 L 358.5,432.0 L 358.0,430.5 L 357.0,429.5 L 356.0,428.5 L 355.5,427.0 L 356.5,426.0 L 355.5,425.0 L 354.5,425.0 L 353.5,426.0 L 352.5,427.0 L 353.5,428.0 L 354.5,429.0 L 355.0,430.5 L 355.5,432.0 L 355.5,434.0 L 354.5,435.0 L 353.5,436.0 L 354.5,437.0 L 355.5,438.0 L 357.0,438.5 L 358.5,439.0 L 360.0,439.5 L 362.0,439.5 L 363.0,438.5 L 365.0,438.5 L 366.5,438.0 L 367.5,437.0 L 366.5,436.0 L 365.5,435.0 L 366.5,434.0 L 368.0,433.5 L 369.0,434.5 L 369.0,435.5 L 368.5,437.0 L 369.5,438.0 L 370.5,439.0 L 371.5,440.0 L 372.5,440.0 L 374.0,439.5 L 376.0,439.5 L 378.0,439.5 L 380.0,439.5 L 381.5,440.0 L 382.5,441.0 L 383.5,442.0 Z" />
    <path d="M 493.5,443.0 L 493.0,441.5 L 492.0,440.5 L 490.0,440.5 L 488.0,440.5 L 487.0,439.5 L 486.0,438.5 L 485.0,437.5 L 483.0,437.5 L 481.5,438.0 L 480.0,438.5 L 478.5,439.0 L 477.0,439.5 L 476.0,438.5 L 475.0,437.5 L 475.0,436.5 L 475.0,435.5 L 474.0,434.5 L 474.0,433.5 L 475.0,432.5 L 476.0,431.5 L 477.0,430.5 L 479.0,430.5 L 480.0,431.5 L 481.0,432.5 L 482.0,433.5 L 483.5,433.0 L 485.0,432.5 L 487.0,432.5 L 488.0,433.5 L 489.0,434.5 L 490.0,433.5 L 492.0,433.5 L 494.0,433.5 L 495.0,434.5 L 496.0,435.5 L 498.0,435.5 L 499.5,435.0 L 501.0,434.5 L 503.0,434.5 L 504.0,433.5 L 504.5,432.0 L 504.0,430.5 L 504.0,429.5 L 505.0,428.5 L 507.0,428.5 L 509.0,428.5 L 510.0,429.5 L 510.5,431.0 L 511.0,432.5 L 511.5,434.0 L 510.5,435.0 L 509.5,436.0 L 508.5,437.0 L 509.5,438.0 L 509.0,439.5 L 508.0,440.5 L 507.0,439.5 L 505.5,440.0 L 504.0,440.5 L 503.0,441.5 L 502.5,443.0 Z" />
  </g>
</svg>